<?xml version="1.0" encoding="utf-8" standalone="no"?>
<!DOCTYPE svg PUBLIC "-//W3C//DTD SVG 1.1//EN"
  "http://www.w3.org/Graphics/SVG/1.1/DTD/svg11.dtd">
<svg height="288pt" version="1.1" viewBox="0 0 432 288" width="432pt" xmlns="http://www.w3.org/2000/svg" xmlns:xlink="http://www.w3.org/1999/xlink">
 <metadata>
  <rdf:RDF xmlns:cc="http://creativecommons.org/ns#" xmlns:dc="http://purl.org/dc/elements/1.1/" xmlns:rdf="http://www.w3.org/1999/02/22-rdf-syntax-ns#">
   <cc:Work>
    <dc:type rdf:resource="http://purl.org/dc/dcmitype/StillImage"/>
    <dc:date>2021-12-29T16:37:04.924890</dc:date>
    <dc:format>image/svg+xml</dc:format>
    <dc:creator>
     <cc:Agent>
      <dc:title>Matplotlib v3.4.1, https://matplotlib.org/</dc:title>
     </cc:Agent>
    </dc:creator>
   </cc:Work>
  </rdf:RDF>
 </metadata>
 <defs>
  <style type="text/css">*{stroke-linecap:butt;stroke-linejoin:round;}</style>
 </defs>
 <g id="figure_1">
  <g id="patch_1">
   <path d="M 0 288 
L 432 288 
L 432 0 
L 0 0 
z
" style="fill:none;"/>
  </g>
  <g id="axes_1">
   <g id="patch_2">
    <path d="M 308.376 143.28 
C 308.376 134.65772 307.093858 126.08317 304.571693 117.838026 
C 302.049528 109.592882 298.315263 101.768429 293.491571 94.621702 
C 288.667878 87.474975 282.808163 81.085098 276.104917 75.66198 
C 269.401671 70.238862 261.929109 65.842544 253.932706 62.617446 
C 245.936303 59.392348 237.50459 57.374177 228.914551 56.629229 
C 220.324512 55.884281 211.67125 56.420805 203.239027 58.221175 
C 194.806805 60.021546 186.688976 63.06583 179.152216 67.254022 
C 171.615455 71.442215 164.743204 76.727947 158.761218 82.937581 
C 152.779232 89.147215 147.753739 96.212002 143.849827 103.899862 
C 139.945916 111.587722 137.206808 119.81354 135.722484 128.307096 
C 134.23816 136.800653 134.025053 145.467912 135.090164 154.024152 
C 136.155275 162.580393 138.486812 170.930886 142.008182 178.801316 
C 145.529553 186.671746 150.201772 193.974976 155.871354 200.471094 
C 161.540937 206.967211 168.145115 212.584296 175.466937 217.137825 
C 182.78876 221.691354 190.747166 225.130914 199.08072 227.343514 
C 207.414274 229.556113 216.030711 230.517257 224.646981 230.195371 
L 221.4 143.28 
L 308.376 143.28 
z
" style="fill:#0173b2;"/>
   </g>
   <g id="patch_3">
    <path d="M 224.646981 230.195371 
C 247.128752 229.355498 268.430444 219.82474 284.038782 203.622419 
C 299.647119 187.420098 308.376 165.777453 308.376 143.28 
L 221.4 143.28 
L 224.646981 230.195371 
z
" style="fill:#de8f05;"/>
   </g>
   <g id="matplotlib.axis_1"/>
   <g id="matplotlib.axis_2"/>
   <g id="text_1">
    <text style="font-family:DejaVu Sans;font-size:6px;font-stretch:normal;font-style:normal;font-weight:normal;text-anchor:middle;" transform="rotate(-0, 183.816731, 108.730173)" x="183.816731" y="108.730173">75.6%</text>
   </g>
   <g id="text_2">
    <text style="font-family:DejaVu Sans;font-size:6px;font-stretch:normal;font-style:normal;font-weight:normal;text-anchor:middle;" transform="rotate(-0, 258.983269, 181.141077)" x="258.983269" y="181.141077">24.4%</text>
   </g>
  </g>
 </g>
</svg>
