<?xml version="1.0" encoding="utf-8" standalone="no"?>
<!DOCTYPE svg PUBLIC "-//W3C//DTD SVG 1.1//EN"
  "http://www.w3.org/Graphics/SVG/1.1/DTD/svg11.dtd">
<svg height="288pt" version="1.1" viewBox="0 0 432 288" width="432pt" xmlns="http://www.w3.org/2000/svg" xmlns:xlink="http://www.w3.org/1999/xlink">
 <metadata>
  <rdf:RDF xmlns:cc="http://creativecommons.org/ns#" xmlns:dc="http://purl.org/dc/elements/1.1/" xmlns:rdf="http://www.w3.org/1999/02/22-rdf-syntax-ns#">
   <cc:Work>
    <dc:type rdf:resource="http://purl.org/dc/dcmitype/StillImage"/>
    <dc:date>2022-01-28T16:53:17.036835</dc:date>
    <dc:format>image/svg+xml</dc:format>
    <dc:creator>
     <cc:Agent>
      <dc:title>Matplotlib v3.4.1, https://matplotlib.org/</dc:title>
     </cc:Agent>
    </dc:creator>
   </cc:Work>
  </rdf:RDF>
 </metadata>
 <defs>
  <style type="text/css">*{stroke-linecap:butt;stroke-linejoin:round;}</style>
 </defs>
 <g id="figure_1">
  <g id="patch_1">
   <path d="M 0 288 
L 432 288 
L 432 0 
L 0 0 
z
" style="fill:none;"/>
  </g>
  <g id="axes_1">
   <g id="patch_2">
    <path d="M 54 252 
L 388.8 252 
L 388.8 34.56 
L 54 34.56 
z
" style="fill:#ffffff;"/>
   </g>
   <g id="patch_3">
    <path clip-path="url(#p89e5050296)" d="M 69.218182 252 
L 79.036364 252 
L 79.036364 252 
L 69.218182 252 
z
" style="fill:#de8f05;fill-opacity:0.75;stroke:#000000;stroke-linejoin:miter;stroke-width:0.981818;"/>
   </g>
   <g id="patch_4">
    <path clip-path="url(#p89e5050296)" d="M 79.036364 252 
L 88.854545 252 
L 88.854545 252 
L 79.036364 252 
z
" style="fill:#de8f05;fill-opacity:0.75;stroke:#000000;stroke-linejoin:miter;stroke-width:0.981818;"/>
   </g>
   <g id="patch_5">
    <path clip-path="url(#p89e5050296)" d="M 88.854545 252 
L 98.672727 252 
L 98.672727 252 
L 88.854545 252 
z
" style="fill:#de8f05;fill-opacity:0.75;stroke:#000000;stroke-linejoin:miter;stroke-width:0.981818;"/>
   </g>
   <g id="patch_6">
    <path clip-path="url(#p89e5050296)" d="M 98.672727 252 
L 108.490909 252 
L 108.490909 252 
L 98.672727 252 
z
" style="fill:#de8f05;fill-opacity:0.75;stroke:#000000;stroke-linejoin:miter;stroke-width:0.981818;"/>
   </g>
   <g id="patch_7">
    <path clip-path="url(#p89e5050296)" d="M 108.490909 252 
L 118.309091 252 
L 118.309091 203.840532 
L 108.490909 203.840532 
z
" style="fill:#de8f05;fill-opacity:0.75;stroke:#000000;stroke-linejoin:miter;stroke-width:0.981818;"/>
   </g>
   <g id="patch_8">
    <path clip-path="url(#p89e5050296)" d="M 118.309091 252 
L 128.127273 252 
L 128.127273 252 
L 118.309091 252 
z
" style="fill:#de8f05;fill-opacity:0.75;stroke:#000000;stroke-linejoin:miter;stroke-width:0.981818;"/>
   </g>
   <g id="patch_9">
    <path clip-path="url(#p89e5050296)" d="M 128.127273 252 
L 137.945455 252 
L 137.945455 235.946844 
L 128.127273 235.946844 
z
" style="fill:#de8f05;fill-opacity:0.75;stroke:#000000;stroke-linejoin:miter;stroke-width:0.981818;"/>
   </g>
   <g id="patch_10">
    <path clip-path="url(#p89e5050296)" d="M 137.945455 252 
L 147.763636 252 
L 147.763636 252 
L 137.945455 252 
z
" style="fill:#de8f05;fill-opacity:0.75;stroke:#000000;stroke-linejoin:miter;stroke-width:0.981818;"/>
   </g>
   <g id="patch_11">
    <path clip-path="url(#p89e5050296)" d="M 147.763636 252 
L 157.581818 252 
L 157.581818 252 
L 147.763636 252 
z
" style="fill:#de8f05;fill-opacity:0.75;stroke:#000000;stroke-linejoin:miter;stroke-width:0.981818;"/>
   </g>
   <g id="patch_12">
    <path clip-path="url(#p89e5050296)" d="M 157.581818 252 
L 167.4 252 
L 167.4 252 
L 157.581818 252 
z
" style="fill:#de8f05;fill-opacity:0.75;stroke:#000000;stroke-linejoin:miter;stroke-width:0.981818;"/>
   </g>
   <g id="patch_13">
    <path clip-path="url(#p89e5050296)" d="M 167.4 252 
L 177.218182 252 
L 177.218182 252 
L 167.4 252 
z
" style="fill:#de8f05;fill-opacity:0.75;stroke:#000000;stroke-linejoin:miter;stroke-width:0.981818;"/>
   </g>
   <g id="patch_14">
    <path clip-path="url(#p89e5050296)" d="M 177.218182 252 
L 187.036364 252 
L 187.036364 252 
L 177.218182 252 
z
" style="fill:#de8f05;fill-opacity:0.75;stroke:#000000;stroke-linejoin:miter;stroke-width:0.981818;"/>
   </g>
   <g id="patch_15">
    <path clip-path="url(#p89e5050296)" d="M 187.036364 252 
L 196.854545 252 
L 196.854545 252 
L 187.036364 252 
z
" style="fill:#de8f05;fill-opacity:0.75;stroke:#000000;stroke-linejoin:miter;stroke-width:0.981818;"/>
   </g>
   <g id="patch_16">
    <path clip-path="url(#p89e5050296)" d="M 196.854545 252 
L 206.672727 252 
L 206.672727 252 
L 196.854545 252 
z
" style="fill:#de8f05;fill-opacity:0.75;stroke:#000000;stroke-linejoin:miter;stroke-width:0.981818;"/>
   </g>
   <g id="patch_17">
    <path clip-path="url(#p89e5050296)" d="M 206.672727 252 
L 216.490909 252 
L 216.490909 252 
L 206.672727 252 
z
" style="fill:#de8f05;fill-opacity:0.75;stroke:#000000;stroke-linejoin:miter;stroke-width:0.981818;"/>
   </g>
   <g id="patch_18">
    <path clip-path="url(#p89e5050296)" d="M 216.490909 252 
L 226.309091 252 
L 226.309091 252 
L 216.490909 252 
z
" style="fill:#de8f05;fill-opacity:0.75;stroke:#000000;stroke-linejoin:miter;stroke-width:0.981818;"/>
   </g>
   <g id="patch_19">
    <path clip-path="url(#p89e5050296)" d="M 226.309091 252 
L 236.127273 252 
L 236.127273 252 
L 226.309091 252 
z
" style="fill:#de8f05;fill-opacity:0.75;stroke:#000000;stroke-linejoin:miter;stroke-width:0.981818;"/>
   </g>
   <g id="patch_20">
    <path clip-path="url(#p89e5050296)" d="M 236.127273 252 
L 245.945455 252 
L 245.945455 252 
L 236.127273 252 
z
" style="fill:#de8f05;fill-opacity:0.75;stroke:#000000;stroke-linejoin:miter;stroke-width:0.981818;"/>
   </g>
   <g id="patch_21">
    <path clip-path="url(#p89e5050296)" d="M 245.945455 252 
L 255.763636 252 
L 255.763636 252 
L 245.945455 252 
z
" style="fill:#de8f05;fill-opacity:0.75;stroke:#000000;stroke-linejoin:miter;stroke-width:0.981818;"/>
   </g>
   <g id="patch_22">
    <path clip-path="url(#p89e5050296)" d="M 255.763636 252 
L 265.581818 252 
L 265.581818 252 
L 255.763636 252 
z
" style="fill:#de8f05;fill-opacity:0.75;stroke:#000000;stroke-linejoin:miter;stroke-width:0.981818;"/>
   </g>
   <g id="patch_23">
    <path clip-path="url(#p89e5050296)" d="M 265.581818 252 
L 275.4 252 
L 275.4 252 
L 265.581818 252 
z
" style="fill:#de8f05;fill-opacity:0.75;stroke:#000000;stroke-linejoin:miter;stroke-width:0.981818;"/>
   </g>
   <g id="patch_24">
    <path clip-path="url(#p89e5050296)" d="M 275.4 252 
L 285.218182 252 
L 285.218182 252 
L 275.4 252 
z
" style="fill:#de8f05;fill-opacity:0.75;stroke:#000000;stroke-linejoin:miter;stroke-width:0.981818;"/>
   </g>
   <g id="patch_25">
    <path clip-path="url(#p89e5050296)" d="M 285.218182 252 
L 295.036364 252 
L 295.036364 252 
L 285.218182 252 
z
" style="fill:#de8f05;fill-opacity:0.75;stroke:#000000;stroke-linejoin:miter;stroke-width:0.981818;"/>
   </g>
   <g id="patch_26">
    <path clip-path="url(#p89e5050296)" d="M 295.036364 252 
L 304.854545 252 
L 304.854545 252 
L 295.036364 252 
z
" style="fill:#de8f05;fill-opacity:0.75;stroke:#000000;stroke-linejoin:miter;stroke-width:0.981818;"/>
   </g>
   <g id="patch_27">
    <path clip-path="url(#p89e5050296)" d="M 304.854545 252 
L 314.672727 252 
L 314.672727 252 
L 304.854545 252 
z
" style="fill:#de8f05;fill-opacity:0.75;stroke:#000000;stroke-linejoin:miter;stroke-width:0.981818;"/>
   </g>
   <g id="patch_28">
    <path clip-path="url(#p89e5050296)" d="M 314.672727 252 
L 324.490909 252 
L 324.490909 252 
L 314.672727 252 
z
" style="fill:#de8f05;fill-opacity:0.75;stroke:#000000;stroke-linejoin:miter;stroke-width:0.981818;"/>
   </g>
   <g id="patch_29">
    <path clip-path="url(#p89e5050296)" d="M 324.490909 252 
L 334.309091 252 
L 334.309091 252 
L 324.490909 252 
z
" style="fill:#de8f05;fill-opacity:0.75;stroke:#000000;stroke-linejoin:miter;stroke-width:0.981818;"/>
   </g>
   <g id="patch_30">
    <path clip-path="url(#p89e5050296)" d="M 334.309091 252 
L 344.127273 252 
L 344.127273 252 
L 334.309091 252 
z
" style="fill:#de8f05;fill-opacity:0.75;stroke:#000000;stroke-linejoin:miter;stroke-width:0.981818;"/>
   </g>
   <g id="patch_31">
    <path clip-path="url(#p89e5050296)" d="M 344.127273 252 
L 353.945455 252 
L 353.945455 252 
L 344.127273 252 
z
" style="fill:#de8f05;fill-opacity:0.75;stroke:#000000;stroke-linejoin:miter;stroke-width:0.981818;"/>
   </g>
   <g id="patch_32">
    <path clip-path="url(#p89e5050296)" d="M 353.945455 252 
L 363.763636 252 
L 363.763636 252 
L 353.945455 252 
z
" style="fill:#de8f05;fill-opacity:0.75;stroke:#000000;stroke-linejoin:miter;stroke-width:0.981818;"/>
   </g>
   <g id="patch_33">
    <path clip-path="url(#p89e5050296)" d="M 363.763636 252 
L 373.581818 252 
L 373.581818 203.840532 
L 363.763636 203.840532 
z
" style="fill:#de8f05;fill-opacity:0.75;stroke:#000000;stroke-linejoin:miter;stroke-width:0.981818;"/>
   </g>
   <g id="patch_34">
    <path clip-path="url(#p89e5050296)" d="M 69.218182 252 
L 79.036364 252 
L 79.036364 165.312957 
L 69.218182 165.312957 
z
" style="fill:#0173b2;fill-opacity:0.75;stroke:#000000;stroke-linejoin:miter;stroke-width:0.981818;"/>
   </g>
   <g id="patch_35">
    <path clip-path="url(#p89e5050296)" d="M 79.036364 252 
L 88.854545 252 
L 88.854545 171.734219 
L 79.036364 171.734219 
z
" style="fill:#0173b2;fill-opacity:0.75;stroke:#000000;stroke-linejoin:miter;stroke-width:0.981818;"/>
   </g>
   <g id="patch_36">
    <path clip-path="url(#p89e5050296)" d="M 88.854545 252 
L 98.672727 252 
L 98.672727 235.946844 
L 88.854545 235.946844 
z
" style="fill:#0173b2;fill-opacity:0.75;stroke:#000000;stroke-linejoin:miter;stroke-width:0.981818;"/>
   </g>
   <g id="patch_37">
    <path clip-path="url(#p89e5050296)" d="M 98.672727 252 
L 108.490909 252 
L 108.490909 252 
L 98.672727 252 
z
" style="fill:#0173b2;fill-opacity:0.75;stroke:#000000;stroke-linejoin:miter;stroke-width:0.981818;"/>
   </g>
   <g id="patch_38">
    <path clip-path="url(#p89e5050296)" d="M 108.490909 203.840532 
L 118.309091 203.840532 
L 118.309091 44.914286 
L 108.490909 44.914286 
z
" style="fill:#0173b2;fill-opacity:0.75;stroke:#000000;stroke-linejoin:miter;stroke-width:0.981818;"/>
   </g>
   <g id="patch_39">
    <path clip-path="url(#p89e5050296)" d="M 118.309091 252 
L 128.127273 252 
L 128.127273 235.946844 
L 118.309091 235.946844 
z
" style="fill:#0173b2;fill-opacity:0.75;stroke:#000000;stroke-linejoin:miter;stroke-width:0.981818;"/>
   </g>
   <g id="patch_40">
    <path clip-path="url(#p89e5050296)" d="M 128.127273 235.946844 
L 137.945455 235.946844 
L 137.945455 174.94485 
L 128.127273 174.94485 
z
" style="fill:#0173b2;fill-opacity:0.75;stroke:#000000;stroke-linejoin:miter;stroke-width:0.981818;"/>
   </g>
   <g id="patch_41">
    <path clip-path="url(#p89e5050296)" d="M 137.945455 252 
L 147.763636 252 
L 147.763636 107.521595 
L 137.945455 107.521595 
z
" style="fill:#0173b2;fill-opacity:0.75;stroke:#000000;stroke-linejoin:miter;stroke-width:0.981818;"/>
   </g>
   <g id="patch_42">
    <path clip-path="url(#p89e5050296)" d="M 147.763636 252 
L 157.581818 252 
L 157.581818 107.521595 
L 147.763636 107.521595 
z
" style="fill:#0173b2;fill-opacity:0.75;stroke:#000000;stroke-linejoin:miter;stroke-width:0.981818;"/>
   </g>
   <g id="patch_43">
    <path clip-path="url(#p89e5050296)" d="M 157.581818 252 
L 167.4 252 
L 167.4 187.787375 
L 157.581818 187.787375 
z
" style="fill:#0173b2;fill-opacity:0.75;stroke:#000000;stroke-linejoin:miter;stroke-width:0.981818;"/>
   </g>
   <g id="patch_44">
    <path clip-path="url(#p89e5050296)" d="M 167.4 252 
L 177.218182 252 
L 177.218182 252 
L 167.4 252 
z
" style="fill:#0173b2;fill-opacity:0.75;stroke:#000000;stroke-linejoin:miter;stroke-width:0.981818;"/>
   </g>
   <g id="patch_45">
    <path clip-path="url(#p89e5050296)" d="M 177.218182 252 
L 187.036364 252 
L 187.036364 235.946844 
L 177.218182 235.946844 
z
" style="fill:#0173b2;fill-opacity:0.75;stroke:#000000;stroke-linejoin:miter;stroke-width:0.981818;"/>
   </g>
   <g id="patch_46">
    <path clip-path="url(#p89e5050296)" d="M 187.036364 252 
L 196.854545 252 
L 196.854545 252 
L 187.036364 252 
z
" style="fill:#0173b2;fill-opacity:0.75;stroke:#000000;stroke-linejoin:miter;stroke-width:0.981818;"/>
   </g>
   <g id="patch_47">
    <path clip-path="url(#p89e5050296)" d="M 196.854545 252 
L 206.672727 252 
L 206.672727 219.893688 
L 196.854545 219.893688 
z
" style="fill:#0173b2;fill-opacity:0.75;stroke:#000000;stroke-linejoin:miter;stroke-width:0.981818;"/>
   </g>
   <g id="patch_48">
    <path clip-path="url(#p89e5050296)" d="M 206.672727 252 
L 216.490909 252 
L 216.490909 252 
L 206.672727 252 
z
" style="fill:#0173b2;fill-opacity:0.75;stroke:#000000;stroke-linejoin:miter;stroke-width:0.981818;"/>
   </g>
   <g id="patch_49">
    <path clip-path="url(#p89e5050296)" d="M 216.490909 252 
L 226.309091 252 
L 226.309091 219.893688 
L 216.490909 219.893688 
z
" style="fill:#0173b2;fill-opacity:0.75;stroke:#000000;stroke-linejoin:miter;stroke-width:0.981818;"/>
   </g>
   <g id="patch_50">
    <path clip-path="url(#p89e5050296)" d="M 226.309091 252 
L 236.127273 252 
L 236.127273 203.840532 
L 226.309091 203.840532 
z
" style="fill:#0173b2;fill-opacity:0.75;stroke:#000000;stroke-linejoin:miter;stroke-width:0.981818;"/>
   </g>
   <g id="patch_51">
    <path clip-path="url(#p89e5050296)" d="M 236.127273 252 
L 245.945455 252 
L 245.945455 252 
L 236.127273 252 
z
" style="fill:#0173b2;fill-opacity:0.75;stroke:#000000;stroke-linejoin:miter;stroke-width:0.981818;"/>
   </g>
   <g id="patch_52">
    <path clip-path="url(#p89e5050296)" d="M 245.945455 252 
L 255.763636 252 
L 255.763636 252 
L 245.945455 252 
z
" style="fill:#0173b2;fill-opacity:0.75;stroke:#000000;stroke-linejoin:miter;stroke-width:0.981818;"/>
   </g>
   <g id="patch_53">
    <path clip-path="url(#p89e5050296)" d="M 255.763636 252 
L 265.581818 252 
L 265.581818 252 
L 255.763636 252 
z
" style="fill:#0173b2;fill-opacity:0.75;stroke:#000000;stroke-linejoin:miter;stroke-width:0.981818;"/>
   </g>
   <g id="patch_54">
    <path clip-path="url(#p89e5050296)" d="M 265.581818 252 
L 275.4 252 
L 275.4 252 
L 265.581818 252 
z
" style="fill:#0173b2;fill-opacity:0.75;stroke:#000000;stroke-linejoin:miter;stroke-width:0.981818;"/>
   </g>
   <g id="patch_55">
    <path clip-path="url(#p89e5050296)" d="M 275.4 252 
L 285.218182 252 
L 285.218182 252 
L 275.4 252 
z
" style="fill:#0173b2;fill-opacity:0.75;stroke:#000000;stroke-linejoin:miter;stroke-width:0.981818;"/>
   </g>
   <g id="patch_56">
    <path clip-path="url(#p89e5050296)" d="M 285.218182 252 
L 295.036364 252 
L 295.036364 252 
L 285.218182 252 
z
" style="fill:#0173b2;fill-opacity:0.75;stroke:#000000;stroke-linejoin:miter;stroke-width:0.981818;"/>
   </g>
   <g id="patch_57">
    <path clip-path="url(#p89e5050296)" d="M 295.036364 252 
L 304.854545 252 
L 304.854545 252 
L 295.036364 252 
z
" style="fill:#0173b2;fill-opacity:0.75;stroke:#000000;stroke-linejoin:miter;stroke-width:0.981818;"/>
   </g>
   <g id="patch_58">
    <path clip-path="url(#p89e5050296)" d="M 304.854545 252 
L 314.672727 252 
L 314.672727 252 
L 304.854545 252 
z
" style="fill:#0173b2;fill-opacity:0.75;stroke:#000000;stroke-linejoin:miter;stroke-width:0.981818;"/>
   </g>
   <g id="patch_59">
    <path clip-path="url(#p89e5050296)" d="M 314.672727 252 
L 324.490909 252 
L 324.490909 252 
L 314.672727 252 
z
" style="fill:#0173b2;fill-opacity:0.75;stroke:#000000;stroke-linejoin:miter;stroke-width:0.981818;"/>
   </g>
   <g id="patch_60">
    <path clip-path="url(#p89e5050296)" d="M 324.490909 252 
L 334.309091 252 
L 334.309091 252 
L 324.490909 252 
z
" style="fill:#0173b2;fill-opacity:0.75;stroke:#000000;stroke-linejoin:miter;stroke-width:0.981818;"/>
   </g>
   <g id="patch_61">
    <path clip-path="url(#p89e5050296)" d="M 334.309091 252 
L 344.127273 252 
L 344.127273 252 
L 334.309091 252 
z
" style="fill:#0173b2;fill-opacity:0.75;stroke:#000000;stroke-linejoin:miter;stroke-width:0.981818;"/>
   </g>
   <g id="patch_62">
    <path clip-path="url(#p89e5050296)" d="M 344.127273 252 
L 353.945455 252 
L 353.945455 252 
L 344.127273 252 
z
" style="fill:#0173b2;fill-opacity:0.75;stroke:#000000;stroke-linejoin:miter;stroke-width:0.981818;"/>
   </g>
   <g id="patch_63">
    <path clip-path="url(#p89e5050296)" d="M 353.945455 252 
L 363.763636 252 
L 363.763636 252 
L 353.945455 252 
z
" style="fill:#0173b2;fill-opacity:0.75;stroke:#000000;stroke-linejoin:miter;stroke-width:0.981818;"/>
   </g>
   <g id="patch_64">
    <path clip-path="url(#p89e5050296)" d="M 363.763636 203.840532 
L 373.581818 203.840532 
L 373.581818 203.840532 
L 363.763636 203.840532 
z
" style="fill:#0173b2;fill-opacity:0.75;stroke:#000000;stroke-linejoin:miter;stroke-width:0.981818;"/>
   </g>
   <g id="matplotlib.axis_1">
    <g id="xtick_1">
     <g id="line2d_1">
      <defs>
       <path d="M 0 0 
L 0 3.5 
" id="mbcfa49bfbd" style="stroke:#000000;stroke-width:0.8;"/>
      </defs>
      <g>
       <use style="stroke:#000000;stroke-width:0.8;" x="69.218182" xlink:href="#mbcfa49bfbd" y="252"/>
      </g>
     </g>
     <g id="text_1">
      <text style="font-family:DejaVu Sans;font-size:6px;font-stretch:normal;font-style:normal;font-weight:normal;text-anchor:middle;" transform="rotate(-0, 69.218182, 263.559062)" x="69.218182" y="263.559062">0.010</text>
     </g>
    </g>
    <g id="xtick_2">
     <g id="line2d_2">
      <g>
       <use style="stroke:#000000;stroke-width:0.8;" x="112.698701" xlink:href="#mbcfa49bfbd" y="252"/>
      </g>
     </g>
     <g id="text_2">
      <text style="font-family:DejaVu Sans;font-size:6px;font-stretch:normal;font-style:normal;font-weight:normal;text-anchor:middle;" transform="rotate(-0, 112.698701, 263.559062)" x="112.698701" y="263.559062">0.015</text>
     </g>
    </g>
    <g id="xtick_3">
     <g id="line2d_3">
      <g>
       <use style="stroke:#000000;stroke-width:0.8;" x="156.179221" xlink:href="#mbcfa49bfbd" y="252"/>
      </g>
     </g>
     <g id="text_3">
      <text style="font-family:DejaVu Sans;font-size:6px;font-stretch:normal;font-style:normal;font-weight:normal;text-anchor:middle;" transform="rotate(-0, 156.179221, 263.559062)" x="156.179221" y="263.559062">0.020</text>
     </g>
    </g>
    <g id="xtick_4">
     <g id="line2d_4">
      <g>
       <use style="stroke:#000000;stroke-width:0.8;" x="199.65974" xlink:href="#mbcfa49bfbd" y="252"/>
      </g>
     </g>
     <g id="text_4">
      <text style="font-family:DejaVu Sans;font-size:6px;font-stretch:normal;font-style:normal;font-weight:normal;text-anchor:middle;" transform="rotate(-0, 199.65974, 263.559062)" x="199.65974" y="263.559062">0.025</text>
     </g>
    </g>
    <g id="xtick_5">
     <g id="line2d_5">
      <g>
       <use style="stroke:#000000;stroke-width:0.8;" x="243.14026" xlink:href="#mbcfa49bfbd" y="252"/>
      </g>
     </g>
     <g id="text_5">
      <text style="font-family:DejaVu Sans;font-size:6px;font-stretch:normal;font-style:normal;font-weight:normal;text-anchor:middle;" transform="rotate(-0, 243.14026, 263.559062)" x="243.14026" y="263.559062">0.030</text>
     </g>
    </g>
    <g id="xtick_6">
     <g id="line2d_6">
      <g>
       <use style="stroke:#000000;stroke-width:0.8;" x="286.620779" xlink:href="#mbcfa49bfbd" y="252"/>
      </g>
     </g>
     <g id="text_6">
      <text style="font-family:DejaVu Sans;font-size:6px;font-stretch:normal;font-style:normal;font-weight:normal;text-anchor:middle;" transform="rotate(-0, 286.620779, 263.559062)" x="286.620779" y="263.559062">0.035</text>
     </g>
    </g>
    <g id="xtick_7">
     <g id="line2d_7">
      <g>
       <use style="stroke:#000000;stroke-width:0.8;" x="330.101299" xlink:href="#mbcfa49bfbd" y="252"/>
      </g>
     </g>
     <g id="text_7">
      <text style="font-family:DejaVu Sans;font-size:6px;font-stretch:normal;font-style:normal;font-weight:normal;text-anchor:middle;" transform="rotate(-0, 330.101299, 263.559062)" x="330.101299" y="263.559062">0.040</text>
     </g>
    </g>
    <g id="xtick_8">
     <g id="line2d_8">
      <g>
       <use style="stroke:#000000;stroke-width:0.8;" x="373.581818" xlink:href="#mbcfa49bfbd" y="252"/>
      </g>
     </g>
     <g id="text_8">
      <text style="font-family:DejaVu Sans;font-size:6px;font-stretch:normal;font-style:normal;font-weight:normal;text-anchor:middle;" transform="rotate(-0, 373.581818, 263.559062)" x="373.581818" y="263.559062">0.045</text>
     </g>
    </g>
    <g id="text_9">
     <text style="font-family:DejaVu Sans;font-size:6px;font-stretch:normal;font-style:normal;font-weight:normal;text-anchor:middle;" transform="rotate(-0, 221.4, 273.365937)" x="221.4" y="273.365937">Echo time [s]</text>
    </g>
   </g>
   <g id="matplotlib.axis_2">
    <g id="ytick_1">
     <g id="line2d_9">
      <defs>
       <path d="M 0 0 
L -3.5 0 
" id="me434dc71bb" style="stroke:#000000;stroke-width:0.8;"/>
      </defs>
      <g>
       <use style="stroke:#000000;stroke-width:0.8;" x="54" xlink:href="#me434dc71bb" y="252"/>
      </g>
     </g>
     <g id="text_10">
      <text style="font-family:DejaVu Sans;font-size:6px;font-stretch:normal;font-style:normal;font-weight:normal;text-anchor:end;" transform="rotate(-0, 47, 254.279531)" x="47" y="254.279531">0</text>
     </g>
    </g>
    <g id="ytick_2">
     <g id="line2d_10">
      <g>
       <use style="stroke:#000000;stroke-width:0.8;" x="54" xlink:href="#me434dc71bb" y="219.893688"/>
      </g>
     </g>
     <g id="text_11">
      <text style="font-family:DejaVu Sans;font-size:6px;font-stretch:normal;font-style:normal;font-weight:normal;text-anchor:end;" transform="rotate(-0, 47, 222.173219)" x="47" y="222.173219">20</text>
     </g>
    </g>
    <g id="ytick_3">
     <g id="line2d_11">
      <g>
       <use style="stroke:#000000;stroke-width:0.8;" x="54" xlink:href="#me434dc71bb" y="187.787375"/>
      </g>
     </g>
     <g id="text_12">
      <text style="font-family:DejaVu Sans;font-size:6px;font-stretch:normal;font-style:normal;font-weight:normal;text-anchor:end;" transform="rotate(-0, 47, 190.066907)" x="47" y="190.066907">40</text>
     </g>
    </g>
    <g id="ytick_4">
     <g id="line2d_12">
      <g>
       <use style="stroke:#000000;stroke-width:0.8;" x="54" xlink:href="#me434dc71bb" y="155.681063"/>
      </g>
     </g>
     <g id="text_13">
      <text style="font-family:DejaVu Sans;font-size:6px;font-stretch:normal;font-style:normal;font-weight:normal;text-anchor:end;" transform="rotate(-0, 47, 157.960594)" x="47" y="157.960594">60</text>
     </g>
    </g>
    <g id="ytick_5">
     <g id="line2d_13">
      <g>
       <use style="stroke:#000000;stroke-width:0.8;" x="54" xlink:href="#me434dc71bb" y="123.574751"/>
      </g>
     </g>
     <g id="text_14">
      <text style="font-family:DejaVu Sans;font-size:6px;font-stretch:normal;font-style:normal;font-weight:normal;text-anchor:end;" transform="rotate(-0, 47, 125.854282)" x="47" y="125.854282">80</text>
     </g>
    </g>
    <g id="ytick_6">
     <g id="line2d_14">
      <g>
       <use style="stroke:#000000;stroke-width:0.8;" x="54" xlink:href="#me434dc71bb" y="91.468439"/>
      </g>
     </g>
     <g id="text_15">
      <text style="font-family:DejaVu Sans;font-size:6px;font-stretch:normal;font-style:normal;font-weight:normal;text-anchor:end;" transform="rotate(-0, 47, 93.74797)" x="47" y="93.74797">100</text>
     </g>
    </g>
    <g id="ytick_7">
     <g id="line2d_15">
      <g>
       <use style="stroke:#000000;stroke-width:0.8;" x="54" xlink:href="#me434dc71bb" y="59.362126"/>
      </g>
     </g>
     <g id="text_16">
      <text style="font-family:DejaVu Sans;font-size:6px;font-stretch:normal;font-style:normal;font-weight:normal;text-anchor:end;" transform="rotate(-0, 47, 61.641657)" x="47" y="61.641657">120</text>
     </g>
    </g>
    <g id="text_17">
     <text style="font-family:DejaVu Sans;font-size:6px;font-stretch:normal;font-style:normal;font-weight:normal;text-anchor:middle;" transform="rotate(-90, 30.299687, 143.28)" x="30.299687" y="143.28">Frequency</text>
    </g>
   </g>
   <g id="patch_65">
    <path d="M 54 252 
L 54 34.56 
" style="fill:none;stroke:#000000;stroke-linecap:square;stroke-linejoin:miter;stroke-width:0.8;"/>
   </g>
   <g id="patch_66">
    <path d="M 388.8 252 
L 388.8 34.56 
" style="fill:none;stroke:#000000;stroke-linecap:square;stroke-linejoin:miter;stroke-width:0.8;"/>
   </g>
   <g id="patch_67">
    <path d="M 54 252 
L 388.8 252 
" style="fill:none;stroke:#000000;stroke-linecap:square;stroke-linejoin:miter;stroke-width:0.8;"/>
   </g>
   <g id="patch_68">
    <path d="M 54 34.56 
L 388.8 34.56 
" style="fill:none;stroke:#000000;stroke-linecap:square;stroke-linejoin:miter;stroke-width:0.8;"/>
   </g>
   <g id="legend_1">
    <g id="patch_69">
     <path d="M 345.615938 65.780625 
L 384.6 65.780625 
Q 385.8 65.780625 385.8 64.580625 
L 385.8 38.76 
Q 385.8 37.56 384.6 37.56 
L 345.615938 37.56 
Q 344.415938 37.56 344.415938 38.76 
L 344.415938 64.580625 
Q 344.415938 65.780625 345.615938 65.780625 
z
" style="fill:#ffffff;opacity:0.8;stroke:#cccccc;stroke-linejoin:miter;"/>
    </g>
    <g id="text_18">
     <text style="font-family:DejaVu Sans;font-size:6px;font-stretch:normal;font-style:normal;font-weight:normal;text-anchor:start;" transform="rotate(-0, 350.309063, 44.519063)" x="350.309063" y="44.519063">Sequence</text>
    </g>
    <g id="patch_70">
     <path d="M 346.815938 53.325938 
L 358.815938 53.325938 
L 358.815938 49.125938 
L 346.815938 49.125938 
z
" style="fill:#0173b2;fill-opacity:0.75;stroke:#000000;stroke-linejoin:miter;"/>
    </g>
    <g id="text_19">
     <text style="font-family:DejaVu Sans;font-size:6px;font-stretch:normal;font-style:normal;font-weight:normal;text-anchor:start;" transform="rotate(-0, 363.615938, 53.325938)" x="363.615938" y="53.325938">GE-EPI</text>
    </g>
    <g id="patch_71">
     <path d="M 346.815938 62.132812 
L 358.815938 62.132812 
L 358.815938 57.932812 
L 346.815938 57.932812 
z
" style="fill:#de8f05;fill-opacity:0.75;stroke:#000000;stroke-linejoin:miter;"/>
    </g>
    <g id="text_20">
     <text style="font-family:DejaVu Sans;font-size:6px;font-stretch:normal;font-style:normal;font-weight:normal;text-anchor:start;" transform="rotate(-0, 363.615938, 62.132812)" x="363.615938" y="62.132812">SE-EPI</text>
    </g>
   </g>
  </g>
 </g>
 <defs>
  <clipPath id="p89e5050296">
   <rect height="217.44" width="334.8" x="54" y="34.56"/>
  </clipPath>
 </defs>
</svg>
