<?xml version="1.0" encoding="utf-8" standalone="no"?>
<!DOCTYPE svg PUBLIC "-//W3C//DTD SVG 1.1//EN"
  "http://www.w3.org/Graphics/SVG/1.1/DTD/svg11.dtd">
<svg height="288pt" version="1.1" viewBox="0 0 432 288" width="432pt" xmlns="http://www.w3.org/2000/svg" xmlns:xlink="http://www.w3.org/1999/xlink">
 <metadata>
  <rdf:RDF xmlns:cc="http://creativecommons.org/ns#" xmlns:dc="http://purl.org/dc/elements/1.1/" xmlns:rdf="http://www.w3.org/1999/02/22-rdf-syntax-ns#">
   <cc:Work>
    <dc:type rdf:resource="http://purl.org/dc/dcmitype/StillImage"/>
    <dc:date>2021-12-30T10:52:47.746578</dc:date>
    <dc:format>image/svg+xml</dc:format>
    <dc:creator>
     <cc:Agent>
      <dc:title>Matplotlib v3.4.1, https://matplotlib.org/</dc:title>
     </cc:Agent>
    </dc:creator>
   </cc:Work>
  </rdf:RDF>
 </metadata>
 <defs>
  <style type="text/css">*{stroke-linecap:butt;stroke-linejoin:round;}</style>
 </defs>
 <g id="figure_1">
  <g id="patch_1">
   <path d="M 0 288 
L 432 288 
L 432 0 
L 0 0 
z
" style="fill:none;"/>
  </g>
  <g id="axes_1">
   <g id="patch_2">
    <path d="M 308.376 143.28 
C 308.376 136.43373 307.567649 129.611341 305.967749 122.954635 
C 304.367848 116.297929 301.98756 109.853346 298.876357 103.754835 
L 221.4 143.28 
L 308.376 143.28 
z
" style="fill:#0173b2;"/>
   </g>
   <g id="patch_3">
    <path d="M 298.876357 103.754835 
C 292.364196 90.98984 282.797116 80.029924 271.028826 71.853085 
C 259.260536 63.676246 245.651811 58.533156 231.417011 56.882754 
C 217.182212 55.232353 202.757727 57.125235 189.430711 62.392491 
C 176.103694 67.659747 164.282707 76.139902 155.022582 87.076237 
L 221.4 143.28 
L 298.876357 103.754835 
z
" style="fill:#de8f05;"/>
   </g>
   <g id="patch_4">
    <path d="M 155.022582 87.076237 
C 141.241166 103.352279 133.916291 124.142022 134.45138 145.462215 
C 134.986469 166.782408 143.345017 187.178532 157.925551 202.742753 
C 172.506086 218.306973 192.313885 227.977458 213.553836 229.901373 
C 234.793787 231.825288 256.016844 225.871378 273.156735 213.180393 
L 221.4 143.28 
L 155.022582 87.076237 
z
" style="fill:#029e73;"/>
   </g>
   <g id="patch_5">
    <path d="M 273.156735 213.180393 
C 284.080533 205.092025 292.957711 194.554454 299.073732 182.415865 
C 305.189753 170.277276 308.375997 156.872332 308.376 143.280016 
L 221.4 143.28 
L 273.156735 213.180393 
z
" style="fill:#d55e00;"/>
   </g>
   <g id="matplotlib.axis_1"/>
   <g id="matplotlib.axis_2"/>
   <g id="text_1">
    <text style="font-family:DejaVu Sans;font-size:6px;font-stretch:normal;font-style:normal;font-weight:normal;text-anchor:middle;" transform="rotate(-0, 272.140649, 132.740406)" x="272.140649" y="132.740406">7.5%</text>
   </g>
   <g id="text_2">
    <text style="font-family:DejaVu Sans;font-size:6px;font-stretch:normal;font-style:normal;font-weight:normal;text-anchor:middle;" transform="rotate(-0, 227.410207, 93.097278)" x="227.410207" y="93.097278">31.3%</text>
   </g>
   <g id="text_3">
    <text style="font-family:DejaVu Sans;font-size:6px;font-stretch:normal;font-style:normal;font-weight:normal;text-anchor:middle;" transform="rotate(-0, 183.315331, 180.613277)" x="183.315331" y="180.613277">46.3%</text>
   </g>
   <g id="text_4">
    <text style="font-family:DejaVu Sans;font-size:6px;font-stretch:normal;font-style:normal;font-weight:normal;text-anchor:middle;" transform="rotate(-0, 268.004239, 168.417144)" x="268.004239" y="168.417144">14.9%</text>
   </g>
  </g>
 </g>
</svg>
