<?xml version="1.0" encoding="utf-8" standalone="no"?>
<!DOCTYPE svg PUBLIC "-//W3C//DTD SVG 1.1//EN"
  "http://www.w3.org/Graphics/SVG/1.1/DTD/svg11.dtd">
<svg height="288pt" version="1.1" viewBox="0 0 432 288" width="432pt" xmlns="http://www.w3.org/2000/svg" xmlns:xlink="http://www.w3.org/1999/xlink">
 <metadata>
  <rdf:RDF xmlns:cc="http://creativecommons.org/ns#" xmlns:dc="http://purl.org/dc/elements/1.1/" xmlns:rdf="http://www.w3.org/1999/02/22-rdf-syntax-ns#">
   <cc:Work>
    <dc:type rdf:resource="http://purl.org/dc/dcmitype/StillImage"/>
    <dc:date>2022-08-12T14:33:19.170016</dc:date>
    <dc:format>image/svg+xml</dc:format>
    <dc:creator>
     <cc:Agent>
      <dc:title>Matplotlib v3.4.1, https://matplotlib.org/</dc:title>
     </cc:Agent>
    </dc:creator>
   </cc:Work>
  </rdf:RDF>
 </metadata>
 <defs>
  <style type="text/css">*{stroke-linecap:butt;stroke-linejoin:round;}</style>
 </defs>
 <g id="figure_1">
  <g id="patch_1">
   <path d="M 0 288 
L 432 288 
L 432 0 
L 0 0 
z
" style="fill:none;"/>
  </g>
  <g id="axes_1">
   <g id="patch_2">
    <path d="M 308.376 143.28 
C 308.376 134.362421 307.004532 125.49765 304.309755 116.99698 
C 301.614978 108.496309 297.628809 100.460419 292.491224 93.171493 
C 287.353639 85.882567 281.125487 79.426934 274.025472 74.031287 
C 266.925457 68.635639 259.03767 64.363883 250.639096 61.366022 
C 242.240522 58.368161 233.43063 56.679701 224.518786 56.359935 
C 215.606942 56.040168 206.698694 57.092881 198.106861 59.481108 
C 189.515028 61.869335 181.34137 65.56479 173.872908 70.437704 
C 166.404446 75.310619 159.729635 81.30328 154.082865 88.205251 
C 148.436096 95.107223 143.884246 102.83676 140.587157 111.122436 
C 137.290067 119.408112 135.286789 128.151792 134.647667 137.046439 
C 134.008545 145.941086 134.741149 154.881353 136.819754 163.553298 
C 138.898359 172.225242 142.298346 180.526156 146.900323 188.164548 
C 151.502299 195.80294 157.251761 202.688343 163.946812 208.578972 
C 170.641863 214.469601 178.203209 219.295689 186.365329 222.887766 
C 194.527449 226.479843 203.193673 228.795364 212.059683 229.753019 
C 220.925692 230.710674 229.886479 230.299121 238.627381 228.532812 
L 221.4 143.28 
L 308.376 143.28 
z
" style="fill:#0173b2;"/>
   </g>
   <g id="patch_3">
    <path d="M 238.627381 228.532812 
C 258.302231 224.557035 276.006851 213.89036 288.717135 198.354749 
C 301.427419 182.819137 308.376 163.352532 308.376 143.28 
L 221.4 143.28 
L 238.627381 228.532812 
z
" style="fill:#de8f05;"/>
   </g>
   <g id="matplotlib.axis_1"/>
   <g id="matplotlib.axis_2"/>
   <g id="text_1">
    <text style="font-family:DejaVu Sans;font-size:6px;font-stretch:normal;font-style:normal;font-weight:normal;text-anchor:middle;" transform="rotate(-0, 181.009719, 111.890776)" x="181.009719" y="111.890776">78.2%</text>
   </g>
   <g id="text_2">
    <text style="font-family:DejaVu Sans;font-size:6px;font-stretch:normal;font-style:normal;font-weight:normal;text-anchor:middle;" transform="rotate(-0, 261.790281, 177.980474)" x="261.790281" y="177.980474">21.8%</text>
   </g>
  </g>
 </g>
</svg>
