<?xml version="1.0" encoding="utf-8" standalone="no"?>
<!DOCTYPE svg PUBLIC "-//W3C//DTD SVG 1.1//EN"
  "http://www.w3.org/Graphics/SVG/1.1/DTD/svg11.dtd">
<svg height="288pt" version="1.1" viewBox="0 0 432 288" width="432pt" xmlns="http://www.w3.org/2000/svg" xmlns:xlink="http://www.w3.org/1999/xlink">
 <metadata>
  <rdf:RDF xmlns:cc="http://creativecommons.org/ns#" xmlns:dc="http://purl.org/dc/elements/1.1/" xmlns:rdf="http://www.w3.org/1999/02/22-rdf-syntax-ns#">
   <cc:Work>
    <dc:type rdf:resource="http://purl.org/dc/dcmitype/StillImage"/>
    <dc:date>2021-12-30T10:52:47.946392</dc:date>
    <dc:format>image/svg+xml</dc:format>
    <dc:creator>
     <cc:Agent>
      <dc:title>Matplotlib v3.4.1, https://matplotlib.org/</dc:title>
     </cc:Agent>
    </dc:creator>
   </cc:Work>
  </rdf:RDF>
 </metadata>
 <defs>
  <style type="text/css">*{stroke-linecap:butt;stroke-linejoin:round;}</style>
 </defs>
 <g id="figure_1">
  <g id="patch_1">
   <path d="M 0 288 
L 432 288 
L 432 0 
L 0 0 
z
" style="fill:none;"/>
  </g>
  <g id="axes_1">
   <g id="patch_2">
    <path d="M 308.376 143.28 
C 308.376 134.972565 307.185784 126.707815 304.841673 118.737958 
C 302.497561 110.768101 299.023644 103.175039 294.525931 96.19048 
L 221.4 143.28 
L 308.376 143.28 
z
" style="fill:#0173b2;"/>
   </g>
   <g id="patch_3">
    <path d="M 294.525931 96.19048 
C 285.082836 81.526175 271.443512 70.035987 255.388696 63.220066 
C 239.333881 56.404144 221.594065 54.572611 204.485343 57.964591 
C 187.376621 61.356571 171.677437 69.817729 159.437462 82.243384 
C 147.197487 94.669039 138.973637 110.493826 135.839612 127.651675 
L 221.4 143.28 
L 294.525931 96.19048 
z
" style="fill:#de8f05;"/>
   </g>
   <g id="patch_4">
    <path d="M 135.839612 127.651675 
C 133.529661 140.297963 134.051968 153.300501 137.368835 165.720763 
C 140.685701 178.141024 146.715355 189.67281 155.022574 199.483753 
C 163.329793 209.294696 173.709778 217.142926 185.4133 222.461955 
C 197.116822 227.780984 209.855352 230.439682 222.709419 230.246143 
L 221.4 143.28 
L 135.839612 127.651675 
z
" style="fill:#029e73;"/>
   </g>
   <g id="patch_5">
    <path d="M 222.709419 230.246143 
C 245.539081 229.902405 267.33969 220.58253 283.362538 204.316616 
C 299.385386 188.050702 308.375999 166.112254 308.376 143.280004 
L 221.4 143.28 
L 222.709419 230.246143 
z
" style="fill:#d55e00;"/>
   </g>
   <g id="matplotlib.axis_1"/>
   <g id="matplotlib.axis_2"/>
   <g id="text_1">
    <text style="font-family:DejaVu Sans;font-size:6px;font-stretch:normal;font-style:normal;font-weight:normal;text-anchor:middle;" transform="rotate(-0, 271.465004, 130.2104)" x="271.465004" y="130.2104">9.1%</text>
   </g>
   <g id="text_2">
    <text style="font-family:DejaVu Sans;font-size:6px;font-stretch:normal;font-style:normal;font-weight:normal;text-anchor:middle;" transform="rotate(-0, 211.251206, 93.74638)" x="211.251206" y="93.74638">38.0%</text>
   </g>
   <g id="text_3">
    <text style="font-family:DejaVu Sans;font-size:6px;font-stretch:normal;font-style:normal;font-weight:normal;text-anchor:middle;" transform="rotate(-0, 181.573544, 178.657877)" x="181.573544" y="178.657877">28.1%</text>
   </g>
   <g id="text_4">
    <text style="font-family:DejaVu Sans;font-size:6px;font-stretch:normal;font-style:normal;font-weight:normal;text-anchor:middle;" transform="rotate(-0, 258.577523, 181.557594)" x="258.577523" y="181.557594">24.8%</text>
   </g>
  </g>
 </g>
</svg>
