<?xml version="1.0" encoding="utf-8" standalone="no"?>
<!DOCTYPE svg PUBLIC "-//W3C//DTD SVG 1.1//EN"
  "http://www.w3.org/Graphics/SVG/1.1/DTD/svg11.dtd">
<svg height="288pt" version="1.1" viewBox="0 0 432 288" width="432pt" xmlns="http://www.w3.org/2000/svg" xmlns:xlink="http://www.w3.org/1999/xlink">
 <metadata>
  <rdf:RDF xmlns:cc="http://creativecommons.org/ns#" xmlns:dc="http://purl.org/dc/elements/1.1/" xmlns:rdf="http://www.w3.org/1999/02/22-rdf-syntax-ns#">
   <cc:Work>
    <dc:type rdf:resource="http://purl.org/dc/dcmitype/StillImage"/>
    <dc:date>2021-12-30T10:52:48.045181</dc:date>
    <dc:format>image/svg+xml</dc:format>
    <dc:creator>
     <cc:Agent>
      <dc:title>Matplotlib v3.4.1, https://matplotlib.org/</dc:title>
     </cc:Agent>
    </dc:creator>
   </cc:Work>
  </rdf:RDF>
 </metadata>
 <defs>
  <style type="text/css">*{stroke-linecap:butt;stroke-linejoin:round;}</style>
 </defs>
 <g id="figure_1">
  <g id="patch_1">
   <path d="M 0 288 
L 432 288 
L 432 0 
L 0 0 
z
" style="fill:none;"/>
  </g>
  <g id="axes_1">
   <g id="patch_2">
    <path d="M 308.376 143.28 
C 308.376 133.069104 306.577876 122.937524 303.064152 113.350234 
C 299.550427 103.762944 294.375689 94.868887 287.777423 87.076244 
L 221.4 143.28 
L 308.376 143.28 
z
" style="fill:#0173b2;"/>
   </g>
   <g id="patch_3">
    <path d="M 287.777423 87.076244 
C 275.447522 72.514458 258.661883 62.406959 240.023763 58.321304 
C 221.385644 54.235649 201.911088 56.394564 184.620375 64.463227 
C 167.329662 72.531889 153.165382 86.070441 144.324252 102.979211 
C 135.483121 119.88798 132.447108 139.245197 135.687062 158.048781 
L 221.4 143.28 
L 287.777423 87.076244 
z
" style="fill:#de8f05;"/>
   </g>
   <g id="patch_4">
    <path d="M 135.687062 158.048781 
C 138.296083 173.190644 144.871495 187.374167 154.741358 199.149939 
C 164.611221 210.925711 177.427481 219.878467 191.880447 225.093328 
C 206.333414 230.308188 221.913411 231.601254 237.028325 228.840388 
C 252.14324 226.079522 266.260051 219.362083 277.936168 209.374526 
L 221.4 143.28 
L 135.687062 158.048781 
z
" style="fill:#029e73;"/>
   </g>
   <g id="patch_5">
    <path d="M 277.936168 209.374526 
C 287.48155 201.209563 295.145836 191.072857 300.400363 179.663611 
C 305.654891 168.254365 308.376001 155.84108 308.376 143.279992 
L 221.4 143.28 
L 277.936168 209.374526 
z
" style="fill:#d55e00;"/>
   </g>
   <g id="matplotlib.axis_1"/>
   <g id="matplotlib.axis_2"/>
   <g id="text_1">
    <text style="font-family:DejaVu Sans;font-size:6px;font-stretch:normal;font-style:normal;font-weight:normal;text-anchor:middle;" transform="rotate(-0, 270.398491, 126.977765)" x="270.398491" y="126.977765">11.2%</text>
   </g>
   <g id="text_2">
    <text style="font-family:DejaVu Sans;font-size:6px;font-stretch:normal;font-style:normal;font-weight:normal;text-anchor:middle;" transform="rotate(-0, 199.332225, 97.645561)" x="199.332225" y="97.645561">41.5%</text>
   </g>
   <g id="text_3">
    <text style="font-family:DejaVu Sans;font-size:6px;font-stretch:normal;font-style:normal;font-weight:normal;text-anchor:middle;" transform="rotate(-0, 203.688268, 194.023622)" x="203.688268" y="194.023622">33.5%</text>
   </g>
   <g id="text_4">
    <text style="font-family:DejaVu Sans;font-size:6px;font-stretch:normal;font-style:normal;font-weight:normal;text-anchor:middle;" transform="rotate(-0, 268.800218, 166.765792)" x="268.800218" y="166.765792">13.7%</text>
   </g>
  </g>
 </g>
</svg>
