<?xml version="1.0" encoding="utf-8" standalone="no"?>
<!DOCTYPE svg PUBLIC "-//W3C//DTD SVG 1.1//EN"
  "http://www.w3.org/Graphics/SVG/1.1/DTD/svg11.dtd">
<svg height="288pt" version="1.1" viewBox="0 0 432 288" width="432pt" xmlns="http://www.w3.org/2000/svg" xmlns:xlink="http://www.w3.org/1999/xlink">
 <metadata>
  <rdf:RDF xmlns:cc="http://creativecommons.org/ns#" xmlns:dc="http://purl.org/dc/elements/1.1/" xmlns:rdf="http://www.w3.org/1999/02/22-rdf-syntax-ns#">
   <cc:Work>
    <dc:type rdf:resource="http://purl.org/dc/dcmitype/StillImage"/>
    <dc:date>2022-08-12T14:33:19.551224</dc:date>
    <dc:format>image/svg+xml</dc:format>
    <dc:creator>
     <cc:Agent>
      <dc:title>Matplotlib v3.4.1, https://matplotlib.org/</dc:title>
     </cc:Agent>
    </dc:creator>
   </cc:Work>
  </rdf:RDF>
 </metadata>
 <defs>
  <style type="text/css">*{stroke-linecap:butt;stroke-linejoin:round;}</style>
 </defs>
 <g id="figure_1">
  <g id="patch_1">
   <path d="M 0 288 
L 432 288 
L 432 0 
L 0 0 
z
" style="fill:none;"/>
  </g>
  <g id="axes_1">
   <g id="patch_2">
    <path d="M 308.376 143.28 
C 308.376 121.24388 300.001438 100.010738 284.958913 83.907538 
C 269.916387 67.804339 249.302172 58.004658 227.317106 56.505508 
C 205.33204 55.006358 183.578357 61.916996 166.489101 75.829146 
C 149.399845 89.741296 138.220452 109.641065 135.229099 131.473206 
L 221.4 143.28 
L 308.376 143.28 
z
" style="fill:#0173b2;"/>
   </g>
   <g id="patch_3">
    <path d="M 135.229099 131.473206 
C 133.023583 147.569983 135.371903 163.967231 142.006678 178.797952 
C 148.641453 193.628673 159.300936 206.307782 172.771432 215.391628 
C 186.241928 224.475474 201.992014 229.605693 218.228378 230.198153 
C 234.464742 230.790614 250.546845 226.821945 264.64357 218.744019 
L 221.4 143.28 
L 135.229099 131.473206 
z
" style="fill:#de8f05;"/>
   </g>
   <g id="patch_4">
    <path d="M 264.64357 218.744019 
C 269.540659 215.937813 274.152986 212.661578 278.415269 208.961685 
C 282.677552 205.261791 286.569587 201.155778 290.036287 196.701762 
L 221.4 143.28 
L 264.64357 218.744019 
z
" style="fill:#029e73;"/>
   </g>
   <g id="patch_5">
    <path d="M 290.036287 196.701762 
C 292.635417 193.362399 294.98738 189.837801 297.07343 186.15606 
C 299.15948 182.474319 300.97406 178.645243 302.502706 174.699351 
L 221.4 143.28 
L 290.036287 196.701762 
z
" style="fill:#d55e00;"/>
   </g>
   <g id="patch_6">
    <path d="M 302.502706 174.699351 
C 303.929361 171.01673 305.103537 167.24121 306.017078 163.399011 
C 306.93062 159.556813 307.581409 155.65685 307.964925 151.726206 
L 221.4 143.28 
L 302.502706 174.699351 
z
" style="fill:#cc78bc;"/>
   </g>
   <g id="patch_7">
    <path d="M 307.964925 151.726206 
C 308.101849 150.322877 308.204628 148.916426 308.27317 147.5081 
C 308.341713 146.099774 308.376 144.68999 308.376 143.279997 
L 221.4 143.28 
L 307.964925 151.726206 
z
" style="fill:#ca9161;"/>
   </g>
   <g id="matplotlib.axis_1"/>
   <g id="matplotlib.axis_2"/>
   <g id="text_1">
    <text style="font-family:DejaVu Sans;font-size:6px;font-stretch:normal;font-style:normal;font-weight:normal;text-anchor:middle;" transform="rotate(-0, 224.950264, 92.87093)" x="224.950264" y="92.87093">47.8%</text>
   </g>
   <g id="text_2">
    <text style="font-family:DejaVu Sans;font-size:6px;font-stretch:normal;font-style:normal;font-weight:normal;text-anchor:middle;" transform="rotate(-0, 192.222859, 188.202602)" x="192.222859" y="188.202602">35.4%</text>
   </g>
   <g id="text_3">
    <text style="font-family:DejaVu Sans;font-size:6px;font-stretch:normal;font-style:normal;font-weight:normal;text-anchor:middle;" transform="rotate(-0, 255.609161, 184.344636)" x="255.609161" y="184.344636">6.2%</text>
   </g>
   <g id="text_4">
    <text style="font-family:DejaVu Sans;font-size:6px;font-stretch:normal;font-style:normal;font-weight:normal;text-anchor:middle;" transform="rotate(-0, 266.804058, 170.661261)" x="266.804058" y="170.661261">4.6%</text>
   </g>
   <g id="text_5">
    <text style="font-family:DejaVu Sans;font-size:6px;font-stretch:normal;font-style:normal;font-weight:normal;text-anchor:middle;" transform="rotate(-0, 272.170247, 157.007032)" x="272.170247" y="157.007032">4.3%</text>
   </g>
   <g id="text_6">
    <text style="font-family:DejaVu Sans;font-size:6px;font-stretch:normal;font-style:normal;font-weight:normal;text-anchor:middle;" transform="rotate(-0, 273.523902, 147.472485)" x="273.523902" y="147.472485">1.5%</text>
   </g>
  </g>
 </g>
</svg>
