<?xml version="1.0" encoding="utf-8" standalone="no"?>
<!DOCTYPE svg PUBLIC "-//W3C//DTD SVG 1.1//EN"
  "http://www.w3.org/Graphics/SVG/1.1/DTD/svg11.dtd">
<svg height="288pt" version="1.1" viewBox="0 0 432 288" width="432pt" xmlns="http://www.w3.org/2000/svg" xmlns:xlink="http://www.w3.org/1999/xlink">
 <metadata>
  <rdf:RDF xmlns:cc="http://creativecommons.org/ns#" xmlns:dc="http://purl.org/dc/elements/1.1/" xmlns:rdf="http://www.w3.org/1999/02/22-rdf-syntax-ns#">
   <cc:Work>
    <dc:type rdf:resource="http://purl.org/dc/dcmitype/StillImage"/>
    <dc:date>2021-12-19T10:14:14.603392</dc:date>
    <dc:format>image/svg+xml</dc:format>
    <dc:creator>
     <cc:Agent>
      <dc:title>Matplotlib v3.4.1, https://matplotlib.org/</dc:title>
     </cc:Agent>
    </dc:creator>
   </cc:Work>
  </rdf:RDF>
 </metadata>
 <defs>
  <style type="text/css">*{stroke-linecap:butt;stroke-linejoin:round;}</style>
 </defs>
 <g id="figure_1">
  <g id="patch_1">
   <path d="M 0 288 
L 432 288 
L 432 0 
L 0 0 
z
" style="fill:none;"/>
  </g>
  <g id="axes_1">
   <g id="patch_2">
    <path d="M 54 252 
L 388.8 252 
L 388.8 34.56 
L 54 34.56 
z
" style="fill:#ffffff;"/>
   </g>
   <g id="patch_3">
    <path clip-path="url(#p5ee6984919)" d="M 69.218182 252 
L 79.036364 252 
L 79.036364 252 
L 69.218182 252 
z
" style="fill:#de8f05;fill-opacity:0.75;stroke:#000000;stroke-linejoin:miter;stroke-width:0.981818;"/>
   </g>
   <g id="patch_4">
    <path clip-path="url(#p5ee6984919)" d="M 79.036364 252 
L 88.854545 252 
L 88.854545 252 
L 79.036364 252 
z
" style="fill:#de8f05;fill-opacity:0.75;stroke:#000000;stroke-linejoin:miter;stroke-width:0.981818;"/>
   </g>
   <g id="patch_5">
    <path clip-path="url(#p5ee6984919)" d="M 88.854545 252 
L 98.672727 252 
L 98.672727 252 
L 88.854545 252 
z
" style="fill:#de8f05;fill-opacity:0.75;stroke:#000000;stroke-linejoin:miter;stroke-width:0.981818;"/>
   </g>
   <g id="patch_6">
    <path clip-path="url(#p5ee6984919)" d="M 98.672727 252 
L 108.490909 252 
L 108.490909 252 
L 98.672727 252 
z
" style="fill:#de8f05;fill-opacity:0.75;stroke:#000000;stroke-linejoin:miter;stroke-width:0.981818;"/>
   </g>
   <g id="patch_7">
    <path clip-path="url(#p5ee6984919)" d="M 108.490909 252 
L 118.309091 252 
L 118.309091 203.840532 
L 108.490909 203.840532 
z
" style="fill:#de8f05;fill-opacity:0.75;stroke:#000000;stroke-linejoin:miter;stroke-width:0.981818;"/>
   </g>
   <g id="patch_8">
    <path clip-path="url(#p5ee6984919)" d="M 118.309091 252 
L 128.127273 252 
L 128.127273 252 
L 118.309091 252 
z
" style="fill:#de8f05;fill-opacity:0.75;stroke:#000000;stroke-linejoin:miter;stroke-width:0.981818;"/>
   </g>
   <g id="patch_9">
    <path clip-path="url(#p5ee6984919)" d="M 128.127273 252 
L 137.945455 252 
L 137.945455 235.946844 
L 128.127273 235.946844 
z
" style="fill:#de8f05;fill-opacity:0.75;stroke:#000000;stroke-linejoin:miter;stroke-width:0.981818;"/>
   </g>
   <g id="patch_10">
    <path clip-path="url(#p5ee6984919)" d="M 137.945455 252 
L 147.763636 252 
L 147.763636 252 
L 137.945455 252 
z
" style="fill:#de8f05;fill-opacity:0.75;stroke:#000000;stroke-linejoin:miter;stroke-width:0.981818;"/>
   </g>
   <g id="patch_11">
    <path clip-path="url(#p5ee6984919)" d="M 147.763636 252 
L 157.581818 252 
L 157.581818 252 
L 147.763636 252 
z
" style="fill:#de8f05;fill-opacity:0.75;stroke:#000000;stroke-linejoin:miter;stroke-width:0.981818;"/>
   </g>
   <g id="patch_12">
    <path clip-path="url(#p5ee6984919)" d="M 157.581818 252 
L 167.4 252 
L 167.4 252 
L 157.581818 252 
z
" style="fill:#de8f05;fill-opacity:0.75;stroke:#000000;stroke-linejoin:miter;stroke-width:0.981818;"/>
   </g>
   <g id="patch_13">
    <path clip-path="url(#p5ee6984919)" d="M 167.4 252 
L 177.218182 252 
L 177.218182 252 
L 167.4 252 
z
" style="fill:#de8f05;fill-opacity:0.75;stroke:#000000;stroke-linejoin:miter;stroke-width:0.981818;"/>
   </g>
   <g id="patch_14">
    <path clip-path="url(#p5ee6984919)" d="M 177.218182 252 
L 187.036364 252 
L 187.036364 252 
L 177.218182 252 
z
" style="fill:#de8f05;fill-opacity:0.75;stroke:#000000;stroke-linejoin:miter;stroke-width:0.981818;"/>
   </g>
   <g id="patch_15">
    <path clip-path="url(#p5ee6984919)" d="M 187.036364 252 
L 196.854545 252 
L 196.854545 252 
L 187.036364 252 
z
" style="fill:#de8f05;fill-opacity:0.75;stroke:#000000;stroke-linejoin:miter;stroke-width:0.981818;"/>
   </g>
   <g id="patch_16">
    <path clip-path="url(#p5ee6984919)" d="M 196.854545 252 
L 206.672727 252 
L 206.672727 252 
L 196.854545 252 
z
" style="fill:#de8f05;fill-opacity:0.75;stroke:#000000;stroke-linejoin:miter;stroke-width:0.981818;"/>
   </g>
   <g id="patch_17">
    <path clip-path="url(#p5ee6984919)" d="M 206.672727 252 
L 216.490909 252 
L 216.490909 252 
L 206.672727 252 
z
" style="fill:#de8f05;fill-opacity:0.75;stroke:#000000;stroke-linejoin:miter;stroke-width:0.981818;"/>
   </g>
   <g id="patch_18">
    <path clip-path="url(#p5ee6984919)" d="M 216.490909 252 
L 226.309091 252 
L 226.309091 252 
L 216.490909 252 
z
" style="fill:#de8f05;fill-opacity:0.75;stroke:#000000;stroke-linejoin:miter;stroke-width:0.981818;"/>
   </g>
   <g id="patch_19">
    <path clip-path="url(#p5ee6984919)" d="M 226.309091 252 
L 236.127273 252 
L 236.127273 252 
L 226.309091 252 
z
" style="fill:#de8f05;fill-opacity:0.75;stroke:#000000;stroke-linejoin:miter;stroke-width:0.981818;"/>
   </g>
   <g id="patch_20">
    <path clip-path="url(#p5ee6984919)" d="M 236.127273 252 
L 245.945455 252 
L 245.945455 252 
L 236.127273 252 
z
" style="fill:#de8f05;fill-opacity:0.75;stroke:#000000;stroke-linejoin:miter;stroke-width:0.981818;"/>
   </g>
   <g id="patch_21">
    <path clip-path="url(#p5ee6984919)" d="M 245.945455 252 
L 255.763636 252 
L 255.763636 252 
L 245.945455 252 
z
" style="fill:#de8f05;fill-opacity:0.75;stroke:#000000;stroke-linejoin:miter;stroke-width:0.981818;"/>
   </g>
   <g id="patch_22">
    <path clip-path="url(#p5ee6984919)" d="M 255.763636 252 
L 265.581818 252 
L 265.581818 252 
L 255.763636 252 
z
" style="fill:#de8f05;fill-opacity:0.75;stroke:#000000;stroke-linejoin:miter;stroke-width:0.981818;"/>
   </g>
   <g id="patch_23">
    <path clip-path="url(#p5ee6984919)" d="M 265.581818 252 
L 275.4 252 
L 275.4 252 
L 265.581818 252 
z
" style="fill:#de8f05;fill-opacity:0.75;stroke:#000000;stroke-linejoin:miter;stroke-width:0.981818;"/>
   </g>
   <g id="patch_24">
    <path clip-path="url(#p5ee6984919)" d="M 275.4 252 
L 285.218182 252 
L 285.218182 252 
L 275.4 252 
z
" style="fill:#de8f05;fill-opacity:0.75;stroke:#000000;stroke-linejoin:miter;stroke-width:0.981818;"/>
   </g>
   <g id="patch_25">
    <path clip-path="url(#p5ee6984919)" d="M 285.218182 252 
L 295.036364 252 
L 295.036364 252 
L 285.218182 252 
z
" style="fill:#de8f05;fill-opacity:0.75;stroke:#000000;stroke-linejoin:miter;stroke-width:0.981818;"/>
   </g>
   <g id="patch_26">
    <path clip-path="url(#p5ee6984919)" d="M 295.036364 252 
L 304.854545 252 
L 304.854545 252 
L 295.036364 252 
z
" style="fill:#de8f05;fill-opacity:0.75;stroke:#000000;stroke-linejoin:miter;stroke-width:0.981818;"/>
   </g>
   <g id="patch_27">
    <path clip-path="url(#p5ee6984919)" d="M 304.854545 252 
L 314.672727 252 
L 314.672727 252 
L 304.854545 252 
z
" style="fill:#de8f05;fill-opacity:0.75;stroke:#000000;stroke-linejoin:miter;stroke-width:0.981818;"/>
   </g>
   <g id="patch_28">
    <path clip-path="url(#p5ee6984919)" d="M 314.672727 252 
L 324.490909 252 
L 324.490909 252 
L 314.672727 252 
z
" style="fill:#de8f05;fill-opacity:0.75;stroke:#000000;stroke-linejoin:miter;stroke-width:0.981818;"/>
   </g>
   <g id="patch_29">
    <path clip-path="url(#p5ee6984919)" d="M 324.490909 252 
L 334.309091 252 
L 334.309091 252 
L 324.490909 252 
z
" style="fill:#de8f05;fill-opacity:0.75;stroke:#000000;stroke-linejoin:miter;stroke-width:0.981818;"/>
   </g>
   <g id="patch_30">
    <path clip-path="url(#p5ee6984919)" d="M 334.309091 252 
L 344.127273 252 
L 344.127273 252 
L 334.309091 252 
z
" style="fill:#de8f05;fill-opacity:0.75;stroke:#000000;stroke-linejoin:miter;stroke-width:0.981818;"/>
   </g>
   <g id="patch_31">
    <path clip-path="url(#p5ee6984919)" d="M 344.127273 252 
L 353.945455 252 
L 353.945455 252 
L 344.127273 252 
z
" style="fill:#de8f05;fill-opacity:0.75;stroke:#000000;stroke-linejoin:miter;stroke-width:0.981818;"/>
   </g>
   <g id="patch_32">
    <path clip-path="url(#p5ee6984919)" d="M 353.945455 252 
L 363.763636 252 
L 363.763636 252 
L 353.945455 252 
z
" style="fill:#de8f05;fill-opacity:0.75;stroke:#000000;stroke-linejoin:miter;stroke-width:0.981818;"/>
   </g>
   <g id="patch_33">
    <path clip-path="url(#p5ee6984919)" d="M 363.763636 252 
L 373.581818 252 
L 373.581818 203.840532 
L 363.763636 203.840532 
z
" style="fill:#de8f05;fill-opacity:0.75;stroke:#000000;stroke-linejoin:miter;stroke-width:0.981818;"/>
   </g>
   <g id="patch_34">
    <path clip-path="url(#p5ee6984919)" d="M 69.218182 252 
L 79.036364 252 
L 79.036364 165.312957 
L 69.218182 165.312957 
z
" style="fill:#0173b2;fill-opacity:0.75;stroke:#000000;stroke-linejoin:miter;stroke-width:0.981818;"/>
   </g>
   <g id="patch_35">
    <path clip-path="url(#p5ee6984919)" d="M 79.036364 252 
L 88.854545 252 
L 88.854545 171.734219 
L 79.036364 171.734219 
z
" style="fill:#0173b2;fill-opacity:0.75;stroke:#000000;stroke-linejoin:miter;stroke-width:0.981818;"/>
   </g>
   <g id="patch_36">
    <path clip-path="url(#p5ee6984919)" d="M 88.854545 252 
L 98.672727 252 
L 98.672727 235.946844 
L 88.854545 235.946844 
z
" style="fill:#0173b2;fill-opacity:0.75;stroke:#000000;stroke-linejoin:miter;stroke-width:0.981818;"/>
   </g>
   <g id="patch_37">
    <path clip-path="url(#p5ee6984919)" d="M 98.672727 252 
L 108.490909 252 
L 108.490909 252 
L 98.672727 252 
z
" style="fill:#0173b2;fill-opacity:0.75;stroke:#000000;stroke-linejoin:miter;stroke-width:0.981818;"/>
   </g>
   <g id="patch_38">
    <path clip-path="url(#p5ee6984919)" d="M 108.490909 203.840532 
L 118.309091 203.840532 
L 118.309091 44.914286 
L 108.490909 44.914286 
z
" style="fill:#0173b2;fill-opacity:0.75;stroke:#000000;stroke-linejoin:miter;stroke-width:0.981818;"/>
   </g>
   <g id="patch_39">
    <path clip-path="url(#p5ee6984919)" d="M 118.309091 252 
L 128.127273 252 
L 128.127273 235.946844 
L 118.309091 235.946844 
z
" style="fill:#0173b2;fill-opacity:0.75;stroke:#000000;stroke-linejoin:miter;stroke-width:0.981818;"/>
   </g>
   <g id="patch_40">
    <path clip-path="url(#p5ee6984919)" d="M 128.127273 235.946844 
L 137.945455 235.946844 
L 137.945455 174.94485 
L 128.127273 174.94485 
z
" style="fill:#0173b2;fill-opacity:0.75;stroke:#000000;stroke-linejoin:miter;stroke-width:0.981818;"/>
   </g>
   <g id="patch_41">
    <path clip-path="url(#p5ee6984919)" d="M 137.945455 252 
L 147.763636 252 
L 147.763636 107.521595 
L 137.945455 107.521595 
z
" style="fill:#0173b2;fill-opacity:0.75;stroke:#000000;stroke-linejoin:miter;stroke-width:0.981818;"/>
   </g>
   <g id="patch_42">
    <path clip-path="url(#p5ee6984919)" d="M 147.763636 252 
L 157.581818 252 
L 157.581818 107.521595 
L 147.763636 107.521595 
z
" style="fill:#0173b2;fill-opacity:0.75;stroke:#000000;stroke-linejoin:miter;stroke-width:0.981818;"/>
   </g>
   <g id="patch_43">
    <path clip-path="url(#p5ee6984919)" d="M 157.581818 252 
L 167.4 252 
L 167.4 187.787375 
L 157.581818 187.787375 
z
" style="fill:#0173b2;fill-opacity:0.75;stroke:#000000;stroke-linejoin:miter;stroke-width:0.981818;"/>
   </g>
   <g id="patch_44">
    <path clip-path="url(#p5ee6984919)" d="M 167.4 252 
L 177.218182 252 
L 177.218182 252 
L 167.4 252 
z
" style="fill:#0173b2;fill-opacity:0.75;stroke:#000000;stroke-linejoin:miter;stroke-width:0.981818;"/>
   </g>
   <g id="patch_45">
    <path clip-path="url(#p5ee6984919)" d="M 177.218182 252 
L 187.036364 252 
L 187.036364 235.946844 
L 177.218182 235.946844 
z
" style="fill:#0173b2;fill-opacity:0.75;stroke:#000000;stroke-linejoin:miter;stroke-width:0.981818;"/>
   </g>
   <g id="patch_46">
    <path clip-path="url(#p5ee6984919)" d="M 187.036364 252 
L 196.854545 252 
L 196.854545 252 
L 187.036364 252 
z
" style="fill:#0173b2;fill-opacity:0.75;stroke:#000000;stroke-linejoin:miter;stroke-width:0.981818;"/>
   </g>
   <g id="patch_47">
    <path clip-path="url(#p5ee6984919)" d="M 196.854545 252 
L 206.672727 252 
L 206.672727 219.893688 
L 196.854545 219.893688 
z
" style="fill:#0173b2;fill-opacity:0.75;stroke:#000000;stroke-linejoin:miter;stroke-width:0.981818;"/>
   </g>
   <g id="patch_48">
    <path clip-path="url(#p5ee6984919)" d="M 206.672727 252 
L 216.490909 252 
L 216.490909 252 
L 206.672727 252 
z
" style="fill:#0173b2;fill-opacity:0.75;stroke:#000000;stroke-linejoin:miter;stroke-width:0.981818;"/>
   </g>
   <g id="patch_49">
    <path clip-path="url(#p5ee6984919)" d="M 216.490909 252 
L 226.309091 252 
L 226.309091 219.893688 
L 216.490909 219.893688 
z
" style="fill:#0173b2;fill-opacity:0.75;stroke:#000000;stroke-linejoin:miter;stroke-width:0.981818;"/>
   </g>
   <g id="patch_50">
    <path clip-path="url(#p5ee6984919)" d="M 226.309091 252 
L 236.127273 252 
L 236.127273 203.840532 
L 226.309091 203.840532 
z
" style="fill:#0173b2;fill-opacity:0.75;stroke:#000000;stroke-linejoin:miter;stroke-width:0.981818;"/>
   </g>
   <g id="patch_51">
    <path clip-path="url(#p5ee6984919)" d="M 236.127273 252 
L 245.945455 252 
L 245.945455 252 
L 236.127273 252 
z
" style="fill:#0173b2;fill-opacity:0.75;stroke:#000000;stroke-linejoin:miter;stroke-width:0.981818;"/>
   </g>
   <g id="patch_52">
    <path clip-path="url(#p5ee6984919)" d="M 245.945455 252 
L 255.763636 252 
L 255.763636 252 
L 245.945455 252 
z
" style="fill:#0173b2;fill-opacity:0.75;stroke:#000000;stroke-linejoin:miter;stroke-width:0.981818;"/>
   </g>
   <g id="patch_53">
    <path clip-path="url(#p5ee6984919)" d="M 255.763636 252 
L 265.581818 252 
L 265.581818 252 
L 255.763636 252 
z
" style="fill:#0173b2;fill-opacity:0.75;stroke:#000000;stroke-linejoin:miter;stroke-width:0.981818;"/>
   </g>
   <g id="patch_54">
    <path clip-path="url(#p5ee6984919)" d="M 265.581818 252 
L 275.4 252 
L 275.4 252 
L 265.581818 252 
z
" style="fill:#0173b2;fill-opacity:0.75;stroke:#000000;stroke-linejoin:miter;stroke-width:0.981818;"/>
   </g>
   <g id="patch_55">
    <path clip-path="url(#p5ee6984919)" d="M 275.4 252 
L 285.218182 252 
L 285.218182 252 
L 275.4 252 
z
" style="fill:#0173b2;fill-opacity:0.75;stroke:#000000;stroke-linejoin:miter;stroke-width:0.981818;"/>
   </g>
   <g id="patch_56">
    <path clip-path="url(#p5ee6984919)" d="M 285.218182 252 
L 295.036364 252 
L 295.036364 252 
L 285.218182 252 
z
" style="fill:#0173b2;fill-opacity:0.75;stroke:#000000;stroke-linejoin:miter;stroke-width:0.981818;"/>
   </g>
   <g id="patch_57">
    <path clip-path="url(#p5ee6984919)" d="M 295.036364 252 
L 304.854545 252 
L 304.854545 252 
L 295.036364 252 
z
" style="fill:#0173b2;fill-opacity:0.75;stroke:#000000;stroke-linejoin:miter;stroke-width:0.981818;"/>
   </g>
   <g id="patch_58">
    <path clip-path="url(#p5ee6984919)" d="M 304.854545 252 
L 314.672727 252 
L 314.672727 252 
L 304.854545 252 
z
" style="fill:#0173b2;fill-opacity:0.75;stroke:#000000;stroke-linejoin:miter;stroke-width:0.981818;"/>
   </g>
   <g id="patch_59">
    <path clip-path="url(#p5ee6984919)" d="M 314.672727 252 
L 324.490909 252 
L 324.490909 252 
L 314.672727 252 
z
" style="fill:#0173b2;fill-opacity:0.75;stroke:#000000;stroke-linejoin:miter;stroke-width:0.981818;"/>
   </g>
   <g id="patch_60">
    <path clip-path="url(#p5ee6984919)" d="M 324.490909 252 
L 334.309091 252 
L 334.309091 252 
L 324.490909 252 
z
" style="fill:#0173b2;fill-opacity:0.75;stroke:#000000;stroke-linejoin:miter;stroke-width:0.981818;"/>
   </g>
   <g id="patch_61">
    <path clip-path="url(#p5ee6984919)" d="M 334.309091 252 
L 344.127273 252 
L 344.127273 252 
L 334.309091 252 
z
" style="fill:#0173b2;fill-opacity:0.75;stroke:#000000;stroke-linejoin:miter;stroke-width:0.981818;"/>
   </g>
   <g id="patch_62">
    <path clip-path="url(#p5ee6984919)" d="M 344.127273 252 
L 353.945455 252 
L 353.945455 252 
L 344.127273 252 
z
" style="fill:#0173b2;fill-opacity:0.75;stroke:#000000;stroke-linejoin:miter;stroke-width:0.981818;"/>
   </g>
   <g id="patch_63">
    <path clip-path="url(#p5ee6984919)" d="M 353.945455 252 
L 363.763636 252 
L 363.763636 252 
L 353.945455 252 
z
" style="fill:#0173b2;fill-opacity:0.75;stroke:#000000;stroke-linejoin:miter;stroke-width:0.981818;"/>
   </g>
   <g id="patch_64">
    <path clip-path="url(#p5ee6984919)" d="M 363.763636 203.840532 
L 373.581818 203.840532 
L 373.581818 203.840532 
L 363.763636 203.840532 
z
" style="fill:#0173b2;fill-opacity:0.75;stroke:#000000;stroke-linejoin:miter;stroke-width:0.981818;"/>
   </g>
   <g id="matplotlib.axis_1">
    <g id="xtick_1">
     <g id="line2d_1">
      <defs>
       <path d="M 0 0 
L 0 3.5 
" id="mbd52d0f211" style="stroke:#000000;stroke-width:0.8;"/>
      </defs>
      <g>
       <use style="stroke:#000000;stroke-width:0.8;" x="69.218182" xlink:href="#mbd52d0f211" y="252"/>
      </g>
     </g>
     <g id="text_1">
      <!-- 0.010 -->
      <g transform="translate(60.629744 263.559062)scale(0.06 -0.06)">
       <defs>
        <path d="M 2034 4250 
Q 1547 4250 1301 3770 
Q 1056 3291 1056 2328 
Q 1056 1369 1301 889 
Q 1547 409 2034 409 
Q 2525 409 2770 889 
Q 3016 1369 3016 2328 
Q 3016 3291 2770 3770 
Q 2525 4250 2034 4250 
z
M 2034 4750 
Q 2819 4750 3233 4129 
Q 3647 3509 3647 2328 
Q 3647 1150 3233 529 
Q 2819 -91 2034 -91 
Q 1250 -91 836 529 
Q 422 1150 422 2328 
Q 422 3509 836 4129 
Q 1250 4750 2034 4750 
z
" id="DejaVuSans-30" transform="scale(0.015625)"/>
        <path d="M 684 794 
L 1344 794 
L 1344 0 
L 684 0 
L 684 794 
z
" id="DejaVuSans-2e" transform="scale(0.015625)"/>
        <path d="M 794 531 
L 1825 531 
L 1825 4091 
L 703 3866 
L 703 4441 
L 1819 4666 
L 2450 4666 
L 2450 531 
L 3481 531 
L 3481 0 
L 794 0 
L 794 531 
z
" id="DejaVuSans-31" transform="scale(0.015625)"/>
       </defs>
       <use xlink:href="#DejaVuSans-30"/>
       <use x="63.623047" xlink:href="#DejaVuSans-2e"/>
       <use x="95.410156" xlink:href="#DejaVuSans-30"/>
       <use x="159.033203" xlink:href="#DejaVuSans-31"/>
       <use x="222.65625" xlink:href="#DejaVuSans-30"/>
      </g>
     </g>
    </g>
    <g id="xtick_2">
     <g id="line2d_2">
      <g>
       <use style="stroke:#000000;stroke-width:0.8;" x="112.698701" xlink:href="#mbd52d0f211" y="252"/>
      </g>
     </g>
     <g id="text_2">
      <!-- 0.015 -->
      <g transform="translate(104.110264 263.559062)scale(0.06 -0.06)">
       <defs>
        <path d="M 691 4666 
L 3169 4666 
L 3169 4134 
L 1269 4134 
L 1269 2991 
Q 1406 3038 1543 3061 
Q 1681 3084 1819 3084 
Q 2600 3084 3056 2656 
Q 3513 2228 3513 1497 
Q 3513 744 3044 326 
Q 2575 -91 1722 -91 
Q 1428 -91 1123 -41 
Q 819 9 494 109 
L 494 744 
Q 775 591 1075 516 
Q 1375 441 1709 441 
Q 2250 441 2565 725 
Q 2881 1009 2881 1497 
Q 2881 1984 2565 2268 
Q 2250 2553 1709 2553 
Q 1456 2553 1204 2497 
Q 953 2441 691 2322 
L 691 4666 
z
" id="DejaVuSans-35" transform="scale(0.015625)"/>
       </defs>
       <use xlink:href="#DejaVuSans-30"/>
       <use x="63.623047" xlink:href="#DejaVuSans-2e"/>
       <use x="95.410156" xlink:href="#DejaVuSans-30"/>
       <use x="159.033203" xlink:href="#DejaVuSans-31"/>
       <use x="222.65625" xlink:href="#DejaVuSans-35"/>
      </g>
     </g>
    </g>
    <g id="xtick_3">
     <g id="line2d_3">
      <g>
       <use style="stroke:#000000;stroke-width:0.8;" x="156.179221" xlink:href="#mbd52d0f211" y="252"/>
      </g>
     </g>
     <g id="text_3">
      <!-- 0.020 -->
      <g transform="translate(147.590783 263.559062)scale(0.06 -0.06)">
       <defs>
        <path d="M 1228 531 
L 3431 531 
L 3431 0 
L 469 0 
L 469 531 
Q 828 903 1448 1529 
Q 2069 2156 2228 2338 
Q 2531 2678 2651 2914 
Q 2772 3150 2772 3378 
Q 2772 3750 2511 3984 
Q 2250 4219 1831 4219 
Q 1534 4219 1204 4116 
Q 875 4013 500 3803 
L 500 4441 
Q 881 4594 1212 4672 
Q 1544 4750 1819 4750 
Q 2544 4750 2975 4387 
Q 3406 4025 3406 3419 
Q 3406 3131 3298 2873 
Q 3191 2616 2906 2266 
Q 2828 2175 2409 1742 
Q 1991 1309 1228 531 
z
" id="DejaVuSans-32" transform="scale(0.015625)"/>
       </defs>
       <use xlink:href="#DejaVuSans-30"/>
       <use x="63.623047" xlink:href="#DejaVuSans-2e"/>
       <use x="95.410156" xlink:href="#DejaVuSans-30"/>
       <use x="159.033203" xlink:href="#DejaVuSans-32"/>
       <use x="222.65625" xlink:href="#DejaVuSans-30"/>
      </g>
     </g>
    </g>
    <g id="xtick_4">
     <g id="line2d_4">
      <g>
       <use style="stroke:#000000;stroke-width:0.8;" x="199.65974" xlink:href="#mbd52d0f211" y="252"/>
      </g>
     </g>
     <g id="text_4">
      <!-- 0.025 -->
      <g transform="translate(191.071303 263.559062)scale(0.06 -0.06)">
       <use xlink:href="#DejaVuSans-30"/>
       <use x="63.623047" xlink:href="#DejaVuSans-2e"/>
       <use x="95.410156" xlink:href="#DejaVuSans-30"/>
       <use x="159.033203" xlink:href="#DejaVuSans-32"/>
       <use x="222.65625" xlink:href="#DejaVuSans-35"/>
      </g>
     </g>
    </g>
    <g id="xtick_5">
     <g id="line2d_5">
      <g>
       <use style="stroke:#000000;stroke-width:0.8;" x="243.14026" xlink:href="#mbd52d0f211" y="252"/>
      </g>
     </g>
     <g id="text_5">
      <!-- 0.030 -->
      <g transform="translate(234.551822 263.559062)scale(0.06 -0.06)">
       <defs>
        <path d="M 2597 2516 
Q 3050 2419 3304 2112 
Q 3559 1806 3559 1356 
Q 3559 666 3084 287 
Q 2609 -91 1734 -91 
Q 1441 -91 1130 -33 
Q 819 25 488 141 
L 488 750 
Q 750 597 1062 519 
Q 1375 441 1716 441 
Q 2309 441 2620 675 
Q 2931 909 2931 1356 
Q 2931 1769 2642 2001 
Q 2353 2234 1838 2234 
L 1294 2234 
L 1294 2753 
L 1863 2753 
Q 2328 2753 2575 2939 
Q 2822 3125 2822 3475 
Q 2822 3834 2567 4026 
Q 2313 4219 1838 4219 
Q 1578 4219 1281 4162 
Q 984 4106 628 3988 
L 628 4550 
Q 988 4650 1302 4700 
Q 1616 4750 1894 4750 
Q 2613 4750 3031 4423 
Q 3450 4097 3450 3541 
Q 3450 3153 3228 2886 
Q 3006 2619 2597 2516 
z
" id="DejaVuSans-33" transform="scale(0.015625)"/>
       </defs>
       <use xlink:href="#DejaVuSans-30"/>
       <use x="63.623047" xlink:href="#DejaVuSans-2e"/>
       <use x="95.410156" xlink:href="#DejaVuSans-30"/>
       <use x="159.033203" xlink:href="#DejaVuSans-33"/>
       <use x="222.65625" xlink:href="#DejaVuSans-30"/>
      </g>
     </g>
    </g>
    <g id="xtick_6">
     <g id="line2d_6">
      <g>
       <use style="stroke:#000000;stroke-width:0.8;" x="286.620779" xlink:href="#mbd52d0f211" y="252"/>
      </g>
     </g>
     <g id="text_6">
      <!-- 0.035 -->
      <g transform="translate(278.032342 263.559062)scale(0.06 -0.06)">
       <use xlink:href="#DejaVuSans-30"/>
       <use x="63.623047" xlink:href="#DejaVuSans-2e"/>
       <use x="95.410156" xlink:href="#DejaVuSans-30"/>
       <use x="159.033203" xlink:href="#DejaVuSans-33"/>
       <use x="222.65625" xlink:href="#DejaVuSans-35"/>
      </g>
     </g>
    </g>
    <g id="xtick_7">
     <g id="line2d_7">
      <g>
       <use style="stroke:#000000;stroke-width:0.8;" x="330.101299" xlink:href="#mbd52d0f211" y="252"/>
      </g>
     </g>
     <g id="text_7">
      <!-- 0.040 -->
      <g transform="translate(321.512861 263.559062)scale(0.06 -0.06)">
       <defs>
        <path d="M 2419 4116 
L 825 1625 
L 2419 1625 
L 2419 4116 
z
M 2253 4666 
L 3047 4666 
L 3047 1625 
L 3713 1625 
L 3713 1100 
L 3047 1100 
L 3047 0 
L 2419 0 
L 2419 1100 
L 313 1100 
L 313 1709 
L 2253 4666 
z
" id="DejaVuSans-34" transform="scale(0.015625)"/>
       </defs>
       <use xlink:href="#DejaVuSans-30"/>
       <use x="63.623047" xlink:href="#DejaVuSans-2e"/>
       <use x="95.410156" xlink:href="#DejaVuSans-30"/>
       <use x="159.033203" xlink:href="#DejaVuSans-34"/>
       <use x="222.65625" xlink:href="#DejaVuSans-30"/>
      </g>
     </g>
    </g>
    <g id="xtick_8">
     <g id="line2d_8">
      <g>
       <use style="stroke:#000000;stroke-width:0.8;" x="373.581818" xlink:href="#mbd52d0f211" y="252"/>
      </g>
     </g>
     <g id="text_8">
      <!-- 0.045 -->
      <g transform="translate(364.993381 263.559062)scale(0.06 -0.06)">
       <use xlink:href="#DejaVuSans-30"/>
       <use x="63.623047" xlink:href="#DejaVuSans-2e"/>
       <use x="95.410156" xlink:href="#DejaVuSans-30"/>
       <use x="159.033203" xlink:href="#DejaVuSans-34"/>
       <use x="222.65625" xlink:href="#DejaVuSans-35"/>
      </g>
     </g>
    </g>
    <g id="text_9">
     <!-- Echo time [s] -->
     <g transform="translate(201.529687 273.365937)scale(0.06 -0.06)">
      <defs>
       <path d="M 628 4666 
L 3578 4666 
L 3578 4134 
L 1259 4134 
L 1259 2753 
L 3481 2753 
L 3481 2222 
L 1259 2222 
L 1259 531 
L 3634 531 
L 3634 0 
L 628 0 
L 628 4666 
z
" id="DejaVuSans-45" transform="scale(0.015625)"/>
       <path d="M 3122 3366 
L 3122 2828 
Q 2878 2963 2633 3030 
Q 2388 3097 2138 3097 
Q 1578 3097 1268 2742 
Q 959 2388 959 1747 
Q 959 1106 1268 751 
Q 1578 397 2138 397 
Q 2388 397 2633 464 
Q 2878 531 3122 666 
L 3122 134 
Q 2881 22 2623 -34 
Q 2366 -91 2075 -91 
Q 1284 -91 818 406 
Q 353 903 353 1747 
Q 353 2603 823 3093 
Q 1294 3584 2113 3584 
Q 2378 3584 2631 3529 
Q 2884 3475 3122 3366 
z
" id="DejaVuSans-63" transform="scale(0.015625)"/>
       <path d="M 3513 2113 
L 3513 0 
L 2938 0 
L 2938 2094 
Q 2938 2591 2744 2837 
Q 2550 3084 2163 3084 
Q 1697 3084 1428 2787 
Q 1159 2491 1159 1978 
L 1159 0 
L 581 0 
L 581 4863 
L 1159 4863 
L 1159 2956 
Q 1366 3272 1645 3428 
Q 1925 3584 2291 3584 
Q 2894 3584 3203 3211 
Q 3513 2838 3513 2113 
z
" id="DejaVuSans-68" transform="scale(0.015625)"/>
       <path d="M 1959 3097 
Q 1497 3097 1228 2736 
Q 959 2375 959 1747 
Q 959 1119 1226 758 
Q 1494 397 1959 397 
Q 2419 397 2687 759 
Q 2956 1122 2956 1747 
Q 2956 2369 2687 2733 
Q 2419 3097 1959 3097 
z
M 1959 3584 
Q 2709 3584 3137 3096 
Q 3566 2609 3566 1747 
Q 3566 888 3137 398 
Q 2709 -91 1959 -91 
Q 1206 -91 779 398 
Q 353 888 353 1747 
Q 353 2609 779 3096 
Q 1206 3584 1959 3584 
z
" id="DejaVuSans-6f" transform="scale(0.015625)"/>
       <path id="DejaVuSans-20" transform="scale(0.015625)"/>
       <path d="M 1172 4494 
L 1172 3500 
L 2356 3500 
L 2356 3053 
L 1172 3053 
L 1172 1153 
Q 1172 725 1289 603 
Q 1406 481 1766 481 
L 2356 481 
L 2356 0 
L 1766 0 
Q 1100 0 847 248 
Q 594 497 594 1153 
L 594 3053 
L 172 3053 
L 172 3500 
L 594 3500 
L 594 4494 
L 1172 4494 
z
" id="DejaVuSans-74" transform="scale(0.015625)"/>
       <path d="M 603 3500 
L 1178 3500 
L 1178 0 
L 603 0 
L 603 3500 
z
M 603 4863 
L 1178 4863 
L 1178 4134 
L 603 4134 
L 603 4863 
z
" id="DejaVuSans-69" transform="scale(0.015625)"/>
       <path d="M 3328 2828 
Q 3544 3216 3844 3400 
Q 4144 3584 4550 3584 
Q 5097 3584 5394 3201 
Q 5691 2819 5691 2113 
L 5691 0 
L 5113 0 
L 5113 2094 
Q 5113 2597 4934 2840 
Q 4756 3084 4391 3084 
Q 3944 3084 3684 2787 
Q 3425 2491 3425 1978 
L 3425 0 
L 2847 0 
L 2847 2094 
Q 2847 2600 2669 2842 
Q 2491 3084 2119 3084 
Q 1678 3084 1418 2786 
Q 1159 2488 1159 1978 
L 1159 0 
L 581 0 
L 581 3500 
L 1159 3500 
L 1159 2956 
Q 1356 3278 1631 3431 
Q 1906 3584 2284 3584 
Q 2666 3584 2933 3390 
Q 3200 3197 3328 2828 
z
" id="DejaVuSans-6d" transform="scale(0.015625)"/>
       <path d="M 3597 1894 
L 3597 1613 
L 953 1613 
Q 991 1019 1311 708 
Q 1631 397 2203 397 
Q 2534 397 2845 478 
Q 3156 559 3463 722 
L 3463 178 
Q 3153 47 2828 -22 
Q 2503 -91 2169 -91 
Q 1331 -91 842 396 
Q 353 884 353 1716 
Q 353 2575 817 3079 
Q 1281 3584 2069 3584 
Q 2775 3584 3186 3129 
Q 3597 2675 3597 1894 
z
M 3022 2063 
Q 3016 2534 2758 2815 
Q 2500 3097 2075 3097 
Q 1594 3097 1305 2825 
Q 1016 2553 972 2059 
L 3022 2063 
z
" id="DejaVuSans-65" transform="scale(0.015625)"/>
       <path d="M 550 4863 
L 1875 4863 
L 1875 4416 
L 1125 4416 
L 1125 -397 
L 1875 -397 
L 1875 -844 
L 550 -844 
L 550 4863 
z
" id="DejaVuSans-5b" transform="scale(0.015625)"/>
       <path d="M 2834 3397 
L 2834 2853 
Q 2591 2978 2328 3040 
Q 2066 3103 1784 3103 
Q 1356 3103 1142 2972 
Q 928 2841 928 2578 
Q 928 2378 1081 2264 
Q 1234 2150 1697 2047 
L 1894 2003 
Q 2506 1872 2764 1633 
Q 3022 1394 3022 966 
Q 3022 478 2636 193 
Q 2250 -91 1575 -91 
Q 1294 -91 989 -36 
Q 684 19 347 128 
L 347 722 
Q 666 556 975 473 
Q 1284 391 1588 391 
Q 1994 391 2212 530 
Q 2431 669 2431 922 
Q 2431 1156 2273 1281 
Q 2116 1406 1581 1522 
L 1381 1569 
Q 847 1681 609 1914 
Q 372 2147 372 2553 
Q 372 3047 722 3315 
Q 1072 3584 1716 3584 
Q 2034 3584 2315 3537 
Q 2597 3491 2834 3397 
z
" id="DejaVuSans-73" transform="scale(0.015625)"/>
       <path d="M 1947 4863 
L 1947 -844 
L 622 -844 
L 622 -397 
L 1369 -397 
L 1369 4416 
L 622 4416 
L 622 4863 
L 1947 4863 
z
" id="DejaVuSans-5d" transform="scale(0.015625)"/>
      </defs>
      <use xlink:href="#DejaVuSans-45"/>
      <use x="63.183594" xlink:href="#DejaVuSans-63"/>
      <use x="118.164062" xlink:href="#DejaVuSans-68"/>
      <use x="181.542969" xlink:href="#DejaVuSans-6f"/>
      <use x="242.724609" xlink:href="#DejaVuSans-20"/>
      <use x="274.511719" xlink:href="#DejaVuSans-74"/>
      <use x="313.720703" xlink:href="#DejaVuSans-69"/>
      <use x="341.503906" xlink:href="#DejaVuSans-6d"/>
      <use x="438.916016" xlink:href="#DejaVuSans-65"/>
      <use x="500.439453" xlink:href="#DejaVuSans-20"/>
      <use x="532.226562" xlink:href="#DejaVuSans-5b"/>
      <use x="571.240234" xlink:href="#DejaVuSans-73"/>
      <use x="623.339844" xlink:href="#DejaVuSans-5d"/>
     </g>
    </g>
   </g>
   <g id="matplotlib.axis_2">
    <g id="ytick_1">
     <g id="line2d_9">
      <defs>
       <path d="M 0 0 
L -3.5 0 
" id="mcf535532df" style="stroke:#000000;stroke-width:0.8;"/>
      </defs>
      <g>
       <use style="stroke:#000000;stroke-width:0.8;" x="54" xlink:href="#mcf535532df" y="252"/>
      </g>
     </g>
     <g id="text_10">
      <!-- 0 -->
      <g transform="translate(43.1825 254.279531)scale(0.06 -0.06)">
       <use xlink:href="#DejaVuSans-30"/>
      </g>
     </g>
    </g>
    <g id="ytick_2">
     <g id="line2d_10">
      <g>
       <use style="stroke:#000000;stroke-width:0.8;" x="54" xlink:href="#mcf535532df" y="219.893688"/>
      </g>
     </g>
     <g id="text_11">
      <!-- 20 -->
      <g transform="translate(39.365 222.173219)scale(0.06 -0.06)">
       <use xlink:href="#DejaVuSans-32"/>
       <use x="63.623047" xlink:href="#DejaVuSans-30"/>
      </g>
     </g>
    </g>
    <g id="ytick_3">
     <g id="line2d_11">
      <g>
       <use style="stroke:#000000;stroke-width:0.8;" x="54" xlink:href="#mcf535532df" y="187.787375"/>
      </g>
     </g>
     <g id="text_12">
      <!-- 40 -->
      <g transform="translate(39.365 190.066907)scale(0.06 -0.06)">
       <use xlink:href="#DejaVuSans-34"/>
       <use x="63.623047" xlink:href="#DejaVuSans-30"/>
      </g>
     </g>
    </g>
    <g id="ytick_4">
     <g id="line2d_12">
      <g>
       <use style="stroke:#000000;stroke-width:0.8;" x="54" xlink:href="#mcf535532df" y="155.681063"/>
      </g>
     </g>
     <g id="text_13">
      <!-- 60 -->
      <g transform="translate(39.365 157.960594)scale(0.06 -0.06)">
       <defs>
        <path d="M 2113 2584 
Q 1688 2584 1439 2293 
Q 1191 2003 1191 1497 
Q 1191 994 1439 701 
Q 1688 409 2113 409 
Q 2538 409 2786 701 
Q 3034 994 3034 1497 
Q 3034 2003 2786 2293 
Q 2538 2584 2113 2584 
z
M 3366 4563 
L 3366 3988 
Q 3128 4100 2886 4159 
Q 2644 4219 2406 4219 
Q 1781 4219 1451 3797 
Q 1122 3375 1075 2522 
Q 1259 2794 1537 2939 
Q 1816 3084 2150 3084 
Q 2853 3084 3261 2657 
Q 3669 2231 3669 1497 
Q 3669 778 3244 343 
Q 2819 -91 2113 -91 
Q 1303 -91 875 529 
Q 447 1150 447 2328 
Q 447 3434 972 4092 
Q 1497 4750 2381 4750 
Q 2619 4750 2861 4703 
Q 3103 4656 3366 4563 
z
" id="DejaVuSans-36" transform="scale(0.015625)"/>
       </defs>
       <use xlink:href="#DejaVuSans-36"/>
       <use x="63.623047" xlink:href="#DejaVuSans-30"/>
      </g>
     </g>
    </g>
    <g id="ytick_5">
     <g id="line2d_13">
      <g>
       <use style="stroke:#000000;stroke-width:0.8;" x="54" xlink:href="#mcf535532df" y="123.574751"/>
      </g>
     </g>
     <g id="text_14">
      <!-- 80 -->
      <g transform="translate(39.365 125.854282)scale(0.06 -0.06)">
       <defs>
        <path d="M 2034 2216 
Q 1584 2216 1326 1975 
Q 1069 1734 1069 1313 
Q 1069 891 1326 650 
Q 1584 409 2034 409 
Q 2484 409 2743 651 
Q 3003 894 3003 1313 
Q 3003 1734 2745 1975 
Q 2488 2216 2034 2216 
z
M 1403 2484 
Q 997 2584 770 2862 
Q 544 3141 544 3541 
Q 544 4100 942 4425 
Q 1341 4750 2034 4750 
Q 2731 4750 3128 4425 
Q 3525 4100 3525 3541 
Q 3525 3141 3298 2862 
Q 3072 2584 2669 2484 
Q 3125 2378 3379 2068 
Q 3634 1759 3634 1313 
Q 3634 634 3220 271 
Q 2806 -91 2034 -91 
Q 1263 -91 848 271 
Q 434 634 434 1313 
Q 434 1759 690 2068 
Q 947 2378 1403 2484 
z
M 1172 3481 
Q 1172 3119 1398 2916 
Q 1625 2713 2034 2713 
Q 2441 2713 2670 2916 
Q 2900 3119 2900 3481 
Q 2900 3844 2670 4047 
Q 2441 4250 2034 4250 
Q 1625 4250 1398 4047 
Q 1172 3844 1172 3481 
z
" id="DejaVuSans-38" transform="scale(0.015625)"/>
       </defs>
       <use xlink:href="#DejaVuSans-38"/>
       <use x="63.623047" xlink:href="#DejaVuSans-30"/>
      </g>
     </g>
    </g>
    <g id="ytick_6">
     <g id="line2d_14">
      <g>
       <use style="stroke:#000000;stroke-width:0.8;" x="54" xlink:href="#mcf535532df" y="91.468439"/>
      </g>
     </g>
     <g id="text_15">
      <!-- 100 -->
      <g transform="translate(35.5475 93.74797)scale(0.06 -0.06)">
       <use xlink:href="#DejaVuSans-31"/>
       <use x="63.623047" xlink:href="#DejaVuSans-30"/>
       <use x="127.246094" xlink:href="#DejaVuSans-30"/>
      </g>
     </g>
    </g>
    <g id="ytick_7">
     <g id="line2d_15">
      <g>
       <use style="stroke:#000000;stroke-width:0.8;" x="54" xlink:href="#mcf535532df" y="59.362126"/>
      </g>
     </g>
     <g id="text_16">
      <!-- 120 -->
      <g transform="translate(35.5475 61.641657)scale(0.06 -0.06)">
       <use xlink:href="#DejaVuSans-31"/>
       <use x="63.623047" xlink:href="#DejaVuSans-32"/>
       <use x="127.246094" xlink:href="#DejaVuSans-30"/>
      </g>
     </g>
    </g>
    <g id="text_17">
     <!-- Frequency -->
     <g transform="translate(30.299687 158.777813)rotate(-90)scale(0.06 -0.06)">
      <defs>
       <path d="M 628 4666 
L 3309 4666 
L 3309 4134 
L 1259 4134 
L 1259 2759 
L 3109 2759 
L 3109 2228 
L 1259 2228 
L 1259 0 
L 628 0 
L 628 4666 
z
" id="DejaVuSans-46" transform="scale(0.015625)"/>
       <path d="M 2631 2963 
Q 2534 3019 2420 3045 
Q 2306 3072 2169 3072 
Q 1681 3072 1420 2755 
Q 1159 2438 1159 1844 
L 1159 0 
L 581 0 
L 581 3500 
L 1159 3500 
L 1159 2956 
Q 1341 3275 1631 3429 
Q 1922 3584 2338 3584 
Q 2397 3584 2469 3576 
Q 2541 3569 2628 3553 
L 2631 2963 
z
" id="DejaVuSans-72" transform="scale(0.015625)"/>
       <path d="M 947 1747 
Q 947 1113 1208 752 
Q 1469 391 1925 391 
Q 2381 391 2643 752 
Q 2906 1113 2906 1747 
Q 2906 2381 2643 2742 
Q 2381 3103 1925 3103 
Q 1469 3103 1208 2742 
Q 947 2381 947 1747 
z
M 2906 525 
Q 2725 213 2448 61 
Q 2172 -91 1784 -91 
Q 1150 -91 751 415 
Q 353 922 353 1747 
Q 353 2572 751 3078 
Q 1150 3584 1784 3584 
Q 2172 3584 2448 3432 
Q 2725 3281 2906 2969 
L 2906 3500 
L 3481 3500 
L 3481 -1331 
L 2906 -1331 
L 2906 525 
z
" id="DejaVuSans-71" transform="scale(0.015625)"/>
       <path d="M 544 1381 
L 544 3500 
L 1119 3500 
L 1119 1403 
Q 1119 906 1312 657 
Q 1506 409 1894 409 
Q 2359 409 2629 706 
Q 2900 1003 2900 1516 
L 2900 3500 
L 3475 3500 
L 3475 0 
L 2900 0 
L 2900 538 
Q 2691 219 2414 64 
Q 2138 -91 1772 -91 
Q 1169 -91 856 284 
Q 544 659 544 1381 
z
M 1991 3584 
L 1991 3584 
z
" id="DejaVuSans-75" transform="scale(0.015625)"/>
       <path d="M 3513 2113 
L 3513 0 
L 2938 0 
L 2938 2094 
Q 2938 2591 2744 2837 
Q 2550 3084 2163 3084 
Q 1697 3084 1428 2787 
Q 1159 2491 1159 1978 
L 1159 0 
L 581 0 
L 581 3500 
L 1159 3500 
L 1159 2956 
Q 1366 3272 1645 3428 
Q 1925 3584 2291 3584 
Q 2894 3584 3203 3211 
Q 3513 2838 3513 2113 
z
" id="DejaVuSans-6e" transform="scale(0.015625)"/>
       <path d="M 2059 -325 
Q 1816 -950 1584 -1140 
Q 1353 -1331 966 -1331 
L 506 -1331 
L 506 -850 
L 844 -850 
Q 1081 -850 1212 -737 
Q 1344 -625 1503 -206 
L 1606 56 
L 191 3500 
L 800 3500 
L 1894 763 
L 2988 3500 
L 3597 3500 
L 2059 -325 
z
" id="DejaVuSans-79" transform="scale(0.015625)"/>
      </defs>
      <use xlink:href="#DejaVuSans-46"/>
      <use x="50.269531" xlink:href="#DejaVuSans-72"/>
      <use x="89.132812" xlink:href="#DejaVuSans-65"/>
      <use x="150.65625" xlink:href="#DejaVuSans-71"/>
      <use x="214.132812" xlink:href="#DejaVuSans-75"/>
      <use x="277.511719" xlink:href="#DejaVuSans-65"/>
      <use x="339.035156" xlink:href="#DejaVuSans-6e"/>
      <use x="402.414062" xlink:href="#DejaVuSans-63"/>
      <use x="457.394531" xlink:href="#DejaVuSans-79"/>
     </g>
    </g>
   </g>
   <g id="patch_65">
    <path d="M 54 252 
L 54 34.56 
" style="fill:none;stroke:#000000;stroke-linecap:square;stroke-linejoin:miter;stroke-width:0.8;"/>
   </g>
   <g id="patch_66">
    <path d="M 388.8 252 
L 388.8 34.56 
" style="fill:none;stroke:#000000;stroke-linecap:square;stroke-linejoin:miter;stroke-width:0.8;"/>
   </g>
   <g id="patch_67">
    <path d="M 54 252 
L 388.8 252 
" style="fill:none;stroke:#000000;stroke-linecap:square;stroke-linejoin:miter;stroke-width:0.8;"/>
   </g>
   <g id="patch_68">
    <path d="M 54 34.56 
L 388.8 34.56 
" style="fill:none;stroke:#000000;stroke-linecap:square;stroke-linejoin:miter;stroke-width:0.8;"/>
   </g>
   <g id="legend_1">
    <g id="patch_69">
     <path d="M 338.3625 65.780625 
L 384.6 65.780625 
Q 385.8 65.780625 385.8 64.580625 
L 385.8 38.76 
Q 385.8 37.56 384.6 37.56 
L 338.3625 37.56 
Q 337.1625 37.56 337.1625 38.76 
L 337.1625 64.580625 
Q 337.1625 65.780625 338.3625 65.780625 
z
" style="fill:#ffffff;opacity:0.8;stroke:#cccccc;stroke-linejoin:miter;"/>
    </g>
    <g id="text_18">
     <!-- func.sequence -->
     <g transform="translate(339.5625 44.519063)scale(0.06 -0.06)">
      <defs>
       <path d="M 2375 4863 
L 2375 4384 
L 1825 4384 
Q 1516 4384 1395 4259 
Q 1275 4134 1275 3809 
L 1275 3500 
L 2222 3500 
L 2222 3053 
L 1275 3053 
L 1275 0 
L 697 0 
L 697 3053 
L 147 3053 
L 147 3500 
L 697 3500 
L 697 3744 
Q 697 4328 969 4595 
Q 1241 4863 1831 4863 
L 2375 4863 
z
" id="DejaVuSans-66" transform="scale(0.015625)"/>
      </defs>
      <use xlink:href="#DejaVuSans-66"/>
      <use x="35.205078" xlink:href="#DejaVuSans-75"/>
      <use x="98.583984" xlink:href="#DejaVuSans-6e"/>
      <use x="161.962891" xlink:href="#DejaVuSans-63"/>
      <use x="216.943359" xlink:href="#DejaVuSans-2e"/>
      <use x="248.730469" xlink:href="#DejaVuSans-73"/>
      <use x="300.830078" xlink:href="#DejaVuSans-65"/>
      <use x="362.353516" xlink:href="#DejaVuSans-71"/>
      <use x="425.830078" xlink:href="#DejaVuSans-75"/>
      <use x="489.208984" xlink:href="#DejaVuSans-65"/>
      <use x="550.732422" xlink:href="#DejaVuSans-6e"/>
      <use x="614.111328" xlink:href="#DejaVuSans-63"/>
      <use x="669.091797" xlink:href="#DejaVuSans-65"/>
     </g>
    </g>
    <g id="patch_70">
     <path d="M 343.189219 53.325938 
L 355.189219 53.325938 
L 355.189219 49.125938 
L 343.189219 49.125938 
z
" style="fill:#0173b2;fill-opacity:0.75;stroke:#000000;stroke-linejoin:miter;"/>
    </g>
    <g id="text_19">
     <!-- GE-EPI -->
     <g transform="translate(359.989219 53.325938)scale(0.06 -0.06)">
      <defs>
       <path d="M 3809 666 
L 3809 1919 
L 2778 1919 
L 2778 2438 
L 4434 2438 
L 4434 434 
Q 4069 175 3628 42 
Q 3188 -91 2688 -91 
Q 1594 -91 976 548 
Q 359 1188 359 2328 
Q 359 3472 976 4111 
Q 1594 4750 2688 4750 
Q 3144 4750 3555 4637 
Q 3966 4525 4313 4306 
L 4313 3634 
Q 3963 3931 3569 4081 
Q 3175 4231 2741 4231 
Q 1884 4231 1454 3753 
Q 1025 3275 1025 2328 
Q 1025 1384 1454 906 
Q 1884 428 2741 428 
Q 3075 428 3337 486 
Q 3600 544 3809 666 
z
" id="DejaVuSans-47" transform="scale(0.015625)"/>
       <path d="M 313 2009 
L 1997 2009 
L 1997 1497 
L 313 1497 
L 313 2009 
z
" id="DejaVuSans-2d" transform="scale(0.015625)"/>
       <path d="M 1259 4147 
L 1259 2394 
L 2053 2394 
Q 2494 2394 2734 2622 
Q 2975 2850 2975 3272 
Q 2975 3691 2734 3919 
Q 2494 4147 2053 4147 
L 1259 4147 
z
M 628 4666 
L 2053 4666 
Q 2838 4666 3239 4311 
Q 3641 3956 3641 3272 
Q 3641 2581 3239 2228 
Q 2838 1875 2053 1875 
L 1259 1875 
L 1259 0 
L 628 0 
L 628 4666 
z
" id="DejaVuSans-50" transform="scale(0.015625)"/>
       <path d="M 628 4666 
L 1259 4666 
L 1259 0 
L 628 0 
L 628 4666 
z
" id="DejaVuSans-49" transform="scale(0.015625)"/>
      </defs>
      <use xlink:href="#DejaVuSans-47"/>
      <use x="77.490234" xlink:href="#DejaVuSans-45"/>
      <use x="140.673828" xlink:href="#DejaVuSans-2d"/>
      <use x="176.757812" xlink:href="#DejaVuSans-45"/>
      <use x="239.941406" xlink:href="#DejaVuSans-50"/>
      <use x="300.244141" xlink:href="#DejaVuSans-49"/>
     </g>
    </g>
    <g id="patch_71">
     <path d="M 343.189219 62.132812 
L 355.189219 62.132812 
L 355.189219 57.932812 
L 343.189219 57.932812 
z
" style="fill:#de8f05;fill-opacity:0.75;stroke:#000000;stroke-linejoin:miter;"/>
    </g>
    <g id="text_20">
     <!-- SE-EPI -->
     <g transform="translate(359.989219 62.132812)scale(0.06 -0.06)">
      <defs>
       <path d="M 3425 4513 
L 3425 3897 
Q 3066 4069 2747 4153 
Q 2428 4238 2131 4238 
Q 1616 4238 1336 4038 
Q 1056 3838 1056 3469 
Q 1056 3159 1242 3001 
Q 1428 2844 1947 2747 
L 2328 2669 
Q 3034 2534 3370 2195 
Q 3706 1856 3706 1288 
Q 3706 609 3251 259 
Q 2797 -91 1919 -91 
Q 1588 -91 1214 -16 
Q 841 59 441 206 
L 441 856 
Q 825 641 1194 531 
Q 1563 422 1919 422 
Q 2459 422 2753 634 
Q 3047 847 3047 1241 
Q 3047 1584 2836 1778 
Q 2625 1972 2144 2069 
L 1759 2144 
Q 1053 2284 737 2584 
Q 422 2884 422 3419 
Q 422 4038 858 4394 
Q 1294 4750 2059 4750 
Q 2388 4750 2728 4690 
Q 3069 4631 3425 4513 
z
" id="DejaVuSans-53" transform="scale(0.015625)"/>
      </defs>
      <use xlink:href="#DejaVuSans-53"/>
      <use x="63.476562" xlink:href="#DejaVuSans-45"/>
      <use x="126.660156" xlink:href="#DejaVuSans-2d"/>
      <use x="162.744141" xlink:href="#DejaVuSans-45"/>
      <use x="225.927734" xlink:href="#DejaVuSans-50"/>
      <use x="286.230469" xlink:href="#DejaVuSans-49"/>
     </g>
    </g>
   </g>
  </g>
 </g>
 <defs>
  <clipPath id="p5ee6984919">
   <rect height="217.44" width="334.8" x="54" y="34.56"/>
  </clipPath>
 </defs>
</svg>
