<?xml version="1.0" encoding="utf-8" standalone="no"?>
<!DOCTYPE svg PUBLIC "-//W3C//DTD SVG 1.1//EN"
  "http://www.w3.org/Graphics/SVG/1.1/DTD/svg11.dtd">
<svg height="288pt" version="1.1" viewBox="0 0 432 288" width="432pt" xmlns="http://www.w3.org/2000/svg" xmlns:xlink="http://www.w3.org/1999/xlink">
 <metadata>
  <rdf:RDF xmlns:cc="http://creativecommons.org/ns#" xmlns:dc="http://purl.org/dc/elements/1.1/" xmlns:rdf="http://www.w3.org/1999/02/22-rdf-syntax-ns#">
   <cc:Work>
    <dc:type rdf:resource="http://purl.org/dc/dcmitype/StillImage"/>
    <dc:date>2021-12-30T10:40:17.984584</dc:date>
    <dc:format>image/svg+xml</dc:format>
    <dc:creator>
     <cc:Agent>
      <dc:title>Matplotlib v3.4.1, https://matplotlib.org/</dc:title>
     </cc:Agent>
    </dc:creator>
   </cc:Work>
  </rdf:RDF>
 </metadata>
 <defs>
  <style type="text/css">*{stroke-linecap:butt;stroke-linejoin:round;}</style>
 </defs>
 <g id="figure_1">
  <g id="patch_1">
   <path d="M 0 288 
L 432 288 
L 432 0 
L 0 0 
z
" style="fill:none;"/>
  </g>
  <g id="axes_1">
   <g id="patch_2">
    <path d="M 308.376 143.28 
C 308.376 131.76733 306.09017 120.368403 301.651386 109.745843 
C 297.212601 99.123283 290.708572 89.486989 282.51738 81.397123 
C 274.326187 73.307256 264.609686 66.92367 253.932702 62.617444 
C 243.255717 58.311219 231.829222 56.167444 220.317444 56.310737 
C 208.805665 56.454031 197.436072 58.881562 186.869583 63.452217 
C 176.303094 68.022872 166.7485 74.646337 158.761212 82.937587 
C 150.773925 91.228836 144.511771 101.024038 140.338771 111.753793 
C 136.165771 122.483549 134.164383 133.935841 134.450948 145.444944 
L 221.4 143.28 
L 308.376 143.28 
z
" style="fill:#0173b2;"/>
   </g>
   <g id="patch_3">
    <path d="M 134.450948 145.444944 
C 134.824859 160.462041 139.082906 175.129233 146.808637 188.012015 
C 154.534369 200.894798 165.467428 211.559023 178.538523 218.961691 
C 191.609617 226.364359 206.378253 230.256001 221.400004 230.256 
C 236.421755 230.255999 251.190391 226.364356 264.261485 218.961687 
L 221.4 143.28 
L 134.450948 145.444944 
z
" style="fill:#de8f05;"/>
   </g>
   <g id="patch_4">
    <path d="M 264.261485 218.961687 
C 270.549587 215.40049 276.369419 211.069453 281.586301 206.068802 
C 286.803183 201.068152 291.376561 195.436763 295.200598 189.304953 
L 221.4 143.28 
L 264.261485 218.961687 
z
" style="fill:#029e73;"/>
   </g>
   <g id="patch_5">
    <path d="M 295.200598 189.304953 
C 297.952199 184.892785 300.302594 180.242736 302.223527 175.410702 
C 304.144461 170.578669 305.628206 165.584091 306.656926 160.487006 
L 221.4 143.28 
L 295.200598 189.304953 
z
" style="fill:#d55e00;"/>
   </g>
   <g id="patch_6">
    <path d="M 306.656926 160.487006 
C 307.228174 157.656601 307.658119 154.799504 307.945165 151.926332 
C 308.23221 149.053159 308.376 146.167474 308.376 143.279998 
L 221.4 143.28 
L 306.656926 160.487006 
z
" style="fill:#cc78bc;"/>
   </g>
   <g id="matplotlib.axis_1"/>
   <g id="matplotlib.axis_2"/>
   <g id="text_1">
    <text style="font-family:DejaVu Sans;font-size:6px;font-stretch:normal;font-style:normal;font-weight:normal;text-anchor:middle;" transform="rotate(-0, 220.750466, 92.754067)" x="220.750466" y="92.754067">50.4%</text>
   </g>
   <g id="text_2">
    <text style="font-family:DejaVu Sans;font-size:6px;font-stretch:normal;font-style:normal;font-weight:normal;text-anchor:middle;" transform="rotate(-0, 195.683114, 190.34464)" x="195.683114" y="190.34464">32.8%</text>
   </g>
   <g id="text_3">
    <text style="font-family:DejaVu Sans;font-size:6px;font-stretch:normal;font-style:normal;font-weight:normal;text-anchor:middle;" transform="rotate(-0, 257.511781, 182.608906)" x="257.511781" y="182.608906">7.9%</text>
   </g>
   <g id="text_4">
    <text style="font-family:DejaVu Sans;font-size:6px;font-stretch:normal;font-style:normal;font-weight:normal;text-anchor:middle;" transform="rotate(-0, 269.894116, 164.214046)" x="269.894116" y="164.214046">5.7%</text>
   </g>
   <g id="text_5">
    <text style="font-family:DejaVu Sans;font-size:6px;font-stretch:normal;font-style:normal;font-weight:normal;text-anchor:middle;" transform="rotate(-0, 273.327099, 150.123424)" x="273.327099" y="150.123424">3.2%</text>
   </g>
  </g>
 </g>
</svg>
