<?xml version="1.0" encoding="utf-8" standalone="no"?>
<!DOCTYPE svg PUBLIC "-//W3C//DTD SVG 1.1//EN"
  "http://www.w3.org/Graphics/SVG/1.1/DTD/svg11.dtd">
<svg height="288pt" version="1.1" viewBox="0 0 432 288" width="432pt" xmlns="http://www.w3.org/2000/svg" xmlns:xlink="http://www.w3.org/1999/xlink">
 <metadata>
  <rdf:RDF xmlns:cc="http://creativecommons.org/ns#" xmlns:dc="http://purl.org/dc/elements/1.1/" xmlns:rdf="http://www.w3.org/1999/02/22-rdf-syntax-ns#">
   <cc:Work>
    <dc:type rdf:resource="http://purl.org/dc/dcmitype/StillImage"/>
    <dc:date>2021-12-30T10:52:47.848650</dc:date>
    <dc:format>image/svg+xml</dc:format>
    <dc:creator>
     <cc:Agent>
      <dc:title>Matplotlib v3.4.1, https://matplotlib.org/</dc:title>
     </cc:Agent>
    </dc:creator>
   </cc:Work>
  </rdf:RDF>
 </metadata>
 <defs>
  <style type="text/css">*{stroke-linecap:butt;stroke-linejoin:round;}</style>
 </defs>
 <g id="figure_1">
  <g id="patch_1">
   <path d="M 0 288 
L 432 288 
L 432 0 
L 0 0 
z
" style="fill:none;"/>
  </g>
  <g id="axes_1">
   <g id="patch_2">
    <path d="M 308.376 143.28 
C 308.376 132.188833 306.254484 121.199349 302.126051 110.905174 
C 297.997617 100.611 291.937966 91.200888 284.274424 83.18315 
L 221.4 143.28 
L 308.376 143.28 
z
" style="fill:#0173b2;"/>
   </g>
   <g id="patch_3">
    <path d="M 284.274424 83.18315 
C 273.094922 71.48695 258.870428 63.139037 243.207569 59.082289 
C 227.54471 55.025541 211.05625 55.418667 195.604524 60.217265 
C 180.152799 65.015862 166.342312 74.032199 155.732929 86.2479 
C 145.123547 98.463601 138.130329 113.400762 135.543146 129.372263 
L 221.4 143.28 
L 284.274424 83.18315 
z
" style="fill:#de8f05;"/>
   </g>
   <g id="patch_4">
    <path d="M 135.543146 129.372263 
C 132.872938 145.856299 135.005651 162.765749 141.685239 178.070538 
C 148.364828 193.375326 159.312842 206.437445 173.214911 215.688713 
C 187.116979 224.939981 203.393568 229.994742 220.090581 230.246143 
C 236.787595 230.497544 253.208987 225.935105 267.383276 217.106573 
L 221.4 143.28 
L 135.543146 129.372263 
z
" style="fill:#029e73;"/>
   </g>
   <g id="patch_5">
    <path d="M 267.383276 217.106573 
C 279.923153 209.296044 290.268695 198.41783 297.440338 185.501932 
C 304.611981 172.586035 308.376 158.053384 308.376 143.28 
L 221.4 143.28 
L 267.383276 217.106573 
z
" style="fill:#d55e00;"/>
   </g>
   <g id="matplotlib.axis_1"/>
   <g id="matplotlib.axis_2"/>
   <g id="text_1">
    <text style="font-family:DejaVu Sans;font-size:6px;font-stretch:normal;font-style:normal;font-weight:normal;text-anchor:middle;" transform="rotate(-0, 269.83563, 125.51073)" x="269.83563" y="125.51073">12.1%</text>
   </g>
   <g id="text_2">
    <text style="font-family:DejaVu Sans;font-size:6px;font-stretch:normal;font-style:normal;font-weight:normal;text-anchor:middle;" transform="rotate(-0, 205.922715, 95.097984)" x="205.922715" y="95.097984">35.3%</text>
   </g>
   <g id="text_3">
    <text style="font-family:DejaVu Sans;font-size:6px;font-stretch:normal;font-style:normal;font-weight:normal;text-anchor:middle;" transform="rotate(-0, 192.488946, 188.380853)" x="192.488946" y="188.380853">36.4%</text>
   </g>
   <g id="text_4">
    <text style="font-family:DejaVu Sans;font-size:6px;font-stretch:normal;font-style:normal;font-weight:normal;text-anchor:middle;" transform="rotate(-0, 267.024203, 170.268784)" x="267.024203" y="170.268784">16.1%</text>
   </g>
  </g>
 </g>
</svg>
