<?xml version="1.0" encoding="utf-8" standalone="no"?>
<!DOCTYPE svg PUBLIC "-//W3C//DTD SVG 1.1//EN"
  "http://www.w3.org/Graphics/SVG/1.1/DTD/svg11.dtd">
<svg height="288pt" version="1.1" viewBox="0 0 432 288" width="432pt" xmlns="http://www.w3.org/2000/svg" xmlns:xlink="http://www.w3.org/1999/xlink">
 <metadata>
  <rdf:RDF xmlns:cc="http://creativecommons.org/ns#" xmlns:dc="http://purl.org/dc/elements/1.1/" xmlns:rdf="http://www.w3.org/1999/02/22-rdf-syntax-ns#">
   <cc:Work>
    <dc:type rdf:resource="http://purl.org/dc/dcmitype/StillImage"/>
    <dc:date>2022-08-12T14:33:20.505927</dc:date>
    <dc:format>image/svg+xml</dc:format>
    <dc:creator>
     <cc:Agent>
      <dc:title>Matplotlib v3.4.1, https://matplotlib.org/</dc:title>
     </cc:Agent>
    </dc:creator>
   </cc:Work>
  </rdf:RDF>
 </metadata>
 <defs>
  <style type="text/css">*{stroke-linecap:butt;stroke-linejoin:round;}</style>
 </defs>
 <g id="figure_1">
  <g id="patch_1">
   <path d="M 0 288 
L 432 288 
L 432 0 
L 0 0 
z
" style="fill:none;"/>
  </g>
  <g id="axes_1">
   <g id="patch_2">
    <path d="M 54 252 
L 388.8 252 
L 388.8 34.56 
L 54 34.56 
z
" style="fill:#ffffff;"/>
   </g>
   <g id="patch_3">
    <path clip-path="url(#p39191abb10)" d="M 69.218182 252 
L 88.240909 252 
L 88.240909 243.716571 
L 69.218182 243.716571 
z
" style="fill:#de8f05;fill-opacity:0.75;stroke:#000000;stroke-linejoin:miter;"/>
   </g>
   <g id="patch_4">
    <path clip-path="url(#p39191abb10)" d="M 88.240909 252 
L 107.263636 252 
L 107.263636 243.716571 
L 88.240909 243.716571 
z
" style="fill:#de8f05;fill-opacity:0.75;stroke:#000000;stroke-linejoin:miter;"/>
   </g>
   <g id="patch_5">
    <path clip-path="url(#p39191abb10)" d="M 107.263636 252 
L 126.286364 252 
L 126.286364 252 
L 107.263636 252 
z
" style="fill:#de8f05;fill-opacity:0.75;stroke:#000000;stroke-linejoin:miter;"/>
   </g>
   <g id="patch_6">
    <path clip-path="url(#p39191abb10)" d="M 126.286364 252 
L 145.309091 252 
L 145.309091 252 
L 126.286364 252 
z
" style="fill:#de8f05;fill-opacity:0.75;stroke:#000000;stroke-linejoin:miter;"/>
   </g>
   <g id="patch_7">
    <path clip-path="url(#p39191abb10)" d="M 145.309091 252 
L 164.331818 252 
L 164.331818 243.716571 
L 145.309091 243.716571 
z
" style="fill:#de8f05;fill-opacity:0.75;stroke:#000000;stroke-linejoin:miter;"/>
   </g>
   <g id="patch_8">
    <path clip-path="url(#p39191abb10)" d="M 164.331818 252 
L 183.354545 252 
L 183.354545 252 
L 164.331818 252 
z
" style="fill:#de8f05;fill-opacity:0.75;stroke:#000000;stroke-linejoin:miter;"/>
   </g>
   <g id="patch_9">
    <path clip-path="url(#p39191abb10)" d="M 183.354545 252 
L 202.377273 252 
L 202.377273 218.866286 
L 183.354545 218.866286 
z
" style="fill:#de8f05;fill-opacity:0.75;stroke:#000000;stroke-linejoin:miter;"/>
   </g>
   <g id="patch_10">
    <path clip-path="url(#p39191abb10)" d="M 202.377273 252 
L 221.4 252 
L 221.4 252 
L 202.377273 252 
z
" style="fill:#de8f05;fill-opacity:0.75;stroke:#000000;stroke-linejoin:miter;"/>
   </g>
   <g id="patch_11">
    <path clip-path="url(#p39191abb10)" d="M 221.4 252 
L 240.422727 252 
L 240.422727 252 
L 221.4 252 
z
" style="fill:#de8f05;fill-opacity:0.75;stroke:#000000;stroke-linejoin:miter;"/>
   </g>
   <g id="patch_12">
    <path clip-path="url(#p39191abb10)" d="M 240.422727 252 
L 259.445455 252 
L 259.445455 252 
L 240.422727 252 
z
" style="fill:#de8f05;fill-opacity:0.75;stroke:#000000;stroke-linejoin:miter;"/>
   </g>
   <g id="patch_13">
    <path clip-path="url(#p39191abb10)" d="M 259.445455 252 
L 278.468182 252 
L 278.468182 252 
L 259.445455 252 
z
" style="fill:#de8f05;fill-opacity:0.75;stroke:#000000;stroke-linejoin:miter;"/>
   </g>
   <g id="patch_14">
    <path clip-path="url(#p39191abb10)" d="M 278.468182 252 
L 297.490909 252 
L 297.490909 252 
L 278.468182 252 
z
" style="fill:#de8f05;fill-opacity:0.75;stroke:#000000;stroke-linejoin:miter;"/>
   </g>
   <g id="patch_15">
    <path clip-path="url(#p39191abb10)" d="M 297.490909 252 
L 316.513636 252 
L 316.513636 252 
L 297.490909 252 
z
" style="fill:#de8f05;fill-opacity:0.75;stroke:#000000;stroke-linejoin:miter;"/>
   </g>
   <g id="patch_16">
    <path clip-path="url(#p39191abb10)" d="M 316.513636 252 
L 335.536364 252 
L 335.536364 252 
L 316.513636 252 
z
" style="fill:#de8f05;fill-opacity:0.75;stroke:#000000;stroke-linejoin:miter;"/>
   </g>
   <g id="patch_17">
    <path clip-path="url(#p39191abb10)" d="M 335.536364 252 
L 354.559091 252 
L 354.559091 252 
L 335.536364 252 
z
" style="fill:#de8f05;fill-opacity:0.75;stroke:#000000;stroke-linejoin:miter;"/>
   </g>
   <g id="patch_18">
    <path clip-path="url(#p39191abb10)" d="M 354.559091 252 
L 373.581818 252 
L 373.581818 252 
L 354.559091 252 
z
" style="fill:#de8f05;fill-opacity:0.75;stroke:#000000;stroke-linejoin:miter;"/>
   </g>
   <g id="patch_19">
    <path clip-path="url(#p39191abb10)" d="M 69.218182 243.716571 
L 88.240909 243.716571 
L 88.240909 227.149714 
L 69.218182 227.149714 
z
" style="fill:#0173b2;fill-opacity:0.75;stroke:#000000;stroke-linejoin:miter;"/>
   </g>
   <g id="patch_20">
    <path clip-path="url(#p39191abb10)" d="M 88.240909 243.716571 
L 107.263636 243.716571 
L 107.263636 235.433143 
L 88.240909 235.433143 
z
" style="fill:#0173b2;fill-opacity:0.75;stroke:#000000;stroke-linejoin:miter;"/>
   </g>
   <g id="patch_21">
    <path clip-path="url(#p39191abb10)" d="M 107.263636 252 
L 126.286364 252 
L 126.286364 87.988114 
L 107.263636 87.988114 
z
" style="fill:#0173b2;fill-opacity:0.75;stroke:#000000;stroke-linejoin:miter;"/>
   </g>
   <g id="patch_22">
    <path clip-path="url(#p39191abb10)" d="M 126.286364 252 
L 145.309091 252 
L 145.309091 243.716571 
L 126.286364 243.716571 
z
" style="fill:#0173b2;fill-opacity:0.75;stroke:#000000;stroke-linejoin:miter;"/>
   </g>
   <g id="patch_23">
    <path clip-path="url(#p39191abb10)" d="M 145.309091 243.716571 
L 164.331818 243.716571 
L 164.331818 194.016 
L 145.309091 194.016 
z
" style="fill:#0173b2;fill-opacity:0.75;stroke:#000000;stroke-linejoin:miter;"/>
   </g>
   <g id="patch_24">
    <path clip-path="url(#p39191abb10)" d="M 164.331818 252 
L 183.354545 252 
L 183.354545 228.8064 
L 164.331818 228.8064 
z
" style="fill:#0173b2;fill-opacity:0.75;stroke:#000000;stroke-linejoin:miter;"/>
   </g>
   <g id="patch_25">
    <path clip-path="url(#p39191abb10)" d="M 183.354545 218.866286 
L 202.377273 218.866286 
L 202.377273 44.914286 
L 183.354545 44.914286 
z
" style="fill:#0173b2;fill-opacity:0.75;stroke:#000000;stroke-linejoin:miter;"/>
   </g>
   <g id="patch_26">
    <path clip-path="url(#p39191abb10)" d="M 202.377273 252 
L 221.4 252 
L 221.4 252 
L 202.377273 252 
z
" style="fill:#0173b2;fill-opacity:0.75;stroke:#000000;stroke-linejoin:miter;"/>
   </g>
   <g id="patch_27">
    <path clip-path="url(#p39191abb10)" d="M 221.4 252 
L 240.422727 252 
L 240.422727 252 
L 221.4 252 
z
" style="fill:#0173b2;fill-opacity:0.75;stroke:#000000;stroke-linejoin:miter;"/>
   </g>
   <g id="patch_28">
    <path clip-path="url(#p39191abb10)" d="M 240.422727 252 
L 259.445455 252 
L 259.445455 243.716571 
L 240.422727 243.716571 
z
" style="fill:#0173b2;fill-opacity:0.75;stroke:#000000;stroke-linejoin:miter;"/>
   </g>
   <g id="patch_29">
    <path clip-path="url(#p39191abb10)" d="M 259.445455 252 
L 278.468182 252 
L 278.468182 243.716571 
L 259.445455 243.716571 
z
" style="fill:#0173b2;fill-opacity:0.75;stroke:#000000;stroke-linejoin:miter;"/>
   </g>
   <g id="patch_30">
    <path clip-path="url(#p39191abb10)" d="M 278.468182 252 
L 297.490909 252 
L 297.490909 243.716571 
L 278.468182 243.716571 
z
" style="fill:#0173b2;fill-opacity:0.75;stroke:#000000;stroke-linejoin:miter;"/>
   </g>
   <g id="patch_31">
    <path clip-path="url(#p39191abb10)" d="M 297.490909 252 
L 316.513636 252 
L 316.513636 252 
L 297.490909 252 
z
" style="fill:#0173b2;fill-opacity:0.75;stroke:#000000;stroke-linejoin:miter;"/>
   </g>
   <g id="patch_32">
    <path clip-path="url(#p39191abb10)" d="M 316.513636 252 
L 335.536364 252 
L 335.536364 252 
L 316.513636 252 
z
" style="fill:#0173b2;fill-opacity:0.75;stroke:#000000;stroke-linejoin:miter;"/>
   </g>
   <g id="patch_33">
    <path clip-path="url(#p39191abb10)" d="M 335.536364 252 
L 354.559091 252 
L 354.559091 252 
L 335.536364 252 
z
" style="fill:#0173b2;fill-opacity:0.75;stroke:#000000;stroke-linejoin:miter;"/>
   </g>
   <g id="patch_34">
    <path clip-path="url(#p39191abb10)" d="M 354.559091 252 
L 373.581818 252 
L 373.581818 243.716571 
L 354.559091 243.716571 
z
" style="fill:#0173b2;fill-opacity:0.75;stroke:#000000;stroke-linejoin:miter;"/>
   </g>
   <g id="matplotlib.axis_1">
    <g id="xtick_1">
     <g id="line2d_1">
      <defs>
       <path d="M 0 0 
L 0 3.5 
" id="m829e6dd6cb" style="stroke:#000000;stroke-width:0.8;"/>
      </defs>
      <g>
       <use style="stroke:#000000;stroke-width:0.8;" x="69.218182" xlink:href="#m829e6dd6cb" y="252"/>
      </g>
     </g>
     <g id="text_1">
      <text style="font-family:DejaVu Sans;font-size:6px;font-stretch:normal;font-style:normal;font-weight:normal;text-anchor:middle;" transform="rotate(-0, 69.218182, 263.559062)" x="69.218182" y="263.559062">0.5</text>
     </g>
    </g>
    <g id="xtick_2">
     <g id="line2d_2">
      <g>
       <use style="stroke:#000000;stroke-width:0.8;" x="112.698701" xlink:href="#m829e6dd6cb" y="252"/>
      </g>
     </g>
     <g id="text_2">
      <text style="font-family:DejaVu Sans;font-size:6px;font-stretch:normal;font-style:normal;font-weight:normal;text-anchor:middle;" transform="rotate(-0, 112.698701, 263.559062)" x="112.698701" y="263.559062">1.0</text>
     </g>
    </g>
    <g id="xtick_3">
     <g id="line2d_3">
      <g>
       <use style="stroke:#000000;stroke-width:0.8;" x="156.179221" xlink:href="#m829e6dd6cb" y="252"/>
      </g>
     </g>
     <g id="text_3">
      <text style="font-family:DejaVu Sans;font-size:6px;font-stretch:normal;font-style:normal;font-weight:normal;text-anchor:middle;" transform="rotate(-0, 156.179221, 263.559062)" x="156.179221" y="263.559062">1.5</text>
     </g>
    </g>
    <g id="xtick_4">
     <g id="line2d_4">
      <g>
       <use style="stroke:#000000;stroke-width:0.8;" x="199.65974" xlink:href="#m829e6dd6cb" y="252"/>
      </g>
     </g>
     <g id="text_4">
      <text style="font-family:DejaVu Sans;font-size:6px;font-stretch:normal;font-style:normal;font-weight:normal;text-anchor:middle;" transform="rotate(-0, 199.65974, 263.559062)" x="199.65974" y="263.559062">2.0</text>
     </g>
    </g>
    <g id="xtick_5">
     <g id="line2d_5">
      <g>
       <use style="stroke:#000000;stroke-width:0.8;" x="243.14026" xlink:href="#m829e6dd6cb" y="252"/>
      </g>
     </g>
     <g id="text_5">
      <text style="font-family:DejaVu Sans;font-size:6px;font-stretch:normal;font-style:normal;font-weight:normal;text-anchor:middle;" transform="rotate(-0, 243.14026, 263.559062)" x="243.14026" y="263.559062">2.5</text>
     </g>
    </g>
    <g id="xtick_6">
     <g id="line2d_6">
      <g>
       <use style="stroke:#000000;stroke-width:0.8;" x="286.620779" xlink:href="#m829e6dd6cb" y="252"/>
      </g>
     </g>
     <g id="text_6">
      <text style="font-family:DejaVu Sans;font-size:6px;font-stretch:normal;font-style:normal;font-weight:normal;text-anchor:middle;" transform="rotate(-0, 286.620779, 263.559062)" x="286.620779" y="263.559062">3.0</text>
     </g>
    </g>
    <g id="xtick_7">
     <g id="line2d_7">
      <g>
       <use style="stroke:#000000;stroke-width:0.8;" x="330.101299" xlink:href="#m829e6dd6cb" y="252"/>
      </g>
     </g>
     <g id="text_7">
      <text style="font-family:DejaVu Sans;font-size:6px;font-stretch:normal;font-style:normal;font-weight:normal;text-anchor:middle;" transform="rotate(-0, 330.101299, 263.559062)" x="330.101299" y="263.559062">3.5</text>
     </g>
    </g>
    <g id="xtick_8">
     <g id="line2d_8">
      <g>
       <use style="stroke:#000000;stroke-width:0.8;" x="373.581818" xlink:href="#m829e6dd6cb" y="252"/>
      </g>
     </g>
     <g id="text_8">
      <text style="font-family:DejaVu Sans;font-size:6px;font-stretch:normal;font-style:normal;font-weight:normal;text-anchor:middle;" transform="rotate(-0, 373.581818, 263.559062)" x="373.581818" y="263.559062">4.0</text>
     </g>
    </g>
    <g id="text_9">
     <text style="font-family:DejaVu Sans;font-size:6px;font-stretch:normal;font-style:normal;font-weight:normal;text-anchor:middle;" transform="rotate(-0, 221.4, 273.365937)" x="221.4" y="273.365937">Repetition time [s]</text>
    </g>
   </g>
   <g id="matplotlib.axis_2">
    <g id="ytick_1">
     <g id="line2d_9">
      <defs>
       <path d="M 0 0 
L -3.5 0 
" id="m2cdbedc38e" style="stroke:#000000;stroke-width:0.8;"/>
      </defs>
      <g>
       <use style="stroke:#000000;stroke-width:0.8;" x="54" xlink:href="#m2cdbedc38e" y="252"/>
      </g>
     </g>
     <g id="text_10">
      <text style="font-family:DejaVu Sans;font-size:6px;font-stretch:normal;font-style:normal;font-weight:normal;text-anchor:end;" transform="rotate(-0, 47, 254.279531)" x="47" y="254.279531">0</text>
     </g>
    </g>
    <g id="ytick_2">
     <g id="line2d_10">
      <g>
       <use style="stroke:#000000;stroke-width:0.8;" x="54" xlink:href="#m2cdbedc38e" y="210.582857"/>
      </g>
     </g>
     <g id="text_11">
      <text style="font-family:DejaVu Sans;font-size:6px;font-stretch:normal;font-style:normal;font-weight:normal;text-anchor:end;" transform="rotate(-0, 47, 212.862388)" x="47" y="212.862388">50</text>
     </g>
    </g>
    <g id="ytick_3">
     <g id="line2d_11">
      <g>
       <use style="stroke:#000000;stroke-width:0.8;" x="54" xlink:href="#m2cdbedc38e" y="169.165714"/>
      </g>
     </g>
     <g id="text_12">
      <text style="font-family:DejaVu Sans;font-size:6px;font-stretch:normal;font-style:normal;font-weight:normal;text-anchor:end;" transform="rotate(-0, 47, 171.445246)" x="47" y="171.445246">100</text>
     </g>
    </g>
    <g id="ytick_4">
     <g id="line2d_12">
      <g>
       <use style="stroke:#000000;stroke-width:0.8;" x="54" xlink:href="#m2cdbedc38e" y="127.748571"/>
      </g>
     </g>
     <g id="text_13">
      <text style="font-family:DejaVu Sans;font-size:6px;font-stretch:normal;font-style:normal;font-weight:normal;text-anchor:end;" transform="rotate(-0, 47, 130.028103)" x="47" y="130.028103">150</text>
     </g>
    </g>
    <g id="ytick_5">
     <g id="line2d_13">
      <g>
       <use style="stroke:#000000;stroke-width:0.8;" x="54" xlink:href="#m2cdbedc38e" y="86.331429"/>
      </g>
     </g>
     <g id="text_14">
      <text style="font-family:DejaVu Sans;font-size:6px;font-stretch:normal;font-style:normal;font-weight:normal;text-anchor:end;" transform="rotate(-0, 47, 88.61096)" x="47" y="88.61096">200</text>
     </g>
    </g>
    <g id="ytick_6">
     <g id="line2d_14">
      <g>
       <use style="stroke:#000000;stroke-width:0.8;" x="54" xlink:href="#m2cdbedc38e" y="44.914286"/>
      </g>
     </g>
     <g id="text_15">
      <text style="font-family:DejaVu Sans;font-size:6px;font-stretch:normal;font-style:normal;font-weight:normal;text-anchor:end;" transform="rotate(-0, 47, 47.193817)" x="47" y="47.193817">250</text>
     </g>
    </g>
    <g id="text_16">
     <text style="font-family:DejaVu Sans;font-size:6px;font-stretch:normal;font-style:normal;font-weight:normal;text-anchor:middle;" transform="rotate(-90, 30.299687, 143.28)" x="30.299687" y="143.28">Frequency</text>
    </g>
   </g>
   <g id="patch_35">
    <path d="M 54 252 
L 54 34.56 
" style="fill:none;stroke:#000000;stroke-linecap:square;stroke-linejoin:miter;stroke-width:0.8;"/>
   </g>
   <g id="patch_36">
    <path d="M 388.8 252 
L 388.8 34.56 
" style="fill:none;stroke:#000000;stroke-linecap:square;stroke-linejoin:miter;stroke-width:0.8;"/>
   </g>
   <g id="patch_37">
    <path d="M 54 252 
L 388.8 252 
" style="fill:none;stroke:#000000;stroke-linecap:square;stroke-linejoin:miter;stroke-width:0.8;"/>
   </g>
   <g id="patch_38">
    <path d="M 54 34.56 
L 388.8 34.56 
" style="fill:none;stroke:#000000;stroke-linecap:square;stroke-linejoin:miter;stroke-width:0.8;"/>
   </g>
  </g>
 </g>
 <defs>
  <clipPath id="p39191abb10">
   <rect height="217.44" width="334.8" x="54" y="34.56"/>
  </clipPath>
 </defs>
</svg>
