<?xml version="1.0" encoding="utf-8" standalone="no"?>
<!DOCTYPE svg PUBLIC "-//W3C//DTD SVG 1.1//EN"
  "http://www.w3.org/Graphics/SVG/1.1/DTD/svg11.dtd">
<svg height="288pt" version="1.1" viewBox="0 0 432 288" width="432pt" xmlns="http://www.w3.org/2000/svg" xmlns:xlink="http://www.w3.org/1999/xlink">
 <metadata>
  <rdf:RDF xmlns:cc="http://creativecommons.org/ns#" xmlns:dc="http://purl.org/dc/elements/1.1/" xmlns:rdf="http://www.w3.org/1999/02/22-rdf-syntax-ns#">
   <cc:Work>
    <dc:type rdf:resource="http://purl.org/dc/dcmitype/StillImage"/>
    <dc:date>2022-08-12T14:34:46.714074</dc:date>
    <dc:format>image/svg+xml</dc:format>
    <dc:creator>
     <cc:Agent>
      <dc:title>Matplotlib v3.4.1, https://matplotlib.org/</dc:title>
     </cc:Agent>
    </dc:creator>
   </cc:Work>
  </rdf:RDF>
 </metadata>
 <defs>
  <style type="text/css">*{stroke-linecap:butt;stroke-linejoin:round;}</style>
 </defs>
 <g id="figure_1">
  <g id="patch_1">
   <path d="M 0 288 
L 432 288 
L 432 0 
L 0 0 
z
" style="fill:none;"/>
  </g>
  <g id="axes_1">
   <g id="patch_2">
    <path d="M 54 252 
L 388.8 252 
L 388.8 34.56 
L 54 34.56 
z
" style="fill:#ffffff;"/>
   </g>
   <g id="patch_3">
    <path clip-path="url(#p894d73623b)" d="M 67.95 252 
L 95.85 252 
L 95.85 207.62449 
L 67.95 207.62449 
z
" style="fill:#0173b2;"/>
   </g>
   <g id="patch_4">
    <path clip-path="url(#p894d73623b)" d="M 123.75 252 
L 151.65 252 
L 151.65 205.980952 
L 123.75 205.980952 
z
" style="fill:#0173b2;"/>
   </g>
   <g id="patch_5">
    <path clip-path="url(#p894d73623b)" d="M 179.55 252 
L 207.45 252 
L 207.45 185.732571 
L 179.55 185.732571 
z
" style="fill:#0173b2;"/>
   </g>
   <g id="patch_6">
    <path clip-path="url(#p894d73623b)" d="M 235.35 252 
L 263.25 252 
L 263.25 172.233651 
L 235.35 172.233651 
z
" style="fill:#0173b2;"/>
   </g>
   <g id="patch_7">
    <path clip-path="url(#p894d73623b)" d="M 291.15 252 
L 319.05 252 
L 319.05 168.803993 
L 291.15 168.803993 
z
" style="fill:#0173b2;"/>
   </g>
   <g id="patch_8">
    <path clip-path="url(#p894d73623b)" d="M 346.95 252 
L 374.85 252 
L 374.85 150.118258 
L 346.95 150.118258 
z
" style="fill:#0173b2;"/>
   </g>
   <g id="patch_9">
    <path clip-path="url(#p894d73623b)" d="M 67.95 207.62449 
L 95.85 207.62449 
L 95.85 185.436735 
L 67.95 185.436735 
z
" style="fill:#de8f05;"/>
   </g>
   <g id="patch_10">
    <path clip-path="url(#p894d73623b)" d="M 123.75 205.980952 
L 151.65 205.980952 
L 151.65 136.952381 
L 123.75 136.952381 
z
" style="fill:#de8f05;"/>
   </g>
   <g id="patch_11">
    <path clip-path="url(#p894d73623b)" d="M 179.55 185.732571 
L 207.45 185.732571 
L 207.45 160.882286 
L 179.55 160.882286 
z
" style="fill:#de8f05;"/>
   </g>
   <g id="patch_12">
    <path clip-path="url(#p894d73623b)" d="M 235.35 172.233651 
L 263.25 172.233651 
L 263.25 143.088254 
L 235.35 143.088254 
z
" style="fill:#de8f05;"/>
   </g>
   <g id="patch_13">
    <path clip-path="url(#p894d73623b)" d="M 291.15 168.803993 
L 319.05 168.803993 
L 319.05 146.196382 
L 291.15 146.196382 
z
" style="fill:#de8f05;"/>
   </g>
   <g id="patch_14">
    <path clip-path="url(#p894d73623b)" d="M 346.95 150.118258 
L 374.85 150.118258 
L 374.85 129.077464 
L 346.95 129.077464 
z
" style="fill:#de8f05;"/>
   </g>
   <g id="patch_15">
    <path clip-path="url(#p894d73623b)" d="M 67.95 185.436735 
L 95.85 185.436735 
L 95.85 67.102041 
L 67.95 67.102041 
z
" style="fill:#029e73;"/>
   </g>
   <g id="patch_16">
    <path clip-path="url(#p894d73623b)" d="M 123.75 136.952381 
L 151.65 136.952381 
L 151.65 113.942857 
L 123.75 113.942857 
z
" style="fill:#029e73;"/>
   </g>
   <g id="patch_17">
    <path clip-path="url(#p894d73623b)" d="M 179.55 160.882286 
L 207.45 160.882286 
L 207.45 148.457143 
L 179.55 148.457143 
z
" style="fill:#029e73;"/>
   </g>
   <g id="patch_18">
    <path clip-path="url(#p894d73623b)" d="M 235.35 143.088254 
L 263.25 143.088254 
L 263.25 130.816508 
L 235.35 130.816508 
z
" style="fill:#029e73;"/>
   </g>
   <g id="patch_19">
    <path clip-path="url(#p894d73623b)" d="M 291.15 146.196382 
L 319.05 146.196382 
L 319.05 101.885465 
L 291.15 101.885465 
z
" style="fill:#029e73;"/>
   </g>
   <g id="patch_20">
    <path clip-path="url(#p894d73623b)" d="M 346.95 129.077464 
L 374.85 129.077464 
L 374.85 118.003361 
L 346.95 118.003361 
z
" style="fill:#029e73;"/>
   </g>
   <g id="patch_21">
    <path clip-path="url(#p894d73623b)" d="M 67.95 67.102041 
L 95.85 67.102041 
L 95.85 44.914286 
L 67.95 44.914286 
z
" style="fill:#d55e00;"/>
   </g>
   <g id="patch_22">
    <path clip-path="url(#p894d73623b)" d="M 123.75 113.942857 
L 151.65 113.942857 
L 151.65 44.914286 
L 123.75 44.914286 
z
" style="fill:#d55e00;"/>
   </g>
   <g id="patch_23">
    <path clip-path="url(#p894d73623b)" d="M 179.55 148.457143 
L 207.45 148.457143 
L 207.45 44.914286 
L 179.55 44.914286 
z
" style="fill:#d55e00;"/>
   </g>
   <g id="patch_24">
    <path clip-path="url(#p894d73623b)" d="M 235.35 130.816508 
L 263.25 130.816508 
L 263.25 44.914286 
L 235.35 44.914286 
z
" style="fill:#d55e00;"/>
   </g>
   <g id="patch_25">
    <path clip-path="url(#p894d73623b)" d="M 291.15 101.885465 
L 319.05 101.885465 
L 319.05 44.914286 
L 291.15 44.914286 
z
" style="fill:#d55e00;"/>
   </g>
   <g id="patch_26">
    <path clip-path="url(#p894d73623b)" d="M 346.95 118.003361 
L 374.85 118.003361 
L 374.85 44.914286 
L 346.95 44.914286 
z
" style="fill:#d55e00;"/>
   </g>
   <g id="matplotlib.axis_1">
    <g id="xtick_1">
     <g id="line2d_1">
      <defs>
       <path d="M 0 0 
L 0 3.5 
" id="m1a26bb65ad" style="stroke:#000000;stroke-width:0.8;"/>
      </defs>
      <g>
       <use style="stroke:#000000;stroke-width:0.8;" x="81.9" xlink:href="#m1a26bb65ad" y="252"/>
      </g>
     </g>
     <g id="text_1">
      <text style="font-family:DejaVu Sans;font-size:6px;font-stretch:normal;font-style:normal;font-weight:normal;" transform="translate(83.555625 278.209375)rotate(-90)">awake</text>
     </g>
    </g>
    <g id="xtick_2">
     <g id="line2d_2">
      <g>
       <use style="stroke:#000000;stroke-width:0.8;" x="137.7" xlink:href="#m1a26bb65ad" y="252"/>
      </g>
     </g>
     <g id="text_2">
      <text style="font-family:DejaVu Sans;font-size:6px;font-stretch:normal;font-style:normal;font-weight:normal;" transform="translate(139.355625 308.535625)rotate(-90)">alpha-chloralose</text>
     </g>
    </g>
    <g id="xtick_3">
     <g id="line2d_3">
      <g>
       <use style="stroke:#000000;stroke-width:0.8;" x="193.5" xlink:href="#m1a26bb65ad" y="252"/>
      </g>
     </g>
     <g id="text_3">
      <text style="font-family:DejaVu Sans;font-size:6px;font-stretch:normal;font-style:normal;font-weight:normal;" transform="translate(195.155625 286.151875)rotate(-90)">urethane</text>
     </g>
    </g>
    <g id="xtick_4">
     <g id="line2d_4">
      <g>
       <use style="stroke:#000000;stroke-width:0.8;" x="249.3" xlink:href="#m1a26bb65ad" y="252"/>
      </g>
     </g>
     <g id="text_4">
      <text style="font-family:DejaVu Sans;font-size:6px;font-stretch:normal;font-style:normal;font-weight:normal;" transform="translate(250.955625 302.542188)rotate(-90)">medetomidine</text>
     </g>
    </g>
    <g id="xtick_5">
     <g id="line2d_5">
      <g>
       <use style="stroke:#000000;stroke-width:0.8;" x="305.1" xlink:href="#m1a26bb65ad" y="252"/>
      </g>
     </g>
     <g id="text_5">
      <text style="font-family:DejaVu Sans;font-size:6px;font-stretch:normal;font-style:normal;font-weight:normal;" transform="translate(306.755625 288.683125)rotate(-90)">isoflurane</text>
     </g>
    </g>
    <g id="xtick_6">
     <g id="line2d_6">
      <g>
       <use style="stroke:#000000;stroke-width:0.8;" x="360.9" xlink:href="#m1a26bb65ad" y="252"/>
      </g>
     </g>
     <g id="text_6">
      <text style="font-family:DejaVu Sans;font-size:6px;font-stretch:normal;font-style:normal;font-weight:normal;" transform="translate(362.555625 338.060313)rotate(-90)">isoflurane / medetomidine</text>
     </g>
    </g>
    <g id="text_7">
     <text style="font-family:DejaVu Sans;font-size:6px;font-stretch:normal;font-style:normal;font-weight:normal;text-anchor:middle;" transform="rotate(-0, 221.4, 346.619375)" x="221.4" y="346.619375">anesthesia.maintenance</text>
    </g>
   </g>
   <g id="matplotlib.axis_2">
    <g id="ytick_1">
     <g id="line2d_7">
      <defs>
       <path d="M 0 0 
L -3.5 0 
" id="m6ecbf00c83" style="stroke:#000000;stroke-width:0.8;"/>
      </defs>
      <g>
       <use style="stroke:#000000;stroke-width:0.8;" x="54" xlink:href="#m6ecbf00c83" y="252"/>
      </g>
     </g>
     <g id="text_8">
      <text style="font-family:DejaVu Sans;font-size:6px;font-stretch:normal;font-style:normal;font-weight:normal;text-anchor:end;" transform="rotate(-0, 47, 254.279531)" x="47" y="254.279531">0.0</text>
     </g>
    </g>
    <g id="ytick_2">
     <g id="line2d_8">
      <g>
       <use style="stroke:#000000;stroke-width:0.8;" x="54" xlink:href="#m6ecbf00c83" y="210.582857"/>
      </g>
     </g>
     <g id="text_9">
      <text style="font-family:DejaVu Sans;font-size:6px;font-stretch:normal;font-style:normal;font-weight:normal;text-anchor:end;" transform="rotate(-0, 47, 212.862388)" x="47" y="212.862388">0.2</text>
     </g>
    </g>
    <g id="ytick_3">
     <g id="line2d_9">
      <g>
       <use style="stroke:#000000;stroke-width:0.8;" x="54" xlink:href="#m6ecbf00c83" y="169.165714"/>
      </g>
     </g>
     <g id="text_10">
      <text style="font-family:DejaVu Sans;font-size:6px;font-stretch:normal;font-style:normal;font-weight:normal;text-anchor:end;" transform="rotate(-0, 47, 171.445246)" x="47" y="171.445246">0.4</text>
     </g>
    </g>
    <g id="ytick_4">
     <g id="line2d_10">
      <g>
       <use style="stroke:#000000;stroke-width:0.8;" x="54" xlink:href="#m6ecbf00c83" y="127.748571"/>
      </g>
     </g>
     <g id="text_11">
      <text style="font-family:DejaVu Sans;font-size:6px;font-stretch:normal;font-style:normal;font-weight:normal;text-anchor:end;" transform="rotate(-0, 47, 130.028103)" x="47" y="130.028103">0.6</text>
     </g>
    </g>
    <g id="ytick_5">
     <g id="line2d_11">
      <g>
       <use style="stroke:#000000;stroke-width:0.8;" x="54" xlink:href="#m6ecbf00c83" y="86.331429"/>
      </g>
     </g>
     <g id="text_12">
      <text style="font-family:DejaVu Sans;font-size:6px;font-stretch:normal;font-style:normal;font-weight:normal;text-anchor:end;" transform="rotate(-0, 47, 88.61096)" x="47" y="88.61096">0.8</text>
     </g>
    </g>
    <g id="ytick_6">
     <g id="line2d_12">
      <g>
       <use style="stroke:#000000;stroke-width:0.8;" x="54" xlink:href="#m6ecbf00c83" y="44.914286"/>
      </g>
     </g>
     <g id="text_13">
      <text style="font-family:DejaVu Sans;font-size:6px;font-stretch:normal;font-style:normal;font-weight:normal;text-anchor:end;" transform="rotate(-0, 47, 47.193817)" x="47" y="47.193817">1.0</text>
     </g>
    </g>
   </g>
   <g id="patch_27">
    <path d="M 54 252 
L 54 34.56 
" style="fill:none;stroke:#000000;stroke-linecap:square;stroke-linejoin:miter;stroke-width:0.8;"/>
   </g>
   <g id="patch_28">
    <path d="M 388.8 252 
L 388.8 34.56 
" style="fill:none;stroke:#000000;stroke-linecap:square;stroke-linejoin:miter;stroke-width:0.8;"/>
   </g>
   <g id="patch_29">
    <path d="M 54 252 
L 388.8 252 
" style="fill:none;stroke:#000000;stroke-linecap:square;stroke-linejoin:miter;stroke-width:0.8;"/>
   </g>
   <g id="patch_30">
    <path d="M 54 34.56 
L 388.8 34.56 
" style="fill:none;stroke:#000000;stroke-linecap:square;stroke-linejoin:miter;stroke-width:0.8;"/>
   </g>
   <g id="legend_1">
    <g id="patch_31">
     <path d="M 334.535625 83.56125 
L 384.6 83.56125 
Q 385.8 83.56125 385.8 82.36125 
L 385.8 38.76 
Q 385.8 37.56 384.6 37.56 
L 334.535625 37.56 
Q 333.335625 37.56 333.335625 38.76 
L 333.335625 82.36125 
Q 333.335625 83.56125 334.535625 83.56125 
z
" style="fill:#ffffff;opacity:0.8;stroke:#cccccc;stroke-linejoin:miter;"/>
    </g>
    <g id="text_14">
     <text style="font-family:DejaVu Sans;font-size:6px;font-stretch:normal;font-style:normal;font-weight:normal;text-anchor:start;" transform="rotate(-0, 337.253437, 44.519062)" x="337.253437" y="44.519062">GSRs_S1bf_cat</text>
    </g>
    <g id="patch_32">
     <path d="M 335.735625 53.492812 
L 347.735625 53.492812 
L 347.735625 49.292812 
L 335.735625 49.292812 
z
" style="fill:#0173b2;"/>
    </g>
    <g id="text_15">
     <text style="font-family:DejaVu Sans;font-size:6px;font-stretch:normal;font-style:normal;font-weight:normal;text-anchor:start;" transform="rotate(-0, 352.535625, 53.492812)" x="352.535625" y="53.492812">Specific</text>
    </g>
    <g id="patch_33">
     <path d="M 335.735625 62.299687 
L 347.735625 62.299687 
L 347.735625 58.099687 
L 335.735625 58.099687 
z
" style="fill:#de8f05;"/>
    </g>
    <g id="text_16">
     <text style="font-family:DejaVu Sans;font-size:6px;font-stretch:normal;font-style:normal;font-weight:normal;text-anchor:start;" transform="rotate(-0, 352.535625, 62.299687)" x="352.535625" y="62.299687">Spurious</text>
    </g>
    <g id="patch_34">
     <path d="M 335.735625 71.106562 
L 347.735625 71.106562 
L 347.735625 66.906562 
L 335.735625 66.906562 
z
" style="fill:#029e73;"/>
    </g>
    <g id="text_17">
     <text style="font-family:DejaVu Sans;font-size:6px;font-stretch:normal;font-style:normal;font-weight:normal;text-anchor:start;" transform="rotate(-0, 352.535625, 71.106562)" x="352.535625" y="71.106562">Unspecific</text>
    </g>
    <g id="patch_35">
     <path d="M 335.735625 79.913437 
L 347.735625 79.913437 
L 347.735625 75.713437 
L 335.735625 75.713437 
z
" style="fill:#d55e00;"/>
    </g>
    <g id="text_18">
     <text style="font-family:DejaVu Sans;font-size:6px;font-stretch:normal;font-style:normal;font-weight:normal;text-anchor:start;" transform="rotate(-0, 352.535625, 79.913437)" x="352.535625" y="79.913437">No</text>
    </g>
   </g>
  </g>
 </g>
 <defs>
  <clipPath id="p894d73623b">
   <rect height="217.44" width="334.8" x="54" y="34.56"/>
  </clipPath>
 </defs>
</svg>
