<?xml version="1.0" encoding="utf-8" standalone="no"?>
<!DOCTYPE svg PUBLIC "-//W3C//DTD SVG 1.1//EN"
  "http://www.w3.org/Graphics/SVG/1.1/DTD/svg11.dtd">
<svg height="288pt" version="1.1" viewBox="0 0 432 288" width="432pt" xmlns="http://www.w3.org/2000/svg" xmlns:xlink="http://www.w3.org/1999/xlink">
 <metadata>
  <rdf:RDF xmlns:cc="http://creativecommons.org/ns#" xmlns:dc="http://purl.org/dc/elements/1.1/" xmlns:rdf="http://www.w3.org/1999/02/22-rdf-syntax-ns#">
   <cc:Work>
    <dc:type rdf:resource="http://purl.org/dc/dcmitype/StillImage"/>
    <dc:date>2021-12-30T10:52:47.625109</dc:date>
    <dc:format>image/svg+xml</dc:format>
    <dc:creator>
     <cc:Agent>
      <dc:title>Matplotlib v3.4.1, https://matplotlib.org/</dc:title>
     </cc:Agent>
    </dc:creator>
   </cc:Work>
  </rdf:RDF>
 </metadata>
 <defs>
  <style type="text/css">*{stroke-linecap:butt;stroke-linejoin:round;}</style>
 </defs>
 <g id="figure_1">
  <g id="patch_1">
   <path d="M 0 288 
L 432 288 
L 432 0 
L 0 0 
z
" style="fill:none;"/>
  </g>
  <g id="axes_1">
   <g id="patch_2">
    <path d="M 308.376 143.28 
C 308.376 133.362269 306.679646 123.517208 303.360439 114.171393 
C 300.041232 104.825578 295.147814 96.115968 288.892211 88.419941 
L 221.4 143.28 
L 308.376 143.28 
z
" style="fill:#0173b2;"/>
   </g>
   <g id="patch_3">
    <path d="M 288.892211 88.419941 
C 278.406195 75.519401 264.438058 65.891819 248.650398 60.683145 
C 232.862738 55.474472 215.907826 54.899906 199.803768 59.027835 
C 183.69971 63.155764 169.111849 71.815643 157.776548 83.976704 
C 146.441246 96.137766 138.826824 111.297573 135.83961 127.651687 
L 221.4 143.28 
L 288.892211 88.419941 
z
" style="fill:#de8f05;"/>
   </g>
   <g id="patch_4">
    <path d="M 135.83961 127.651687 
C 132.905712 143.713909 134.553299 160.282291 140.592969 175.452166 
C 146.632638 190.622042 156.823732 203.788949 169.994703 213.439248 
C 183.165674 223.089546 198.791709 228.838708 215.076472 230.025822 
C 231.361234 231.212935 247.655839 227.790699 262.087091 220.152526 
L 221.4 143.28 
L 135.83961 127.651687 
z
" style="fill:#029e73;"/>
   </g>
   <g id="patch_5">
    <path d="M 262.087091 220.152526 
C 276.059825 212.757037 287.755308 201.690001 295.910486 188.146603 
C 304.065664 174.603205 308.376 159.089192 308.376 143.28 
L 221.4 143.28 
L 262.087091 220.152526 
z
" style="fill:#d55e00;"/>
   </g>
   <g id="matplotlib.axis_1"/>
   <g id="matplotlib.axis_2"/>
   <g id="text_1">
    <text style="font-family:DejaVu Sans;font-size:6px;font-stretch:normal;font-style:normal;font-weight:normal;text-anchor:middle;" transform="rotate(-0, 270.576263, 127.470461)" x="270.576263" y="127.470461">10.9%</text>
   </g>
   <g id="text_2">
    <text style="font-family:DejaVu Sans;font-size:6px;font-stretch:normal;font-style:normal;font-weight:normal;text-anchor:middle;" transform="rotate(-0, 208.442261, 94.384326)" x="208.442261" y="94.384326">36.3%</text>
   </g>
   <g id="text_3">
    <text style="font-family:DejaVu Sans;font-size:6px;font-stretch:normal;font-style:normal;font-weight:normal;text-anchor:middle;" transform="rotate(-0, 190.556822, 187.031174)" x="190.556822" y="187.031174">35.6%</text>
   </g>
   <g id="text_4">
    <text style="font-family:DejaVu Sans;font-size:6px;font-stretch:normal;font-style:normal;font-weight:normal;text-anchor:middle;" transform="rotate(-0, 266.106292, 171.855587)" x="266.106292" y="171.855587">17.3%</text>
   </g>
  </g>
 </g>
</svg>
