<?xml version="1.0" encoding="utf-8" standalone="no"?>
<!DOCTYPE svg PUBLIC "-//W3C//DTD SVG 1.1//EN"
  "http://www.w3.org/Graphics/SVG/1.1/DTD/svg11.dtd">
<svg height="288pt" version="1.1" viewBox="0 0 432 288" width="432pt" xmlns="http://www.w3.org/2000/svg" xmlns:xlink="http://www.w3.org/1999/xlink">
 <metadata>
  <rdf:RDF xmlns:cc="http://creativecommons.org/ns#" xmlns:dc="http://purl.org/dc/elements/1.1/" xmlns:rdf="http://www.w3.org/1999/02/22-rdf-syntax-ns#">
   <cc:Work>
    <dc:type rdf:resource="http://purl.org/dc/dcmitype/StillImage"/>
    <dc:date>2022-04-15T14:44:26.637529</dc:date>
    <dc:format>image/svg+xml</dc:format>
    <dc:creator>
     <cc:Agent>
      <dc:title>Matplotlib v3.4.1, https://matplotlib.org/</dc:title>
     </cc:Agent>
    </dc:creator>
   </cc:Work>
  </rdf:RDF>
 </metadata>
 <defs>
  <style type="text/css">*{stroke-linecap:butt;stroke-linejoin:round;}</style>
 </defs>
 <g id="figure_1">
  <g id="patch_1">
   <path d="M 0 288 
L 432 288 
L 432 0 
L 0 0 
z
" style="fill:none;"/>
  </g>
  <g id="axes_1">
   <g id="patch_2">
    <path d="M 308.376 143.28 
C 308.376 125.08859 302.668781 107.347603 292.062207 92.568294 
C 281.455632 77.788985 266.474943 66.703231 249.240673 60.880233 
C 232.006402 55.057235 213.371997 54.78535 195.975177 60.103062 
C 178.578358 65.420775 163.280621 76.064751 152.247378 90.528323 
L 221.4 143.28 
L 308.376 143.28 
z
" style="fill:#0173b2;"/>
   </g>
   <g id="patch_3">
    <path d="M 152.247378 90.528323 
C 142.785227 102.932337 136.832495 117.656699 135.015744 133.151578 
C 133.198993 148.646456 135.584283 164.348439 141.920546 178.604793 
C 148.256809 192.861146 158.313652 205.153493 171.032527 214.187985 
C 183.751403 223.222477 198.669839 228.670609 214.217574 229.958932 
L 221.4 143.28 
L 152.247378 90.528323 
z
" style="fill:#de8f05;"/>
   </g>
   <g id="patch_4">
    <path d="M 214.217574 229.958932 
C 225.493763 230.893305 236.844681 229.618357 247.632609 226.205719 
C 258.420537 222.79308 268.43959 217.30788 277.126875 210.05829 
L 221.4 143.28 
L 214.217574 229.958932 
z
" style="fill:#029e73;"/>
   </g>
   <g id="patch_5">
    <path d="M 277.126875 210.05829 
C 283.633426 204.628534 289.311612 198.276864 293.981181 191.204907 
C 298.650751 184.13295 302.261765 176.416339 304.699595 168.300032 
L 221.4 143.28 
L 277.126875 210.05829 
z
" style="fill:#d55e00;"/>
   </g>
   <g id="patch_6">
    <path d="M 304.699595 168.300032 
C 305.916895 164.247255 306.836804 160.111039 307.45199 155.924349 
C 308.067176 151.73766 308.376 147.511651 308.376 143.280006 
L 221.4 143.28 
L 304.699595 168.300032 
z
" style="fill:#cc78bc;"/>
   </g>
   <g id="matplotlib.axis_1"/>
   <g id="matplotlib.axis_2"/>
   <g id="text_1">
    <text style="font-family:DejaVu Sans;font-size:6px;font-stretch:normal;font-style:normal;font-weight:normal;text-anchor:middle;" transform="rotate(-0, 238.104404, 95.495765)" x="238.104404" y="95.495765">39.6%</text>
   </g>
   <g id="text_2">
    <text style="font-family:DejaVu Sans;font-size:6px;font-stretch:normal;font-style:normal;font-weight:normal;text-anchor:middle;" transform="rotate(-0, 173.712328, 166.130501)" x="173.712328" y="166.130501">34.1%</text>
   </g>
   <g id="text_3">
    <text style="font-family:DejaVu Sans;font-size:6px;font-stretch:normal;font-style:normal;font-weight:normal;text-anchor:middle;" transform="rotate(-0, 237.139565, 194.691056)" x="237.139565" y="194.691056">12.4%</text>
   </g>
   <g id="text_4">
    <text style="font-family:DejaVu Sans;font-size:6px;font-stretch:normal;font-style:normal;font-weight:normal;text-anchor:middle;" transform="rotate(-0, 264.948709, 173.690569)" x="264.948709" y="173.690569">9.3%</text>
   </g>
   <g id="text_5">
    <text style="font-family:DejaVu Sans;font-size:6px;font-stretch:normal;font-style:normal;font-weight:normal;text-anchor:middle;" transform="rotate(-0, 273.031194, 152.522235)" x="273.031194" y="152.522235">4.6%</text>
   </g>
  </g>
 </g>
</svg>
