<?xml version="1.0" encoding="utf-8" standalone="no"?>
<!DOCTYPE svg PUBLIC "-//W3C//DTD SVG 1.1//EN"
  "http://www.w3.org/Graphics/SVG/1.1/DTD/svg11.dtd">
<svg height="288pt" version="1.1" viewBox="0 0 432 288" width="432pt" xmlns="http://www.w3.org/2000/svg" xmlns:xlink="http://www.w3.org/1999/xlink">
 <metadata>
  <rdf:RDF xmlns:cc="http://creativecommons.org/ns#" xmlns:dc="http://purl.org/dc/elements/1.1/" xmlns:rdf="http://www.w3.org/1999/02/22-rdf-syntax-ns#">
   <cc:Work>
    <dc:type rdf:resource="http://purl.org/dc/dcmitype/StillImage"/>
    <dc:date>2021-12-30T10:40:17.758119</dc:date>
    <dc:format>image/svg+xml</dc:format>
    <dc:creator>
     <cc:Agent>
      <dc:title>Matplotlib v3.4.1, https://matplotlib.org/</dc:title>
     </cc:Agent>
    </dc:creator>
   </cc:Work>
  </rdf:RDF>
 </metadata>
 <defs>
  <style type="text/css">*{stroke-linecap:butt;stroke-linejoin:round;}</style>
 </defs>
 <g id="figure_1">
  <g id="patch_1">
   <path d="M 0 288 
L 432 288 
L 432 0 
L 0 0 
z
" style="fill:none;"/>
  </g>
  <g id="axes_1">
   <g id="patch_2">
    <path d="M 308.376 143.28 
C 308.376 124.13094 302.052075 105.507604 290.391714 90.318052 
C 278.731354 75.1285 262.374811 64.206769 243.876185 59.258302 
C 225.377558 54.309836 205.752581 55.606348 188.06572 62.945385 
C 170.37886 70.284422 155.601277 83.26301 146.040512 99.854522 
L 221.4 143.28 
L 308.376 143.28 
z
" style="fill:#0173b2;"/>
   </g>
   <g id="patch_3">
    <path d="M 146.040512 99.854522 
C 139.964808 110.398146 136.168943 122.100441 134.898956 134.202892 
C 133.628968 146.305343 134.912903 158.540694 138.667538 170.115879 
C 142.422174 181.691063 148.564597 192.350469 156.696672 201.403179 
C 164.828747 210.455889 174.770892 217.701993 185.878684 222.671818 
L 221.4 143.28 
L 146.040512 99.854522 
z
" style="fill:#de8f05;"/>
   </g>
   <g id="patch_4">
    <path d="M 185.878684 222.671818 
C 197.786228 227.999465 210.741216 230.580563 223.78138 230.223393 
C 236.821544 229.866223 249.615822 226.579853 261.213883 220.608386 
L 221.4 143.28 
L 185.878684 222.671818 
z
" style="fill:#029e73;"/>
   </g>
   <g id="patch_5">
    <path d="M 261.213883 220.608386 
C 271.514331 215.305019 280.652072 207.996624 288.089295 199.113345 
C 295.526519 190.230067 301.114396 179.949669 304.524046 168.877216 
L 221.4 143.28 
L 261.213883 220.608386 
z
" style="fill:#d55e00;"/>
   </g>
   <g id="patch_6">
    <path d="M 304.524046 168.877216 
C 305.79906 164.736753 306.762936 160.506807 307.407621 156.222712 
C 308.052305 151.938616 308.376 147.612333 308.376 143.280002 
L 221.4 143.28 
L 304.524046 168.877216 
z
" style="fill:#cc78bc;"/>
   </g>
   <g id="matplotlib.axis_1"/>
   <g id="matplotlib.axis_2"/>
   <g id="text_1">
    <text style="font-family:DejaVu Sans;font-size:6px;font-stretch:normal;font-style:normal;font-weight:normal;text-anchor:middle;" transform="rotate(-0, 234.885711, 94.522606)" x="234.885711" y="94.522606">41.7%</text>
   </g>
   <g id="text_2">
    <text style="font-family:DejaVu Sans;font-size:6px;font-stretch:normal;font-style:normal;font-weight:normal;text-anchor:middle;" transform="rotate(-0, 171.760523, 161.037152)" x="171.760523" y="161.037152">26.6%</text>
   </g>
   <g id="text_3">
    <text style="font-family:DejaVu Sans;font-size:6px;font-stretch:normal;font-style:normal;font-weight:normal;text-anchor:middle;" transform="rotate(-0, 222.828828, 197.101661)" x="222.828828" y="197.101661">14.3%</text>
   </g>
   <g id="text_4">
    <text style="font-family:DejaVu Sans;font-size:6px;font-stretch:normal;font-style:normal;font-weight:normal;text-anchor:middle;" transform="rotate(-0, 261.413577, 178.435632)" x="261.413577" y="178.435632">12.7%</text>
   </g>
   <g id="text_5">
    <text style="font-family:DejaVu Sans;font-size:6px;font-stretch:normal;font-style:normal;font-weight:normal;text-anchor:middle;" transform="rotate(-0, 273.004572, 152.701252)" x="273.004572" y="152.701252">4.8%</text>
   </g>
  </g>
 </g>
</svg>
