<?xml version="1.0" encoding="utf-8" standalone="no"?>
<!DOCTYPE svg PUBLIC "-//W3C//DTD SVG 1.1//EN"
  "http://www.w3.org/Graphics/SVG/1.1/DTD/svg11.dtd">
<svg height="288pt" version="1.1" viewBox="0 0 432 288" width="432pt" xmlns="http://www.w3.org/2000/svg" xmlns:xlink="http://www.w3.org/1999/xlink">
 <metadata>
  <rdf:RDF xmlns:cc="http://creativecommons.org/ns#" xmlns:dc="http://purl.org/dc/elements/1.1/" xmlns:rdf="http://www.w3.org/1999/02/22-rdf-syntax-ns#">
   <cc:Work>
    <dc:type rdf:resource="http://purl.org/dc/dcmitype/StillImage"/>
    <dc:date>2022-02-09T17:18:21.258853</dc:date>
    <dc:format>image/svg+xml</dc:format>
    <dc:creator>
     <cc:Agent>
      <dc:title>Matplotlib v3.4.1, https://matplotlib.org/</dc:title>
     </cc:Agent>
    </dc:creator>
   </cc:Work>
  </rdf:RDF>
 </metadata>
 <defs>
  <style type="text/css">*{stroke-linecap:butt;stroke-linejoin:round;}</style>
 </defs>
 <g id="figure_1">
  <g id="patch_1">
   <path d="M 0 288 
L 432 288 
L 432 0 
L 0 0 
z
" style="fill:none;"/>
  </g>
  <g id="axes_1">
   <g id="patch_2">
    <path d="M 54 252 
L 388.8 252 
L 388.8 34.56 
L 54 34.56 
z
" style="fill:#ffffff;"/>
   </g>
   <g id="PathCollection_1">
    <path clip-path="url(#p2f82d1ccef)" d="M 128.4 211.13356 
C 130.376707 211.13356 132.27272 210.348206 133.670463 208.950463 
C 135.068206 207.55272 135.85356 205.656707 135.85356 203.68 
C 135.85356 201.703293 135.068206 199.80728 133.670463 198.409537 
C 132.27272 197.011794 130.376707 196.22644 128.4 196.22644 
C 126.423293 196.22644 124.52728 197.011794 123.129537 198.409537 
C 121.731794 199.80728 120.94644 201.703293 120.94644 203.68 
C 120.94644 205.656707 121.731794 207.55272 123.129537 208.950463 
C 124.52728 210.348206 126.423293 211.13356 128.4 211.13356 
z
" style="fill:#2b758e;stroke:#2b758e;"/>
    <path clip-path="url(#p2f82d1ccef)" d="M 128.4 188.759364 
C 130.850308 188.759364 133.200588 187.785847 134.933217 186.053217 
C 136.665847 184.320588 137.639364 181.970308 137.639364 179.52 
C 137.639364 177.069692 136.665847 174.719412 134.933217 172.986783 
C 133.200588 171.254153 130.850308 170.280636 128.4 170.280636 
C 125.949692 170.280636 123.599412 171.254153 121.866783 172.986783 
C 120.134153 174.719412 119.160636 177.069692 119.160636 179.52 
C 119.160636 181.970308 120.134153 184.320588 121.866783 186.053217 
C 123.599412 187.785847 125.949692 188.759364 128.4 188.759364 
z
" style="fill:#a5db36;stroke:#a5db36;"/>
    <path clip-path="url(#p2f82d1ccef)" d="M 128.4 164.879716 
C 130.924658 164.879716 133.346253 163.876659 135.131456 162.091456 
C 136.916659 160.306253 137.919716 157.884658 137.919716 155.36 
C 137.919716 152.835342 136.916659 150.413747 135.131456 148.628544 
C 133.346253 146.843341 130.924658 145.840284 128.4 145.840284 
C 125.875342 145.840284 123.453747 146.843341 121.668544 148.628544 
C 119.883341 150.413747 118.880284 152.835342 118.880284 155.36 
C 118.880284 157.884658 119.883341 160.306253 121.668544 162.091456 
C 123.453747 163.876659 125.875342 164.879716 128.4 164.879716 
z
" style="fill:#dfe318;stroke:#dfe318;"/>
    <path clip-path="url(#p2f82d1ccef)" d="M 128.4 140.882458 
C 130.967818 140.882458 133.43081 139.862253 135.246532 138.046532 
C 137.062253 136.23081 138.082458 133.767818 138.082458 131.2 
C 138.082458 128.632182 137.062253 126.16919 135.246532 124.353468 
C 133.43081 122.537747 130.967818 121.517542 128.4 121.517542 
C 125.832182 121.517542 123.36919 122.537747 121.553468 124.353468 
C 119.737747 126.16919 118.717542 128.632182 118.717542 131.2 
C 118.717542 133.767818 119.737747 136.23081 121.553468 138.046532 
C 123.36919 139.862253 125.832182 140.882458 128.4 140.882458 
z
" style="fill:#fde725;stroke:#fde725;"/>
    <path clip-path="url(#p2f82d1ccef)" d="M 128.4 117.04 
C 131.052031 117.04 133.595799 115.986337 135.471068 114.111068 
C 137.346337 112.235799 138.4 109.692031 138.4 107.04 
C 138.4 104.387969 137.346337 101.844201 135.471068 99.968932 
C 133.595799 98.093663 131.052031 97.04 128.4 97.04 
C 125.747969 97.04 123.204201 98.093663 121.328932 99.968932 
C 119.453663 101.844201 118.4 104.387969 118.4 107.04 
C 118.4 109.692031 119.453663 112.235799 121.328932 114.111068 
C 123.204201 115.986337 125.747969 117.04 128.4 117.04 
z
" style="fill:#fde725;stroke:#fde725;"/>
    <path clip-path="url(#p2f82d1ccef)" d="M 128.4 94.06034 
C 131.365061 94.06034 134.20908 92.882309 136.305694 90.785694 
C 138.402309 88.68908 139.58034 85.845061 139.58034 82.88 
C 139.58034 79.914939 138.402309 77.07092 136.305694 74.974306 
C 134.20908 72.877691 131.365061 71.69966 128.4 71.69966 
C 125.434939 71.69966 122.59092 72.877691 120.494306 74.974306 
C 118.397691 77.07092 117.21966 79.914939 117.21966 82.88 
C 117.21966 85.845061 118.397691 88.68908 120.494306 90.785694 
C 122.59092 92.882309 125.434939 94.06034 128.4 94.06034 
z
" style="fill:#fde725;stroke:#fde725;"/>
    <path clip-path="url(#p2f82d1ccef)" d="M 190.4 131.2 
C 190.4 131.2 190.4 131.2 190.4 131.2 
C 190.4 131.2 190.4 131.2 190.4 131.2 
C 190.4 131.2 190.4 131.2 190.4 131.2 
C 190.4 131.2 190.4 131.2 190.4 131.2 
C 190.4 131.2 190.4 131.2 190.4 131.2 
C 190.4 131.2 190.4 131.2 190.4 131.2 
C 190.4 131.2 190.4 131.2 190.4 131.2 
C 190.4 131.2 190.4 131.2 190.4 131.2 
z
" style="fill:#440154;stroke:#440154;"/>
    <path clip-path="url(#p2f82d1ccef)" d="M 190.4 82.88 
C 190.4 82.88 190.4 82.88 190.4 82.88 
C 190.4 82.88 190.4 82.88 190.4 82.88 
C 190.4 82.88 190.4 82.88 190.4 82.88 
C 190.4 82.88 190.4 82.88 190.4 82.88 
C 190.4 82.88 190.4 82.88 190.4 82.88 
C 190.4 82.88 190.4 82.88 190.4 82.88 
C 190.4 82.88 190.4 82.88 190.4 82.88 
C 190.4 82.88 190.4 82.88 190.4 82.88 
z
" style="fill:#440154;stroke:#440154;"/>
    <path clip-path="url(#p2f82d1ccef)" d="M 190.4 184.458648 
C 191.709745 184.458648 192.966022 183.938281 193.892151 183.012151 
C 194.818281 182.086022 195.338648 180.829745 195.338648 179.52 
C 195.338648 178.210255 194.818281 176.953978 193.892151 176.027849 
C 192.966022 175.101719 191.709745 174.581352 190.4 174.581352 
C 189.090255 174.581352 187.833978 175.101719 186.907849 176.027849 
C 185.981719 176.953978 185.461352 178.210255 185.461352 179.52 
C 185.461352 180.829745 185.981719 182.086022 186.907849 183.012151 
C 187.833978 183.938281 189.090255 184.458648 190.4 184.458648 
z
" style="fill:#440154;stroke:#440154;"/>
    <path clip-path="url(#p2f82d1ccef)" d="M 190.4 112.04 
C 191.726016 112.04 192.997899 111.513168 193.935534 110.575534 
C 194.873168 109.637899 195.4 108.366016 195.4 107.04 
C 195.4 105.713985 194.873168 104.442101 193.935534 103.504466 
C 192.997899 102.566832 191.726016 102.04 190.4 102.04 
C 189.073984 102.04 187.802101 102.566832 186.864466 103.504466 
C 185.926832 104.442101 185.4 105.713985 185.4 107.04 
C 185.4 108.366016 185.926832 109.637899 186.864466 110.575534 
C 187.802101 111.513168 189.073984 112.04 190.4 112.04 
z
" style="fill:#440154;stroke:#440154;"/>
    <path clip-path="url(#p2f82d1ccef)" d="M 190.4 160.663301 
C 191.806452 160.663301 193.155488 160.104512 194.15 159.11 
C 195.144512 158.115488 195.703301 156.766452 195.703301 155.36 
C 195.703301 153.953548 195.144512 152.604512 194.15 151.61 
C 193.155488 150.615488 191.806452 150.056699 190.4 150.056699 
C 188.993548 150.056699 187.644512 150.615488 186.65 151.61 
C 185.655488 152.604512 185.096699 153.953548 185.096699 155.36 
C 185.096699 156.766452 185.655488 158.115488 186.65 159.11 
C 187.644512 160.104512 188.993548 160.663301 190.4 160.663301 
z
" style="fill:#440154;stroke:#440154;"/>
    <path clip-path="url(#p2f82d1ccef)" d="M 190.4 211.13356 
C 192.376707 211.13356 194.27272 210.348206 195.670463 208.950463 
C 197.068206 207.55272 197.85356 205.656707 197.85356 203.68 
C 197.85356 201.703293 197.068206 199.80728 195.670463 198.409537 
C 194.27272 197.011794 192.376707 196.22644 190.4 196.22644 
C 188.423293 196.22644 186.52728 197.011794 185.129537 198.409537 
C 183.731794 199.80728 182.94644 201.703293 182.94644 203.68 
C 182.94644 205.656707 183.731794 207.55272 185.129537 208.950463 
C 186.52728 210.348206 188.423293 211.13356 190.4 211.13356 
z
" style="fill:#2b758e;stroke:#2b758e;"/>
    <path clip-path="url(#p2f82d1ccef)" d="M 252.4 203.68 
C 252.4 203.68 252.4 203.68 252.4 203.68 
C 252.4 203.68 252.4 203.68 252.4 203.68 
C 252.4 203.68 252.4 203.68 252.4 203.68 
C 252.4 203.68 252.4 203.68 252.4 203.68 
C 252.4 203.68 252.4 203.68 252.4 203.68 
C 252.4 203.68 252.4 203.68 252.4 203.68 
C 252.4 203.68 252.4 203.68 252.4 203.68 
C 252.4 203.68 252.4 203.68 252.4 203.68 
z
" style="fill:#440154;stroke:#440154;"/>
    <path clip-path="url(#p2f82d1ccef)" d="M 252.4 155.36 
C 252.4 155.36 252.4 155.36 252.4 155.36 
C 252.4 155.36 252.4 155.36 252.4 155.36 
C 252.4 155.36 252.4 155.36 252.4 155.36 
C 252.4 155.36 252.4 155.36 252.4 155.36 
C 252.4 155.36 252.4 155.36 252.4 155.36 
C 252.4 155.36 252.4 155.36 252.4 155.36 
C 252.4 155.36 252.4 155.36 252.4 155.36 
C 252.4 155.36 252.4 155.36 252.4 155.36 
z
" style="fill:#440154;stroke:#440154;"/>
    <path clip-path="url(#p2f82d1ccef)" d="M 252.4 107.04 
C 252.4 107.04 252.4 107.04 252.4 107.04 
C 252.4 107.04 252.4 107.04 252.4 107.04 
C 252.4 107.04 252.4 107.04 252.4 107.04 
C 252.4 107.04 252.4 107.04 252.4 107.04 
C 252.4 107.04 252.4 107.04 252.4 107.04 
C 252.4 107.04 252.4 107.04 252.4 107.04 
C 252.4 107.04 252.4 107.04 252.4 107.04 
C 252.4 107.04 252.4 107.04 252.4 107.04 
z
" style="fill:#440154;stroke:#440154;"/>
    <path clip-path="url(#p2f82d1ccef)" d="M 252.4 82.88 
C 252.4 82.88 252.4 82.88 252.4 82.88 
C 252.4 82.88 252.4 82.88 252.4 82.88 
C 252.4 82.88 252.4 82.88 252.4 82.88 
C 252.4 82.88 252.4 82.88 252.4 82.88 
C 252.4 82.88 252.4 82.88 252.4 82.88 
C 252.4 82.88 252.4 82.88 252.4 82.88 
C 252.4 82.88 252.4 82.88 252.4 82.88 
C 252.4 82.88 252.4 82.88 252.4 82.88 
z
" style="fill:#440154;stroke:#440154;"/>
    <path clip-path="url(#p2f82d1ccef)" d="M 252.4 181.989324 
C 253.054872 181.989324 253.683011 181.72914 254.146076 181.266076 
C 254.60914 180.803011 254.869324 180.174872 254.869324 179.52 
C 254.869324 178.865128 254.60914 178.236989 254.146076 177.773924 
C 253.683011 177.31086 253.054872 177.050676 252.4 177.050676 
C 251.745128 177.050676 251.116989 177.31086 250.653924 177.773924 
C 250.19086 178.236989 249.930676 178.865128 249.930676 179.52 
C 249.930676 180.174872 250.19086 180.803011 250.653924 181.266076 
C 251.116989 181.72914 251.745128 181.989324 252.4 181.989324 
z
" style="fill:#440154;stroke:#440154;"/>
    <path clip-path="url(#p2f82d1ccef)" d="M 252.4 136.79017 
C 253.88253 136.79017 255.30454 136.201154 256.352847 135.152847 
C 257.401154 134.10454 257.99017 132.68253 257.99017 131.2 
C 257.99017 129.71747 257.401154 128.29546 256.352847 127.247153 
C 255.30454 126.198846 253.88253 125.60983 252.4 125.60983 
C 250.91747 125.60983 249.49546 126.198846 248.447153 127.247153 
C 247.398846 128.29546 246.80983 129.71747 246.80983 131.2 
C 246.80983 132.68253 247.398846 134.10454 248.447153 135.152847 
C 249.49546 136.201154 250.91747 136.79017 252.4 136.79017 
z
" style="fill:#440154;stroke:#440154;"/>
    <path clip-path="url(#p2f82d1ccef)" d="M 314.4 107.04 
C 314.4 107.04 314.4 107.04 314.4 107.04 
C 314.4 107.04 314.4 107.04 314.4 107.04 
C 314.4 107.04 314.4 107.04 314.4 107.04 
C 314.4 107.04 314.4 107.04 314.4 107.04 
C 314.4 107.04 314.4 107.04 314.4 107.04 
C 314.4 107.04 314.4 107.04 314.4 107.04 
C 314.4 107.04 314.4 107.04 314.4 107.04 
C 314.4 107.04 314.4 107.04 314.4 107.04 
z
" style="fill:#440154;stroke:#440154;"/>
    <path clip-path="url(#p2f82d1ccef)" d="M 314.4 131.2 
C 314.4 131.2 314.4 131.2 314.4 131.2 
C 314.4 131.2 314.4 131.2 314.4 131.2 
C 314.4 131.2 314.4 131.2 314.4 131.2 
C 314.4 131.2 314.4 131.2 314.4 131.2 
C 314.4 131.2 314.4 131.2 314.4 131.2 
C 314.4 131.2 314.4 131.2 314.4 131.2 
C 314.4 131.2 314.4 131.2 314.4 131.2 
C 314.4 131.2 314.4 131.2 314.4 131.2 
z
" style="fill:#440154;stroke:#440154;"/>
    <path clip-path="url(#p2f82d1ccef)" d="M 314.4 82.88 
C 314.4 82.88 314.4 82.88 314.4 82.88 
C 314.4 82.88 314.4 82.88 314.4 82.88 
C 314.4 82.88 314.4 82.88 314.4 82.88 
C 314.4 82.88 314.4 82.88 314.4 82.88 
C 314.4 82.88 314.4 82.88 314.4 82.88 
C 314.4 82.88 314.4 82.88 314.4 82.88 
C 314.4 82.88 314.4 82.88 314.4 82.88 
C 314.4 82.88 314.4 82.88 314.4 82.88 
z
" style="fill:#440154;stroke:#440154;"/>
    <path clip-path="url(#p2f82d1ccef)" d="M 314.4 157.86 
C 315.063008 157.86 315.69895 157.596584 316.167767 157.127767 
C 316.636584 156.65895 316.9 156.023008 316.9 155.36 
C 316.9 154.696992 316.636584 154.06105 316.167767 153.592233 
C 315.69895 153.123416 315.063008 152.86 314.4 152.86 
C 313.736992 152.86 313.10105 153.123416 312.632233 153.592233 
C 312.163416 154.06105 311.9 154.696992 311.9 155.36 
C 311.9 156.023008 312.163416 156.65895 312.632233 157.127767 
C 313.10105 157.596584 313.736992 157.86 314.4 157.86 
z
" style="fill:#440154;stroke:#440154;"/>
    <path clip-path="url(#p2f82d1ccef)" d="M 314.4 182.544292 
C 315.202052 182.544292 315.971361 182.225633 316.538497 181.658497 
C 317.105633 181.091361 317.424292 180.322052 317.424292 179.52 
C 317.424292 178.717948 317.105633 177.948639 316.538497 177.381503 
C 315.971361 176.814367 315.202052 176.495708 314.4 176.495708 
C 313.597948 176.495708 312.828639 176.814367 312.261503 177.381503 
C 311.694367 177.948639 311.375708 178.717948 311.375708 179.52 
C 311.375708 180.322052 311.694367 181.091361 312.261503 181.658497 
C 312.828639 182.225633 313.597948 182.544292 314.4 182.544292 
z
" style="fill:#440154;stroke:#440154;"/>
    <path clip-path="url(#p2f82d1ccef)" d="M 314.4 207.40678 
C 315.388354 207.40678 316.33636 207.014103 317.035231 206.315231 
C 317.734103 205.61636 318.12678 204.668354 318.12678 203.68 
C 318.12678 202.691646 317.734103 201.74364 317.035231 201.044769 
C 316.33636 200.345897 315.388354 199.95322 314.4 199.95322 
C 313.411646 199.95322 312.46364 200.345897 311.764769 201.044769 
C 311.065897 201.74364 310.67322 202.691646 310.67322 203.68 
C 310.67322 204.668354 311.065897 205.61636 311.764769 206.315231 
C 312.46364 207.014103 313.411646 207.40678 314.4 207.40678 
z
" style="fill:#440154;stroke:#440154;"/>
   </g>
   <g id="matplotlib.axis_1">
    <g id="xtick_1">
     <g id="line2d_1">
      <defs>
       <path d="M 0 0 
L 0 3.5 
" id="mdc47337d86" style="stroke:#000000;stroke-width:0.8;"/>
      </defs>
      <g>
       <use style="stroke:#000000;stroke-width:0.8;" x="128.4" xlink:href="#mdc47337d86" y="252"/>
      </g>
     </g>
     <g id="text_1">
      <text style="font-family:DejaVu Sans;font-size:6px;font-stretch:normal;font-style:normal;font-weight:normal;text-anchor:middle;" transform="rotate(-0, 128.4, 263.559062)" x="128.4" y="263.559062">Specific</text>
     </g>
    </g>
    <g id="xtick_2">
     <g id="line2d_2">
      <g>
       <use style="stroke:#000000;stroke-width:0.8;" x="190.4" xlink:href="#mdc47337d86" y="252"/>
      </g>
     </g>
     <g id="text_2">
      <text style="font-family:DejaVu Sans;font-size:6px;font-stretch:normal;font-style:normal;font-weight:normal;text-anchor:middle;" transform="rotate(-0, 190.4, 263.559062)" x="190.4" y="263.559062">No</text>
     </g>
    </g>
    <g id="xtick_3">
     <g id="line2d_3">
      <g>
       <use style="stroke:#000000;stroke-width:0.8;" x="252.4" xlink:href="#mdc47337d86" y="252"/>
      </g>
     </g>
     <g id="text_3">
      <text style="font-family:DejaVu Sans;font-size:6px;font-stretch:normal;font-style:normal;font-weight:normal;text-anchor:middle;" transform="rotate(-0, 252.4, 263.559062)" x="252.4" y="263.559062">Spurious</text>
     </g>
    </g>
    <g id="xtick_4">
     <g id="line2d_4">
      <g>
       <use style="stroke:#000000;stroke-width:0.8;" x="314.4" xlink:href="#mdc47337d86" y="252"/>
      </g>
     </g>
     <g id="text_4">
      <text style="font-family:DejaVu Sans;font-size:6px;font-stretch:normal;font-style:normal;font-weight:normal;text-anchor:middle;" transform="rotate(-0, 314.4, 263.559062)" x="314.4" y="263.559062">Unspecific</text>
     </g>
    </g>
   </g>
   <g id="matplotlib.axis_2">
    <g id="ytick_1">
     <g id="line2d_5">
      <defs>
       <path d="M 0 0 
L -3.5 0 
" id="m447e7b65fb" style="stroke:#000000;stroke-width:0.8;"/>
      </defs>
      <g>
       <use style="stroke:#000000;stroke-width:0.8;" x="54" xlink:href="#m447e7b65fb" y="203.68"/>
      </g>
     </g>
     <g id="text_5">
      <text style="font-family:DejaVu Sans;font-size:6px;font-stretch:normal;font-style:normal;font-weight:normal;text-anchor:end;" transform="rotate(-0, 47, 205.959531)" x="47" y="205.959531">(27.914, 42.333]</text>
     </g>
    </g>
    <g id="ytick_2">
     <g id="line2d_6">
      <g>
       <use style="stroke:#000000;stroke-width:0.8;" x="54" xlink:href="#m447e7b65fb" y="179.52"/>
      </g>
     </g>
     <g id="text_6">
      <text style="font-family:DejaVu Sans;font-size:6px;font-stretch:normal;font-style:normal;font-weight:normal;text-anchor:end;" transform="rotate(-0, 47, 181.799531)" x="47" y="181.799531">(56.667, 71.0]</text>
     </g>
    </g>
    <g id="ytick_3">
     <g id="line2d_7">
      <g>
       <use style="stroke:#000000;stroke-width:0.8;" x="54" xlink:href="#m447e7b65fb" y="155.36"/>
      </g>
     </g>
     <g id="text_7">
      <text style="font-family:DejaVu Sans;font-size:6px;font-stretch:normal;font-style:normal;font-weight:normal;text-anchor:end;" transform="rotate(-0, 47, 157.639531)" x="47" y="157.639531">(42.333, 56.667]</text>
     </g>
    </g>
    <g id="ytick_4">
     <g id="line2d_8">
      <g>
       <use style="stroke:#000000;stroke-width:0.8;" x="54" xlink:href="#m447e7b65fb" y="131.2"/>
      </g>
     </g>
     <g id="text_8">
      <text style="font-family:DejaVu Sans;font-size:6px;font-stretch:normal;font-style:normal;font-weight:normal;text-anchor:end;" transform="rotate(-0, 47, 133.479531)" x="47" y="133.479531">(85.333, 99.667]</text>
     </g>
    </g>
    <g id="ytick_5">
     <g id="line2d_9">
      <g>
       <use style="stroke:#000000;stroke-width:0.8;" x="54" xlink:href="#m447e7b65fb" y="107.04"/>
      </g>
     </g>
     <g id="text_9">
      <text style="font-family:DejaVu Sans;font-size:6px;font-stretch:normal;font-style:normal;font-weight:normal;text-anchor:end;" transform="rotate(-0, 47, 109.319531)" x="47" y="109.319531">(71.0, 85.333]</text>
     </g>
    </g>
    <g id="ytick_6">
     <g id="line2d_10">
      <g>
       <use style="stroke:#000000;stroke-width:0.8;" x="54" xlink:href="#m447e7b65fb" y="82.88"/>
      </g>
     </g>
     <g id="text_10">
      <text style="font-family:DejaVu Sans;font-size:6px;font-stretch:normal;font-style:normal;font-weight:normal;text-anchor:end;" transform="rotate(-0, 47, 85.159531)" x="47" y="85.159531">(99.667, 114.0]</text>
     </g>
    </g>
   </g>
   <g id="patch_3">
    <path d="M 54 252 
L 54 34.56 
" style="fill:none;stroke:#000000;stroke-linecap:square;stroke-linejoin:miter;stroke-width:0.8;"/>
   </g>
   <g id="patch_4">
    <path d="M 388.8 252 
L 388.8 34.56 
" style="fill:none;stroke:#000000;stroke-linecap:square;stroke-linejoin:miter;stroke-width:0.8;"/>
   </g>
   <g id="patch_5">
    <path d="M 54 252 
L 388.8 252 
" style="fill:none;stroke:#000000;stroke-linecap:square;stroke-linejoin:miter;stroke-width:0.8;"/>
   </g>
   <g id="patch_6">
    <path d="M 54 34.56 
L 388.8 34.56 
" style="fill:none;stroke:#000000;stroke-linecap:square;stroke-linejoin:miter;stroke-width:0.8;"/>
   </g>
  </g>
 </g>
 <defs>
  <clipPath id="p2f82d1ccef">
   <rect height="217.44" width="334.8" x="54" y="34.56"/>
  </clipPath>
 </defs>
</svg>
