<?xml version="1.0" encoding="utf-8" standalone="no"?>
<!DOCTYPE svg PUBLIC "-//W3C//DTD SVG 1.1//EN"
  "http://www.w3.org/Graphics/SVG/1.1/DTD/svg11.dtd">
<svg height="288pt" version="1.1" viewBox="0 0 432 288" width="432pt" xmlns="http://www.w3.org/2000/svg" xmlns:xlink="http://www.w3.org/1999/xlink">
 <metadata>
  <rdf:RDF xmlns:cc="http://creativecommons.org/ns#" xmlns:dc="http://purl.org/dc/elements/1.1/" xmlns:rdf="http://www.w3.org/1999/02/22-rdf-syntax-ns#">
   <cc:Work>
    <dc:type rdf:resource="http://purl.org/dc/dcmitype/StillImage"/>
    <dc:date>2022-02-09T17:18:29.453722</dc:date>
    <dc:format>image/svg+xml</dc:format>
    <dc:creator>
     <cc:Agent>
      <dc:title>Matplotlib v3.4.1, https://matplotlib.org/</dc:title>
     </cc:Agent>
    </dc:creator>
   </cc:Work>
  </rdf:RDF>
 </metadata>
 <defs>
  <style type="text/css">*{stroke-linecap:butt;stroke-linejoin:round;}</style>
 </defs>
 <g id="figure_1">
  <g id="patch_1">
   <path d="M 0 288 
L 432 288 
L 432 0 
L 0 0 
z
" style="fill:none;"/>
  </g>
  <g id="axes_1">
   <g id="patch_2">
    <path d="M 54 252 
L 388.8 252 
L 388.8 34.56 
L 54 34.56 
z
" style="fill:#ffffff;"/>
   </g>
   <g id="PathCollection_1">
    <path clip-path="url(#p2a04122555)" d="M 128.4 210.134972 
C 130.111879 210.134972 131.753874 209.454836 132.964355 208.244355 
C 134.174836 207.033874 134.854972 205.391879 134.854972 203.68 
C 134.854972 201.968121 134.174836 200.326126 132.964355 199.115645 
C 131.753874 197.905164 130.111879 197.225028 128.4 197.225028 
C 126.688121 197.225028 125.046126 197.905164 123.835645 199.115645 
C 122.625164 200.326126 121.945028 201.968121 121.945028 203.68 
C 121.945028 205.391879 122.625164 207.033874 123.835645 208.244355 
C 125.046126 209.454836 126.688121 210.134972 128.4 210.134972 
z
" style="fill:#443983;stroke:#443983;"/>
    <path clip-path="url(#p2a04122555)" d="M 128.4 188.180254 
C 130.696726 188.180254 132.899694 187.267755 134.523724 185.643724 
C 136.147755 184.019694 137.060254 181.816726 137.060254 179.52 
C 137.060254 177.223274 136.147755 175.020306 134.523724 173.396276 
C 132.899694 171.772245 130.696726 170.859746 128.4 170.859746 
C 126.103274 170.859746 123.900306 171.772245 122.276276 173.396276 
C 120.652245 175.020306 119.739746 177.223274 119.739746 179.52 
C 119.739746 181.816726 120.652245 184.019694 122.276276 185.643724 
C 123.900306 187.267755 126.103274 188.180254 128.4 188.180254 
z
" style="fill:#44bf70;stroke:#44bf70;"/>
    <path clip-path="url(#p2a04122555)" d="M 128.4 164.020254 
C 130.696726 164.020254 132.899694 163.107755 134.523724 161.483724 
C 136.147755 159.859694 137.060254 157.656726 137.060254 155.36 
C 137.060254 153.063274 136.147755 150.860306 134.523724 149.236276 
C 132.899694 147.612245 130.696726 146.699746 128.4 146.699746 
C 126.103274 146.699746 123.900306 147.612245 122.276276 149.236276 
C 120.652245 150.860306 119.739746 153.063274 119.739746 155.36 
C 119.739746 157.656726 120.652245 159.859694 122.276276 161.483724 
C 123.900306 163.107755 126.103274 164.020254 128.4 164.020254 
z
" style="fill:#44bf70;stroke:#44bf70;"/>
    <path clip-path="url(#p2a04122555)" d="M 128.4 139.860254 
C 130.696726 139.860254 132.899694 138.947755 134.523724 137.323724 
C 136.147755 135.699694 137.060254 133.496726 137.060254 131.2 
C 137.060254 128.903274 136.147755 126.700306 134.523724 125.076276 
C 132.899694 123.452245 130.696726 122.539746 128.4 122.539746 
C 126.103274 122.539746 123.900306 123.452245 122.276276 125.076276 
C 120.652245 126.700306 119.739746 128.903274 119.739746 131.2 
C 119.739746 133.496726 120.652245 135.699694 122.276276 137.323724 
C 123.900306 138.947755 126.103274 139.860254 128.4 139.860254 
z
" style="fill:#44bf70;stroke:#44bf70;"/>
    <path clip-path="url(#p2a04122555)" d="M 128.4 116.044503 
C 130.788022 116.044503 133.078559 115.095732 134.767145 113.407145 
C 136.455732 111.718559 137.404503 109.428022 137.404503 107.04 
C 137.404503 104.651978 136.455732 102.361441 134.767145 100.672855 
C 133.078559 98.984268 130.788022 98.035497 128.4 98.035497 
C 126.011978 98.035497 123.721441 98.984268 122.032855 100.672855 
C 120.344268 102.361441 119.395497 104.651978 119.395497 107.04 
C 119.395497 109.428022 120.344268 111.718559 122.032855 113.407145 
C 123.721441 115.095732 126.011978 116.044503 128.4 116.044503 
z
" style="fill:#7ad151;stroke:#7ad151;"/>
    <path clip-path="url(#p2a04122555)" d="M 128.4 92.699805 
C 131.004243 92.699805 133.502173 91.665128 135.343651 89.823651 
C 137.185128 87.982173 138.219805 85.484243 138.219805 82.88 
C 138.219805 80.275757 137.185128 77.777827 135.343651 75.936349 
C 133.502173 74.094872 131.004243 73.060195 128.4 73.060195 
C 125.795757 73.060195 123.297827 74.094872 121.456349 75.936349 
C 119.614872 77.777827 118.580195 80.275757 118.580195 82.88 
C 118.580195 85.484243 119.614872 87.982173 121.456349 89.823651 
C 123.297827 91.665128 125.795757 92.699805 128.4 92.699805 
z
" style="fill:#fde725;stroke:#fde725;"/>
    <path clip-path="url(#p2a04122555)" d="M 190.4 87.88 
C 191.726016 87.88 192.997899 87.353168 193.935534 86.415534 
C 194.873168 85.477899 195.4 84.206015 195.4 82.88 
C 195.4 81.553984 194.873168 80.282101 193.935534 79.344466 
C 192.997899 78.406832 191.726016 77.88 190.4 77.88 
C 189.073984 77.88 187.802101 78.406832 186.864466 79.344466 
C 185.926832 80.282101 185.4 81.553984 185.4 82.88 
C 185.4 84.206015 185.926832 85.477899 186.864466 86.415534 
C 187.802101 87.353168 189.073984 87.88 190.4 87.88 
z
" style="fill:#440154;stroke:#440154;"/>
    <path clip-path="url(#p2a04122555)" d="M 190.4 160.36 
C 191.726016 160.36 192.997899 159.833168 193.935534 158.895534 
C 194.873168 157.957899 195.4 156.686016 195.4 155.36 
C 195.4 154.033985 194.873168 152.762101 193.935534 151.824466 
C 192.997899 150.886832 191.726016 150.36 190.4 150.36 
C 189.073984 150.36 187.802101 150.886832 186.864466 151.824466 
C 185.926832 152.762101 185.4 154.033985 185.4 155.36 
C 185.4 156.686016 185.926832 157.957899 186.864466 158.895534 
C 187.802101 159.833168 189.073984 160.36 190.4 160.36 
z
" style="fill:#440154;stroke:#440154;"/>
    <path clip-path="url(#p2a04122555)" d="M 190.4 136.2 
C 191.726016 136.2 192.997899 135.673168 193.935534 134.735534 
C 194.873168 133.797899 195.4 132.526015 195.4 131.2 
C 195.4 129.873984 194.873168 128.602101 193.935534 127.664466 
C 192.997899 126.726832 191.726016 126.2 190.4 126.2 
C 189.073984 126.2 187.802101 126.726832 186.864466 127.664466 
C 185.926832 128.602101 185.4 129.873984 185.4 131.2 
C 185.4 132.526015 185.926832 133.797899 186.864466 134.735534 
C 187.802101 135.673168 189.073984 136.2 190.4 136.2 
z
" style="fill:#440154;stroke:#440154;"/>
    <path clip-path="url(#p2a04122555)" d="M 190.4 112.55411 
C 191.862359 112.55411 193.26502 111.973108 194.299064 110.939064 
C 195.333108 109.90502 195.91411 108.502359 195.91411 107.04 
C 195.91411 105.577641 195.333108 104.17498 194.299064 103.140936 
C 193.26502 102.106892 191.862359 101.52589 190.4 101.52589 
C 188.937641 101.52589 187.53498 102.106892 186.500936 103.140936 
C 185.466892 104.17498 184.88589 105.577641 184.88589 107.04 
C 184.88589 108.502359 185.466892 109.90502 186.500936 110.939064 
C 187.53498 111.973108 188.937641 112.55411 190.4 112.55411 
z
" style="fill:#440154;stroke:#440154;"/>
    <path clip-path="url(#p2a04122555)" d="M 190.4 210.134972 
C 192.111879 210.134972 193.753874 209.454836 194.964355 208.244355 
C 196.174836 207.033874 196.854972 205.391879 196.854972 203.68 
C 196.854972 201.968121 196.174836 200.326126 194.964355 199.115645 
C 193.753874 197.905164 192.111879 197.225028 190.4 197.225028 
C 188.688121 197.225028 187.046126 197.905164 185.835645 199.115645 
C 184.625164 200.326126 183.945028 201.968121 183.945028 203.68 
C 183.945028 205.391879 184.625164 207.033874 185.835645 208.244355 
C 187.046126 209.454836 188.688121 210.134972 190.4 210.134972 
z
" style="fill:#443983;stroke:#443983;"/>
    <path clip-path="url(#p2a04122555)" d="M 190.4 186.591068 
C 192.275269 186.591068 194.073984 185.846016 195.4 184.52 
C 196.726016 183.193984 197.471068 181.395269 197.471068 179.52 
C 197.471068 177.644731 196.726016 175.846016 195.4 174.52 
C 194.073984 173.193984 192.275269 172.448932 190.4 172.448932 
C 188.524731 172.448932 186.726016 173.193984 185.4 174.52 
C 184.073984 175.846016 183.328932 177.644731 183.328932 179.52 
C 183.328932 181.395269 184.073984 183.193984 185.4 184.52 
C 186.726016 185.846016 188.524731 186.591068 190.4 186.591068 
z
" style="fill:#355f8d;stroke:#355f8d;"/>
    <path clip-path="url(#p2a04122555)" d="M 252.4 179.52 
C 252.4 179.52 252.4 179.52 252.4 179.52 
C 252.4 179.52 252.4 179.52 252.4 179.52 
C 252.4 179.52 252.4 179.52 252.4 179.52 
C 252.4 179.52 252.4 179.52 252.4 179.52 
C 252.4 179.52 252.4 179.52 252.4 179.52 
C 252.4 179.52 252.4 179.52 252.4 179.52 
C 252.4 179.52 252.4 179.52 252.4 179.52 
C 252.4 179.52 252.4 179.52 252.4 179.52 
z
" style="fill:#440154;stroke:#440154;"/>
    <path clip-path="url(#p2a04122555)" d="M 252.4 155.36 
C 252.4 155.36 252.4 155.36 252.4 155.36 
C 252.4 155.36 252.4 155.36 252.4 155.36 
C 252.4 155.36 252.4 155.36 252.4 155.36 
C 252.4 155.36 252.4 155.36 252.4 155.36 
C 252.4 155.36 252.4 155.36 252.4 155.36 
C 252.4 155.36 252.4 155.36 252.4 155.36 
C 252.4 155.36 252.4 155.36 252.4 155.36 
C 252.4 155.36 252.4 155.36 252.4 155.36 
z
" style="fill:#440154;stroke:#440154;"/>
    <path clip-path="url(#p2a04122555)" d="M 252.4 203.68 
C 252.4 203.68 252.4 203.68 252.4 203.68 
C 252.4 203.68 252.4 203.68 252.4 203.68 
C 252.4 203.68 252.4 203.68 252.4 203.68 
C 252.4 203.68 252.4 203.68 252.4 203.68 
C 252.4 203.68 252.4 203.68 252.4 203.68 
C 252.4 203.68 252.4 203.68 252.4 203.68 
C 252.4 203.68 252.4 203.68 252.4 203.68 
C 252.4 203.68 252.4 203.68 252.4 203.68 
z
" style="fill:#440154;stroke:#440154;"/>
    <path clip-path="url(#p2a04122555)" d="M 252.4 108.878037 
C 252.887453 108.878037 253.355007 108.684369 253.699688 108.339688 
C 254.044369 107.995007 254.238037 107.527453 254.238037 107.04 
C 254.238037 106.552547 254.044369 106.084993 253.699688 105.740312 
C 253.355007 105.395631 252.887453 105.201963 252.4 105.201963 
C 251.912547 105.201963 251.444993 105.395631 251.100312 105.740312 
C 250.755631 106.084993 250.561963 106.552547 250.561963 107.04 
C 250.561963 107.527453 250.755631 107.995007 251.100312 108.339688 
C 251.444993 108.684369 251.912547 108.878037 252.4 108.878037 
z
" style="fill:#440154;stroke:#440154;"/>
    <path clip-path="url(#p2a04122555)" d="M 252.4 84.769822 
C 252.901187 84.769822 253.381914 84.570699 253.736306 84.216306 
C 254.090699 83.861914 254.289822 83.381187 254.289822 82.88 
C 254.289822 82.378813 254.090699 81.898086 253.736306 81.543694 
C 253.381914 81.189301 252.901187 80.990178 252.4 80.990178 
C 251.898813 80.990178 251.418086 81.189301 251.063694 81.543694 
C 250.709301 81.898086 250.510178 82.378813 250.510178 82.88 
C 250.510178 83.381187 250.709301 83.861914 251.063694 84.216306 
C 251.418086 84.570699 251.898813 84.769822 252.4 84.769822 
z
" style="fill:#440154;stroke:#440154;"/>
    <path clip-path="url(#p2a04122555)" d="M 252.4 136.2 
C 253.726016 136.2 254.997899 135.673168 255.935534 134.735534 
C 256.873168 133.797899 257.4 132.526015 257.4 131.2 
C 257.4 129.873984 256.873168 128.602101 255.935534 127.664466 
C 254.997899 126.726832 253.726016 126.2 252.4 126.2 
C 251.073984 126.2 249.802101 126.726832 248.864466 127.664466 
C 247.926832 128.602101 247.4 129.873984 247.4 131.2 
C 247.4 132.526015 247.926832 133.797899 248.864466 134.735534 
C 249.802101 135.673168 251.073984 136.2 252.4 136.2 
z
" style="fill:#440154;stroke:#440154;"/>
    <path clip-path="url(#p2a04122555)" d="M 314.4 82.88 
C 314.4 82.88 314.4 82.88 314.4 82.88 
C 314.4 82.88 314.4 82.88 314.4 82.88 
C 314.4 82.88 314.4 82.88 314.4 82.88 
C 314.4 82.88 314.4 82.88 314.4 82.88 
C 314.4 82.88 314.4 82.88 314.4 82.88 
C 314.4 82.88 314.4 82.88 314.4 82.88 
C 314.4 82.88 314.4 82.88 314.4 82.88 
C 314.4 82.88 314.4 82.88 314.4 82.88 
z
" style="fill:#440154;stroke:#440154;"/>
    <path clip-path="url(#p2a04122555)" d="M 314.4 179.52 
C 314.4 179.52 314.4 179.52 314.4 179.52 
C 314.4 179.52 314.4 179.52 314.4 179.52 
C 314.4 179.52 314.4 179.52 314.4 179.52 
C 314.4 179.52 314.4 179.52 314.4 179.52 
C 314.4 179.52 314.4 179.52 314.4 179.52 
C 314.4 179.52 314.4 179.52 314.4 179.52 
C 314.4 179.52 314.4 179.52 314.4 179.52 
C 314.4 179.52 314.4 179.52 314.4 179.52 
z
" style="fill:#440154;stroke:#440154;"/>
    <path clip-path="url(#p2a04122555)" d="M 314.4 131.2 
C 314.4 131.2 314.4 131.2 314.4 131.2 
C 314.4 131.2 314.4 131.2 314.4 131.2 
C 314.4 131.2 314.4 131.2 314.4 131.2 
C 314.4 131.2 314.4 131.2 314.4 131.2 
C 314.4 131.2 314.4 131.2 314.4 131.2 
C 314.4 131.2 314.4 131.2 314.4 131.2 
C 314.4 131.2 314.4 131.2 314.4 131.2 
C 314.4 131.2 314.4 131.2 314.4 131.2 
z
" style="fill:#440154;stroke:#440154;"/>
    <path clip-path="url(#p2a04122555)" d="M 314.4 110.223573 
C 315.244293 110.223573 316.05412 109.888131 316.651126 109.291126 
C 317.248131 108.69412 317.583573 107.884293 317.583573 107.04 
C 317.583573 106.195707 317.248131 105.38588 316.651126 104.788874 
C 316.05412 104.191869 315.244293 103.856427 314.4 103.856427 
C 313.555707 103.856427 312.74588 104.191869 312.148874 104.788874 
C 311.551869 105.38588 311.216427 106.195707 311.216427 107.04 
C 311.216427 107.884293 311.551869 108.69412 312.148874 109.291126 
C 312.74588 109.888131 313.555707 110.223573 314.4 110.223573 
z
" style="fill:#440154;stroke:#440154;"/>
    <path clip-path="url(#p2a04122555)" d="M 314.4 160.36 
C 315.726015 160.36 316.997899 159.833168 317.935534 158.895534 
C 318.873168 157.957899 319.4 156.686016 319.4 155.36 
C 319.4 154.033985 318.873168 152.762101 317.935534 151.824466 
C 316.997899 150.886832 315.726015 150.36 314.4 150.36 
C 313.073984 150.36 311.802101 150.886832 310.864466 151.824466 
C 309.926832 152.762101 309.4 154.033985 309.4 155.36 
C 309.4 156.686016 309.926832 157.957899 310.864466 158.895534 
C 311.802101 159.833168 313.073984 160.36 314.4 160.36 
z
" style="fill:#440154;stroke:#440154;"/>
    <path clip-path="url(#p2a04122555)" d="M 314.4 210.134972 
C 316.111879 210.134972 317.753874 209.454836 318.964355 208.244355 
C 320.174836 207.033874 320.854972 205.391879 320.854972 203.68 
C 320.854972 201.968121 320.174836 200.326126 318.964355 199.115645 
C 317.753874 197.905164 316.111879 197.225028 314.4 197.225028 
C 312.688121 197.225028 311.046126 197.905164 309.835645 199.115645 
C 308.625164 200.326126 307.945028 201.968121 307.945028 203.68 
C 307.945028 205.391879 308.625164 207.033874 309.835645 208.244355 
C 311.046126 209.454836 312.688121 210.134972 314.4 210.134972 
z
" style="fill:#443983;stroke:#443983;"/>
   </g>
   <g id="matplotlib.axis_1">
    <g id="xtick_1">
     <g id="line2d_1">
      <defs>
       <path d="M 0 0 
L 0 3.5 
" id="m202cd8301f" style="stroke:#000000;stroke-width:0.8;"/>
      </defs>
      <g>
       <use style="stroke:#000000;stroke-width:0.8;" x="128.4" xlink:href="#m202cd8301f" y="252"/>
      </g>
     </g>
     <g id="text_1">
      <text style="font-family:DejaVu Sans;font-size:6px;font-stretch:normal;font-style:normal;font-weight:normal;text-anchor:middle;" transform="rotate(-0, 128.4, 263.559062)" x="128.4" y="263.559062">Specific</text>
     </g>
    </g>
    <g id="xtick_2">
     <g id="line2d_2">
      <g>
       <use style="stroke:#000000;stroke-width:0.8;" x="190.4" xlink:href="#m202cd8301f" y="252"/>
      </g>
     </g>
     <g id="text_2">
      <text style="font-family:DejaVu Sans;font-size:6px;font-stretch:normal;font-style:normal;font-weight:normal;text-anchor:middle;" transform="rotate(-0, 190.4, 263.559062)" x="190.4" y="263.559062">No</text>
     </g>
    </g>
    <g id="xtick_3">
     <g id="line2d_3">
      <g>
       <use style="stroke:#000000;stroke-width:0.8;" x="252.4" xlink:href="#m202cd8301f" y="252"/>
      </g>
     </g>
     <g id="text_3">
      <text style="font-family:DejaVu Sans;font-size:6px;font-stretch:normal;font-style:normal;font-weight:normal;text-anchor:middle;" transform="rotate(-0, 252.4, 263.559062)" x="252.4" y="263.559062">Spurious</text>
     </g>
    </g>
    <g id="xtick_4">
     <g id="line2d_4">
      <g>
       <use style="stroke:#000000;stroke-width:0.8;" x="314.4" xlink:href="#m202cd8301f" y="252"/>
      </g>
     </g>
     <g id="text_4">
      <text style="font-family:DejaVu Sans;font-size:6px;font-stretch:normal;font-style:normal;font-weight:normal;text-anchor:middle;" transform="rotate(-0, 314.4, 263.559062)" x="314.4" y="263.559062">Unspecific</text>
     </g>
    </g>
   </g>
   <g id="matplotlib.axis_2">
    <g id="ytick_1">
     <g id="line2d_5">
      <defs>
       <path d="M 0 0 
L -3.5 0 
" id="m1fa61606ed" style="stroke:#000000;stroke-width:0.8;"/>
      </defs>
      <g>
       <use style="stroke:#000000;stroke-width:0.8;" x="54" xlink:href="#m1fa61606ed" y="203.68"/>
      </g>
     </g>
     <g id="text_5">
      <text style="font-family:DejaVu Sans;font-size:6px;font-stretch:normal;font-style:normal;font-weight:normal;text-anchor:end;" transform="rotate(-0, 47, 205.959531)" x="47" y="205.959531">(0.182, 0.215]</text>
     </g>
    </g>
    <g id="ytick_2">
     <g id="line2d_6">
      <g>
       <use style="stroke:#000000;stroke-width:0.8;" x="54" xlink:href="#m1fa61606ed" y="179.52"/>
      </g>
     </g>
     <g id="text_6">
      <text style="font-family:DejaVu Sans;font-size:6px;font-stretch:normal;font-style:normal;font-weight:normal;text-anchor:end;" transform="rotate(-0, 47, 181.799531)" x="47" y="181.799531">(0.0843, 0.117]</text>
     </g>
    </g>
    <g id="ytick_3">
     <g id="line2d_7">
      <g>
       <use style="stroke:#000000;stroke-width:0.8;" x="54" xlink:href="#m1fa61606ed" y="155.36"/>
      </g>
     </g>
     <g id="text_7">
      <text style="font-family:DejaVu Sans;font-size:6px;font-stretch:normal;font-style:normal;font-weight:normal;text-anchor:end;" transform="rotate(-0, 47, 157.639531)" x="47" y="157.639531">(0.117, 0.15]</text>
     </g>
    </g>
    <g id="ytick_4">
     <g id="line2d_8">
      <g>
       <use style="stroke:#000000;stroke-width:0.8;" x="54" xlink:href="#m1fa61606ed" y="131.2"/>
      </g>
     </g>
     <g id="text_8">
      <text style="font-family:DejaVu Sans;font-size:6px;font-stretch:normal;font-style:normal;font-weight:normal;text-anchor:end;" transform="rotate(-0, 47, 133.479531)" x="47" y="133.479531">(0.15, 0.182]</text>
     </g>
    </g>
    <g id="ytick_5">
     <g id="line2d_9">
      <g>
       <use style="stroke:#000000;stroke-width:0.8;" x="54" xlink:href="#m1fa61606ed" y="107.04"/>
      </g>
     </g>
     <g id="text_9">
      <text style="font-family:DejaVu Sans;font-size:6px;font-stretch:normal;font-style:normal;font-weight:normal;text-anchor:end;" transform="rotate(-0, 47, 109.319531)" x="47" y="109.319531">(0.0188, 0.0516]</text>
     </g>
    </g>
    <g id="ytick_6">
     <g id="line2d_10">
      <g>
       <use style="stroke:#000000;stroke-width:0.8;" x="54" xlink:href="#m1fa61606ed" y="82.88"/>
      </g>
     </g>
     <g id="text_10">
      <text style="font-family:DejaVu Sans;font-size:6px;font-stretch:normal;font-style:normal;font-weight:normal;text-anchor:end;" transform="rotate(-0, 47, 85.159531)" x="47" y="85.159531">(0.0516, 0.0843]</text>
     </g>
    </g>
   </g>
   <g id="patch_3">
    <path d="M 54 252 
L 54 34.56 
" style="fill:none;stroke:#000000;stroke-linecap:square;stroke-linejoin:miter;stroke-width:0.8;"/>
   </g>
   <g id="patch_4">
    <path d="M 388.8 252 
L 388.8 34.56 
" style="fill:none;stroke:#000000;stroke-linecap:square;stroke-linejoin:miter;stroke-width:0.8;"/>
   </g>
   <g id="patch_5">
    <path d="M 54 252 
L 388.8 252 
" style="fill:none;stroke:#000000;stroke-linecap:square;stroke-linejoin:miter;stroke-width:0.8;"/>
   </g>
   <g id="patch_6">
    <path d="M 54 34.56 
L 388.8 34.56 
" style="fill:none;stroke:#000000;stroke-linecap:square;stroke-linejoin:miter;stroke-width:0.8;"/>
   </g>
  </g>
 </g>
 <defs>
  <clipPath id="p2a04122555">
   <rect height="217.44" width="334.8" x="54" y="34.56"/>
  </clipPath>
 </defs>
</svg>
