<?xml version="1.0" encoding="utf-8" standalone="no"?>
<!DOCTYPE svg PUBLIC "-//W3C//DTD SVG 1.1//EN"
  "http://www.w3.org/Graphics/SVG/1.1/DTD/svg11.dtd">
<svg height="288pt" version="1.1" viewBox="0 0 576 288" width="576pt" xmlns="http://www.w3.org/2000/svg" xmlns:xlink="http://www.w3.org/1999/xlink">
 <metadata>
  <rdf:RDF xmlns:cc="http://creativecommons.org/ns#" xmlns:dc="http://purl.org/dc/elements/1.1/" xmlns:rdf="http://www.w3.org/1999/02/22-rdf-syntax-ns#">
   <cc:Work>
    <dc:type rdf:resource="http://purl.org/dc/dcmitype/StillImage"/>
    <dc:date>2021-12-19T10:18:10.679331</dc:date>
    <dc:format>image/svg+xml</dc:format>
    <dc:creator>
     <cc:Agent>
      <dc:title>Matplotlib v3.4.1, https://matplotlib.org/</dc:title>
     </cc:Agent>
    </dc:creator>
   </cc:Work>
  </rdf:RDF>
 </metadata>
 <defs>
  <style type="text/css">*{stroke-linecap:butt;stroke-linejoin:round;}</style>
 </defs>
 <g id="figure_1">
  <g id="patch_1">
   <path d="M 0 288 
L 576 288 
L 576 0 
L 0 0 
z
" style="fill:none;"/>
  </g>
  <g id="axes_1">
   <g id="patch_2">
    <path d="M 72 252 
L 274.909091 252 
L 274.909091 34.56 
L 72 34.56 
z
" style="fill:#ffffff;"/>
   </g>
   <g id="patch_3">
    <path clip-path="url(#p42a9eeb31e)" d="M 77.072727 252 
L 87.218182 252 
L 87.218182 210.961672 
L 77.072727 210.961672 
z
" style="fill:#0173b2;"/>
   </g>
   <g id="patch_4">
    <path clip-path="url(#p42a9eeb31e)" d="M 97.363636 252 
L 107.509091 252 
L 107.509091 44.914286 
L 97.363636 44.914286 
z
" style="fill:#0173b2;"/>
   </g>
   <g id="patch_5">
    <path clip-path="url(#p42a9eeb31e)" d="M 117.654545 252 
L 127.8 252 
L 127.8 229.27108 
L 117.654545 229.27108 
z
" style="fill:#0173b2;"/>
   </g>
   <g id="patch_6">
    <path clip-path="url(#p42a9eeb31e)" d="M 137.945455 252 
L 148.090909 252 
L 148.090909 240.63554 
L 137.945455 240.63554 
z
" style="fill:#0173b2;"/>
   </g>
   <g id="patch_7">
    <path clip-path="url(#p42a9eeb31e)" d="M 158.236364 252 
L 168.381818 252 
L 168.381818 243.160976 
L 158.236364 243.160976 
z
" style="fill:#0173b2;"/>
   </g>
   <g id="patch_8">
    <path clip-path="url(#p42a9eeb31e)" d="M 178.527273 252 
L 188.672727 252 
L 188.672727 246.949129 
L 178.527273 246.949129 
z
" style="fill:#0173b2;"/>
   </g>
   <g id="patch_9">
    <path clip-path="url(#p42a9eeb31e)" d="M 198.818182 252 
L 208.963636 252 
L 208.963636 250.737282 
L 198.818182 250.737282 
z
" style="fill:#0173b2;"/>
   </g>
   <g id="patch_10">
    <path clip-path="url(#p42a9eeb31e)" d="M 219.109091 252 
L 229.254545 252 
L 229.254545 231.796516 
L 219.109091 231.796516 
z
" style="fill:#0173b2;"/>
   </g>
   <g id="patch_11">
    <path clip-path="url(#p42a9eeb31e)" d="M 239.4 252 
L 249.545455 252 
L 249.545455 248.211847 
L 239.4 248.211847 
z
" style="fill:#0173b2;"/>
   </g>
   <g id="patch_12">
    <path clip-path="url(#p42a9eeb31e)" d="M 259.690909 252 
L 269.836364 252 
L 269.836364 229.27108 
L 259.690909 229.27108 
z
" style="fill:#0173b2;"/>
   </g>
   <g id="matplotlib.axis_1">
    <g id="xtick_1">
     <g id="line2d_1">
      <defs>
       <path d="M 0 0 
L 0 3.5 
" id="m0360cf0764" style="stroke:#000000;stroke-width:0.8;"/>
      </defs>
      <g>
       <use style="stroke:#000000;stroke-width:0.8;" x="82.145455" xlink:href="#m0360cf0764" y="252"/>
      </g>
     </g>
     <g id="text_1">
      <!-- 0-2 -->
      <g transform="translate(83.80108 268.799688)rotate(-90)scale(0.06 -0.06)">
       <defs>
        <path d="M 2034 4250 
Q 1547 4250 1301 3770 
Q 1056 3291 1056 2328 
Q 1056 1369 1301 889 
Q 1547 409 2034 409 
Q 2525 409 2770 889 
Q 3016 1369 3016 2328 
Q 3016 3291 2770 3770 
Q 2525 4250 2034 4250 
z
M 2034 4750 
Q 2819 4750 3233 4129 
Q 3647 3509 3647 2328 
Q 3647 1150 3233 529 
Q 2819 -91 2034 -91 
Q 1250 -91 836 529 
Q 422 1150 422 2328 
Q 422 3509 836 4129 
Q 1250 4750 2034 4750 
z
" id="DejaVuSans-30" transform="scale(0.015625)"/>
        <path d="M 313 2009 
L 1997 2009 
L 1997 1497 
L 313 1497 
L 313 2009 
z
" id="DejaVuSans-2d" transform="scale(0.015625)"/>
        <path d="M 1228 531 
L 3431 531 
L 3431 0 
L 469 0 
L 469 531 
Q 828 903 1448 1529 
Q 2069 2156 2228 2338 
Q 2531 2678 2651 2914 
Q 2772 3150 2772 3378 
Q 2772 3750 2511 3984 
Q 2250 4219 1831 4219 
Q 1534 4219 1204 4116 
Q 875 4013 500 3803 
L 500 4441 
Q 881 4594 1212 4672 
Q 1544 4750 1819 4750 
Q 2544 4750 2975 4387 
Q 3406 4025 3406 3419 
Q 3406 3131 3298 2873 
Q 3191 2616 2906 2266 
Q 2828 2175 2409 1742 
Q 1991 1309 1228 531 
z
" id="DejaVuSans-32" transform="scale(0.015625)"/>
       </defs>
       <use xlink:href="#DejaVuSans-30"/>
       <use x="63.623047" xlink:href="#DejaVuSans-2d"/>
       <use x="99.707031" xlink:href="#DejaVuSans-32"/>
      </g>
     </g>
    </g>
    <g id="xtick_2">
     <g id="line2d_2">
      <g>
       <use style="stroke:#000000;stroke-width:0.8;" x="102.436364" xlink:href="#m0360cf0764" y="252"/>
      </g>
     </g>
     <g id="text_2">
      <!-- 2-4 -->
      <g transform="translate(104.091989 268.799688)rotate(-90)scale(0.06 -0.06)">
       <defs>
        <path d="M 2419 4116 
L 825 1625 
L 2419 1625 
L 2419 4116 
z
M 2253 4666 
L 3047 4666 
L 3047 1625 
L 3713 1625 
L 3713 1100 
L 3047 1100 
L 3047 0 
L 2419 0 
L 2419 1100 
L 313 1100 
L 313 1709 
L 2253 4666 
z
" id="DejaVuSans-34" transform="scale(0.015625)"/>
       </defs>
       <use xlink:href="#DejaVuSans-32"/>
       <use x="63.623047" xlink:href="#DejaVuSans-2d"/>
       <use x="99.707031" xlink:href="#DejaVuSans-34"/>
      </g>
     </g>
    </g>
    <g id="xtick_3">
     <g id="line2d_3">
      <g>
       <use style="stroke:#000000;stroke-width:0.8;" x="122.727273" xlink:href="#m0360cf0764" y="252"/>
      </g>
     </g>
     <g id="text_3">
      <!-- 4-6 -->
      <g transform="translate(124.382898 268.799688)rotate(-90)scale(0.06 -0.06)">
       <defs>
        <path d="M 2113 2584 
Q 1688 2584 1439 2293 
Q 1191 2003 1191 1497 
Q 1191 994 1439 701 
Q 1688 409 2113 409 
Q 2538 409 2786 701 
Q 3034 994 3034 1497 
Q 3034 2003 2786 2293 
Q 2538 2584 2113 2584 
z
M 3366 4563 
L 3366 3988 
Q 3128 4100 2886 4159 
Q 2644 4219 2406 4219 
Q 1781 4219 1451 3797 
Q 1122 3375 1075 2522 
Q 1259 2794 1537 2939 
Q 1816 3084 2150 3084 
Q 2853 3084 3261 2657 
Q 3669 2231 3669 1497 
Q 3669 778 3244 343 
Q 2819 -91 2113 -91 
Q 1303 -91 875 529 
Q 447 1150 447 2328 
Q 447 3434 972 4092 
Q 1497 4750 2381 4750 
Q 2619 4750 2861 4703 
Q 3103 4656 3366 4563 
z
" id="DejaVuSans-36" transform="scale(0.015625)"/>
       </defs>
       <use xlink:href="#DejaVuSans-34"/>
       <use x="63.623047" xlink:href="#DejaVuSans-2d"/>
       <use x="99.707031" xlink:href="#DejaVuSans-36"/>
      </g>
     </g>
    </g>
    <g id="xtick_4">
     <g id="line2d_4">
      <g>
       <use style="stroke:#000000;stroke-width:0.8;" x="143.018182" xlink:href="#m0360cf0764" y="252"/>
      </g>
     </g>
     <g id="text_4">
      <!-- 6-8 -->
      <g transform="translate(144.673807 268.799688)rotate(-90)scale(0.06 -0.06)">
       <defs>
        <path d="M 2034 2216 
Q 1584 2216 1326 1975 
Q 1069 1734 1069 1313 
Q 1069 891 1326 650 
Q 1584 409 2034 409 
Q 2484 409 2743 651 
Q 3003 894 3003 1313 
Q 3003 1734 2745 1975 
Q 2488 2216 2034 2216 
z
M 1403 2484 
Q 997 2584 770 2862 
Q 544 3141 544 3541 
Q 544 4100 942 4425 
Q 1341 4750 2034 4750 
Q 2731 4750 3128 4425 
Q 3525 4100 3525 3541 
Q 3525 3141 3298 2862 
Q 3072 2584 2669 2484 
Q 3125 2378 3379 2068 
Q 3634 1759 3634 1313 
Q 3634 634 3220 271 
Q 2806 -91 2034 -91 
Q 1263 -91 848 271 
Q 434 634 434 1313 
Q 434 1759 690 2068 
Q 947 2378 1403 2484 
z
M 1172 3481 
Q 1172 3119 1398 2916 
Q 1625 2713 2034 2713 
Q 2441 2713 2670 2916 
Q 2900 3119 2900 3481 
Q 2900 3844 2670 4047 
Q 2441 4250 2034 4250 
Q 1625 4250 1398 4047 
Q 1172 3844 1172 3481 
z
" id="DejaVuSans-38" transform="scale(0.015625)"/>
       </defs>
       <use xlink:href="#DejaVuSans-36"/>
       <use x="63.623047" xlink:href="#DejaVuSans-2d"/>
       <use x="99.707031" xlink:href="#DejaVuSans-38"/>
      </g>
     </g>
    </g>
    <g id="xtick_5">
     <g id="line2d_5">
      <g>
       <use style="stroke:#000000;stroke-width:0.8;" x="163.309091" xlink:href="#m0360cf0764" y="252"/>
      </g>
     </g>
     <g id="text_5">
      <!-- 8-10 -->
      <g transform="translate(164.964716 272.617188)rotate(-90)scale(0.06 -0.06)">
       <defs>
        <path d="M 794 531 
L 1825 531 
L 1825 4091 
L 703 3866 
L 703 4441 
L 1819 4666 
L 2450 4666 
L 2450 531 
L 3481 531 
L 3481 0 
L 794 0 
L 794 531 
z
" id="DejaVuSans-31" transform="scale(0.015625)"/>
       </defs>
       <use xlink:href="#DejaVuSans-38"/>
       <use x="63.623047" xlink:href="#DejaVuSans-2d"/>
       <use x="99.707031" xlink:href="#DejaVuSans-31"/>
       <use x="163.330078" xlink:href="#DejaVuSans-30"/>
      </g>
     </g>
    </g>
    <g id="xtick_6">
     <g id="line2d_6">
      <g>
       <use style="stroke:#000000;stroke-width:0.8;" x="183.6" xlink:href="#m0360cf0764" y="252"/>
      </g>
     </g>
     <g id="text_6">
      <!-- 12-14 -->
      <g transform="translate(185.255625 276.434687)rotate(-90)scale(0.06 -0.06)">
       <use xlink:href="#DejaVuSans-31"/>
       <use x="63.623047" xlink:href="#DejaVuSans-32"/>
       <use x="127.246094" xlink:href="#DejaVuSans-2d"/>
       <use x="163.330078" xlink:href="#DejaVuSans-31"/>
       <use x="226.953125" xlink:href="#DejaVuSans-34"/>
      </g>
     </g>
    </g>
    <g id="xtick_7">
     <g id="line2d_7">
      <g>
       <use style="stroke:#000000;stroke-width:0.8;" x="203.890909" xlink:href="#m0360cf0764" y="252"/>
      </g>
     </g>
     <g id="text_7">
      <!-- 14-16 -->
      <g transform="translate(205.546534 276.434687)rotate(-90)scale(0.06 -0.06)">
       <use xlink:href="#DejaVuSans-31"/>
       <use x="63.623047" xlink:href="#DejaVuSans-34"/>
       <use x="127.246094" xlink:href="#DejaVuSans-2d"/>
       <use x="163.330078" xlink:href="#DejaVuSans-31"/>
       <use x="226.953125" xlink:href="#DejaVuSans-36"/>
      </g>
     </g>
    </g>
    <g id="xtick_8">
     <g id="line2d_8">
      <g>
       <use style="stroke:#000000;stroke-width:0.8;" x="224.181818" xlink:href="#m0360cf0764" y="252"/>
      </g>
     </g>
     <g id="text_8">
      <!-- 16-18 -->
      <g transform="translate(225.837443 276.434687)rotate(-90)scale(0.06 -0.06)">
       <use xlink:href="#DejaVuSans-31"/>
       <use x="63.623047" xlink:href="#DejaVuSans-36"/>
       <use x="127.246094" xlink:href="#DejaVuSans-2d"/>
       <use x="163.330078" xlink:href="#DejaVuSans-31"/>
       <use x="226.953125" xlink:href="#DejaVuSans-38"/>
      </g>
     </g>
    </g>
    <g id="xtick_9">
     <g id="line2d_9">
      <g>
       <use style="stroke:#000000;stroke-width:0.8;" x="244.472727" xlink:href="#m0360cf0764" y="252"/>
      </g>
     </g>
     <g id="text_9">
      <!-- 18-20 -->
      <g transform="translate(246.128352 276.434687)rotate(-90)scale(0.06 -0.06)">
       <use xlink:href="#DejaVuSans-31"/>
       <use x="63.623047" xlink:href="#DejaVuSans-38"/>
       <use x="127.246094" xlink:href="#DejaVuSans-2d"/>
       <use x="163.330078" xlink:href="#DejaVuSans-32"/>
       <use x="226.953125" xlink:href="#DejaVuSans-30"/>
      </g>
     </g>
    </g>
    <g id="xtick_10">
     <g id="line2d_10">
      <g>
       <use style="stroke:#000000;stroke-width:0.8;" x="264.763636" xlink:href="#m0360cf0764" y="252"/>
      </g>
     </g>
     <g id="text_10">
      <!-- nan -->
      <g transform="translate(266.419261 270.281875)rotate(-90)scale(0.06 -0.06)">
       <defs>
        <path d="M 3513 2113 
L 3513 0 
L 2938 0 
L 2938 2094 
Q 2938 2591 2744 2837 
Q 2550 3084 2163 3084 
Q 1697 3084 1428 2787 
Q 1159 2491 1159 1978 
L 1159 0 
L 581 0 
L 581 3500 
L 1159 3500 
L 1159 2956 
Q 1366 3272 1645 3428 
Q 1925 3584 2291 3584 
Q 2894 3584 3203 3211 
Q 3513 2838 3513 2113 
z
" id="DejaVuSans-6e" transform="scale(0.015625)"/>
        <path d="M 2194 1759 
Q 1497 1759 1228 1600 
Q 959 1441 959 1056 
Q 959 750 1161 570 
Q 1363 391 1709 391 
Q 2188 391 2477 730 
Q 2766 1069 2766 1631 
L 2766 1759 
L 2194 1759 
z
M 3341 1997 
L 3341 0 
L 2766 0 
L 2766 531 
Q 2569 213 2275 61 
Q 1981 -91 1556 -91 
Q 1019 -91 701 211 
Q 384 513 384 1019 
Q 384 1609 779 1909 
Q 1175 2209 1959 2209 
L 2766 2209 
L 2766 2266 
Q 2766 2663 2505 2880 
Q 2244 3097 1772 3097 
Q 1472 3097 1187 3025 
Q 903 2953 641 2809 
L 641 3341 
Q 956 3463 1253 3523 
Q 1550 3584 1831 3584 
Q 2591 3584 2966 3190 
Q 3341 2797 3341 1997 
z
" id="DejaVuSans-61" transform="scale(0.015625)"/>
       </defs>
       <use xlink:href="#DejaVuSans-6e"/>
       <use x="63.378906" xlink:href="#DejaVuSans-61"/>
       <use x="124.658203" xlink:href="#DejaVuSans-6e"/>
      </g>
     </g>
    </g>
   </g>
   <g id="matplotlib.axis_2">
    <g id="ytick_1">
     <g id="line2d_11">
      <defs>
       <path d="M 0 0 
L -3.5 0 
" id="m0cf86b9b07" style="stroke:#000000;stroke-width:0.8;"/>
      </defs>
      <g>
       <use style="stroke:#000000;stroke-width:0.8;" x="72" xlink:href="#m0cf86b9b07" y="252"/>
      </g>
     </g>
     <g id="text_11">
      <!-- 0 -->
      <g transform="translate(61.1825 254.279531)scale(0.06 -0.06)">
       <use xlink:href="#DejaVuSans-30"/>
      </g>
     </g>
    </g>
    <g id="ytick_2">
     <g id="line2d_12">
      <g>
       <use style="stroke:#000000;stroke-width:0.8;" x="72" xlink:href="#m0cf86b9b07" y="220.432056"/>
      </g>
     </g>
     <g id="text_12">
      <!-- 50 -->
      <g transform="translate(57.365 222.711587)scale(0.06 -0.06)">
       <defs>
        <path d="M 691 4666 
L 3169 4666 
L 3169 4134 
L 1269 4134 
L 1269 2991 
Q 1406 3038 1543 3061 
Q 1681 3084 1819 3084 
Q 2600 3084 3056 2656 
Q 3513 2228 3513 1497 
Q 3513 744 3044 326 
Q 2575 -91 1722 -91 
Q 1428 -91 1123 -41 
Q 819 9 494 109 
L 494 744 
Q 775 591 1075 516 
Q 1375 441 1709 441 
Q 2250 441 2565 725 
Q 2881 1009 2881 1497 
Q 2881 1984 2565 2268 
Q 2250 2553 1709 2553 
Q 1456 2553 1204 2497 
Q 953 2441 691 2322 
L 691 4666 
z
" id="DejaVuSans-35" transform="scale(0.015625)"/>
       </defs>
       <use xlink:href="#DejaVuSans-35"/>
       <use x="63.623047" xlink:href="#DejaVuSans-30"/>
      </g>
     </g>
    </g>
    <g id="ytick_3">
     <g id="line2d_13">
      <g>
       <use style="stroke:#000000;stroke-width:0.8;" x="72" xlink:href="#m0cf86b9b07" y="188.864111"/>
      </g>
     </g>
     <g id="text_13">
      <!-- 100 -->
      <g transform="translate(53.5475 191.143643)scale(0.06 -0.06)">
       <use xlink:href="#DejaVuSans-31"/>
       <use x="63.623047" xlink:href="#DejaVuSans-30"/>
       <use x="127.246094" xlink:href="#DejaVuSans-30"/>
      </g>
     </g>
    </g>
    <g id="ytick_4">
     <g id="line2d_14">
      <g>
       <use style="stroke:#000000;stroke-width:0.8;" x="72" xlink:href="#m0cf86b9b07" y="157.296167"/>
      </g>
     </g>
     <g id="text_14">
      <!-- 150 -->
      <g transform="translate(53.5475 159.575698)scale(0.06 -0.06)">
       <use xlink:href="#DejaVuSans-31"/>
       <use x="63.623047" xlink:href="#DejaVuSans-35"/>
       <use x="127.246094" xlink:href="#DejaVuSans-30"/>
      </g>
     </g>
    </g>
    <g id="ytick_5">
     <g id="line2d_15">
      <g>
       <use style="stroke:#000000;stroke-width:0.8;" x="72" xlink:href="#m0cf86b9b07" y="125.728223"/>
      </g>
     </g>
     <g id="text_15">
      <!-- 200 -->
      <g transform="translate(53.5475 128.007754)scale(0.06 -0.06)">
       <use xlink:href="#DejaVuSans-32"/>
       <use x="63.623047" xlink:href="#DejaVuSans-30"/>
       <use x="127.246094" xlink:href="#DejaVuSans-30"/>
      </g>
     </g>
    </g>
    <g id="ytick_6">
     <g id="line2d_16">
      <g>
       <use style="stroke:#000000;stroke-width:0.8;" x="72" xlink:href="#m0cf86b9b07" y="94.160279"/>
      </g>
     </g>
     <g id="text_16">
      <!-- 250 -->
      <g transform="translate(53.5475 96.43981)scale(0.06 -0.06)">
       <use xlink:href="#DejaVuSans-32"/>
       <use x="63.623047" xlink:href="#DejaVuSans-35"/>
       <use x="127.246094" xlink:href="#DejaVuSans-30"/>
      </g>
     </g>
    </g>
    <g id="ytick_7">
     <g id="line2d_17">
      <g>
       <use style="stroke:#000000;stroke-width:0.8;" x="72" xlink:href="#m0cf86b9b07" y="62.592334"/>
      </g>
     </g>
     <g id="text_17">
      <!-- 300 -->
      <g transform="translate(53.5475 64.871866)scale(0.06 -0.06)">
       <defs>
        <path d="M 2597 2516 
Q 3050 2419 3304 2112 
Q 3559 1806 3559 1356 
Q 3559 666 3084 287 
Q 2609 -91 1734 -91 
Q 1441 -91 1130 -33 
Q 819 25 488 141 
L 488 750 
Q 750 597 1062 519 
Q 1375 441 1716 441 
Q 2309 441 2620 675 
Q 2931 909 2931 1356 
Q 2931 1769 2642 2001 
Q 2353 2234 1838 2234 
L 1294 2234 
L 1294 2753 
L 1863 2753 
Q 2328 2753 2575 2939 
Q 2822 3125 2822 3475 
Q 2822 3834 2567 4026 
Q 2313 4219 1838 4219 
Q 1578 4219 1281 4162 
Q 984 4106 628 3988 
L 628 4550 
Q 988 4650 1302 4700 
Q 1616 4750 1894 4750 
Q 2613 4750 3031 4423 
Q 3450 4097 3450 3541 
Q 3450 3153 3228 2886 
Q 3006 2619 2597 2516 
z
" id="DejaVuSans-33" transform="scale(0.015625)"/>
       </defs>
       <use xlink:href="#DejaVuSans-33"/>
       <use x="63.623047" xlink:href="#DejaVuSans-30"/>
       <use x="127.246094" xlink:href="#DejaVuSans-30"/>
      </g>
     </g>
    </g>
    <g id="text_18">
     <!-- Frequency -->
     <g transform="translate(48.299687 158.777813)rotate(-90)scale(0.06 -0.06)">
      <defs>
       <path d="M 628 4666 
L 3309 4666 
L 3309 4134 
L 1259 4134 
L 1259 2759 
L 3109 2759 
L 3109 2228 
L 1259 2228 
L 1259 0 
L 628 0 
L 628 4666 
z
" id="DejaVuSans-46" transform="scale(0.015625)"/>
       <path d="M 2631 2963 
Q 2534 3019 2420 3045 
Q 2306 3072 2169 3072 
Q 1681 3072 1420 2755 
Q 1159 2438 1159 1844 
L 1159 0 
L 581 0 
L 581 3500 
L 1159 3500 
L 1159 2956 
Q 1341 3275 1631 3429 
Q 1922 3584 2338 3584 
Q 2397 3584 2469 3576 
Q 2541 3569 2628 3553 
L 2631 2963 
z
" id="DejaVuSans-72" transform="scale(0.015625)"/>
       <path d="M 3597 1894 
L 3597 1613 
L 953 1613 
Q 991 1019 1311 708 
Q 1631 397 2203 397 
Q 2534 397 2845 478 
Q 3156 559 3463 722 
L 3463 178 
Q 3153 47 2828 -22 
Q 2503 -91 2169 -91 
Q 1331 -91 842 396 
Q 353 884 353 1716 
Q 353 2575 817 3079 
Q 1281 3584 2069 3584 
Q 2775 3584 3186 3129 
Q 3597 2675 3597 1894 
z
M 3022 2063 
Q 3016 2534 2758 2815 
Q 2500 3097 2075 3097 
Q 1594 3097 1305 2825 
Q 1016 2553 972 2059 
L 3022 2063 
z
" id="DejaVuSans-65" transform="scale(0.015625)"/>
       <path d="M 947 1747 
Q 947 1113 1208 752 
Q 1469 391 1925 391 
Q 2381 391 2643 752 
Q 2906 1113 2906 1747 
Q 2906 2381 2643 2742 
Q 2381 3103 1925 3103 
Q 1469 3103 1208 2742 
Q 947 2381 947 1747 
z
M 2906 525 
Q 2725 213 2448 61 
Q 2172 -91 1784 -91 
Q 1150 -91 751 415 
Q 353 922 353 1747 
Q 353 2572 751 3078 
Q 1150 3584 1784 3584 
Q 2172 3584 2448 3432 
Q 2725 3281 2906 2969 
L 2906 3500 
L 3481 3500 
L 3481 -1331 
L 2906 -1331 
L 2906 525 
z
" id="DejaVuSans-71" transform="scale(0.015625)"/>
       <path d="M 544 1381 
L 544 3500 
L 1119 3500 
L 1119 1403 
Q 1119 906 1312 657 
Q 1506 409 1894 409 
Q 2359 409 2629 706 
Q 2900 1003 2900 1516 
L 2900 3500 
L 3475 3500 
L 3475 0 
L 2900 0 
L 2900 538 
Q 2691 219 2414 64 
Q 2138 -91 1772 -91 
Q 1169 -91 856 284 
Q 544 659 544 1381 
z
M 1991 3584 
L 1991 3584 
z
" id="DejaVuSans-75" transform="scale(0.015625)"/>
       <path d="M 3122 3366 
L 3122 2828 
Q 2878 2963 2633 3030 
Q 2388 3097 2138 3097 
Q 1578 3097 1268 2742 
Q 959 2388 959 1747 
Q 959 1106 1268 751 
Q 1578 397 2138 397 
Q 2388 397 2633 464 
Q 2878 531 3122 666 
L 3122 134 
Q 2881 22 2623 -34 
Q 2366 -91 2075 -91 
Q 1284 -91 818 406 
Q 353 903 353 1747 
Q 353 2603 823 3093 
Q 1294 3584 2113 3584 
Q 2378 3584 2631 3529 
Q 2884 3475 3122 3366 
z
" id="DejaVuSans-63" transform="scale(0.015625)"/>
       <path d="M 2059 -325 
Q 1816 -950 1584 -1140 
Q 1353 -1331 966 -1331 
L 506 -1331 
L 506 -850 
L 844 -850 
Q 1081 -850 1212 -737 
Q 1344 -625 1503 -206 
L 1606 56 
L 191 3500 
L 800 3500 
L 1894 763 
L 2988 3500 
L 3597 3500 
L 2059 -325 
z
" id="DejaVuSans-79" transform="scale(0.015625)"/>
      </defs>
      <use xlink:href="#DejaVuSans-46"/>
      <use x="50.269531" xlink:href="#DejaVuSans-72"/>
      <use x="89.132812" xlink:href="#DejaVuSans-65"/>
      <use x="150.65625" xlink:href="#DejaVuSans-71"/>
      <use x="214.132812" xlink:href="#DejaVuSans-75"/>
      <use x="277.511719" xlink:href="#DejaVuSans-65"/>
      <use x="339.035156" xlink:href="#DejaVuSans-6e"/>
      <use x="402.414062" xlink:href="#DejaVuSans-63"/>
      <use x="457.394531" xlink:href="#DejaVuSans-79"/>
     </g>
    </g>
   </g>
   <g id="patch_13">
    <path d="M 72 252 
L 72 34.56 
" style="fill:none;stroke:#000000;stroke-linecap:square;stroke-linejoin:miter;stroke-width:0.8;"/>
   </g>
   <g id="patch_14">
    <path d="M 274.909091 252 
L 274.909091 34.56 
" style="fill:none;stroke:#000000;stroke-linecap:square;stroke-linejoin:miter;stroke-width:0.8;"/>
   </g>
   <g id="patch_15">
    <path d="M 72 252 
L 274.909091 252 
" style="fill:none;stroke:#000000;stroke-linecap:square;stroke-linejoin:miter;stroke-width:0.8;"/>
   </g>
   <g id="patch_16">
    <path d="M 72 34.56 
L 274.909091 34.56 
" style="fill:none;stroke:#000000;stroke-linecap:square;stroke-linejoin:miter;stroke-width:0.8;"/>
   </g>
   <g id="text_19">
    <!-- Rat age [months] -->
    <g transform="translate(142.053545 28.56)scale(0.072 -0.072)">
     <defs>
      <path d="M 2841 2188 
Q 3044 2119 3236 1894 
Q 3428 1669 3622 1275 
L 4263 0 
L 3584 0 
L 2988 1197 
Q 2756 1666 2539 1819 
Q 2322 1972 1947 1972 
L 1259 1972 
L 1259 0 
L 628 0 
L 628 4666 
L 2053 4666 
Q 2853 4666 3247 4331 
Q 3641 3997 3641 3322 
Q 3641 2881 3436 2590 
Q 3231 2300 2841 2188 
z
M 1259 4147 
L 1259 2491 
L 2053 2491 
Q 2509 2491 2742 2702 
Q 2975 2913 2975 3322 
Q 2975 3731 2742 3939 
Q 2509 4147 2053 4147 
L 1259 4147 
z
" id="DejaVuSans-52" transform="scale(0.015625)"/>
      <path d="M 1172 4494 
L 1172 3500 
L 2356 3500 
L 2356 3053 
L 1172 3053 
L 1172 1153 
Q 1172 725 1289 603 
Q 1406 481 1766 481 
L 2356 481 
L 2356 0 
L 1766 0 
Q 1100 0 847 248 
Q 594 497 594 1153 
L 594 3053 
L 172 3053 
L 172 3500 
L 594 3500 
L 594 4494 
L 1172 4494 
z
" id="DejaVuSans-74" transform="scale(0.015625)"/>
      <path id="DejaVuSans-20" transform="scale(0.015625)"/>
      <path d="M 2906 1791 
Q 2906 2416 2648 2759 
Q 2391 3103 1925 3103 
Q 1463 3103 1205 2759 
Q 947 2416 947 1791 
Q 947 1169 1205 825 
Q 1463 481 1925 481 
Q 2391 481 2648 825 
Q 2906 1169 2906 1791 
z
M 3481 434 
Q 3481 -459 3084 -895 
Q 2688 -1331 1869 -1331 
Q 1566 -1331 1297 -1286 
Q 1028 -1241 775 -1147 
L 775 -588 
Q 1028 -725 1275 -790 
Q 1522 -856 1778 -856 
Q 2344 -856 2625 -561 
Q 2906 -266 2906 331 
L 2906 616 
Q 2728 306 2450 153 
Q 2172 0 1784 0 
Q 1141 0 747 490 
Q 353 981 353 1791 
Q 353 2603 747 3093 
Q 1141 3584 1784 3584 
Q 2172 3584 2450 3431 
Q 2728 3278 2906 2969 
L 2906 3500 
L 3481 3500 
L 3481 434 
z
" id="DejaVuSans-67" transform="scale(0.015625)"/>
      <path d="M 550 4863 
L 1875 4863 
L 1875 4416 
L 1125 4416 
L 1125 -397 
L 1875 -397 
L 1875 -844 
L 550 -844 
L 550 4863 
z
" id="DejaVuSans-5b" transform="scale(0.015625)"/>
      <path d="M 3328 2828 
Q 3544 3216 3844 3400 
Q 4144 3584 4550 3584 
Q 5097 3584 5394 3201 
Q 5691 2819 5691 2113 
L 5691 0 
L 5113 0 
L 5113 2094 
Q 5113 2597 4934 2840 
Q 4756 3084 4391 3084 
Q 3944 3084 3684 2787 
Q 3425 2491 3425 1978 
L 3425 0 
L 2847 0 
L 2847 2094 
Q 2847 2600 2669 2842 
Q 2491 3084 2119 3084 
Q 1678 3084 1418 2786 
Q 1159 2488 1159 1978 
L 1159 0 
L 581 0 
L 581 3500 
L 1159 3500 
L 1159 2956 
Q 1356 3278 1631 3431 
Q 1906 3584 2284 3584 
Q 2666 3584 2933 3390 
Q 3200 3197 3328 2828 
z
" id="DejaVuSans-6d" transform="scale(0.015625)"/>
      <path d="M 1959 3097 
Q 1497 3097 1228 2736 
Q 959 2375 959 1747 
Q 959 1119 1226 758 
Q 1494 397 1959 397 
Q 2419 397 2687 759 
Q 2956 1122 2956 1747 
Q 2956 2369 2687 2733 
Q 2419 3097 1959 3097 
z
M 1959 3584 
Q 2709 3584 3137 3096 
Q 3566 2609 3566 1747 
Q 3566 888 3137 398 
Q 2709 -91 1959 -91 
Q 1206 -91 779 398 
Q 353 888 353 1747 
Q 353 2609 779 3096 
Q 1206 3584 1959 3584 
z
" id="DejaVuSans-6f" transform="scale(0.015625)"/>
      <path d="M 3513 2113 
L 3513 0 
L 2938 0 
L 2938 2094 
Q 2938 2591 2744 2837 
Q 2550 3084 2163 3084 
Q 1697 3084 1428 2787 
Q 1159 2491 1159 1978 
L 1159 0 
L 581 0 
L 581 4863 
L 1159 4863 
L 1159 2956 
Q 1366 3272 1645 3428 
Q 1925 3584 2291 3584 
Q 2894 3584 3203 3211 
Q 3513 2838 3513 2113 
z
" id="DejaVuSans-68" transform="scale(0.015625)"/>
      <path d="M 2834 3397 
L 2834 2853 
Q 2591 2978 2328 3040 
Q 2066 3103 1784 3103 
Q 1356 3103 1142 2972 
Q 928 2841 928 2578 
Q 928 2378 1081 2264 
Q 1234 2150 1697 2047 
L 1894 2003 
Q 2506 1872 2764 1633 
Q 3022 1394 3022 966 
Q 3022 478 2636 193 
Q 2250 -91 1575 -91 
Q 1294 -91 989 -36 
Q 684 19 347 128 
L 347 722 
Q 666 556 975 473 
Q 1284 391 1588 391 
Q 1994 391 2212 530 
Q 2431 669 2431 922 
Q 2431 1156 2273 1281 
Q 2116 1406 1581 1522 
L 1381 1569 
Q 847 1681 609 1914 
Q 372 2147 372 2553 
Q 372 3047 722 3315 
Q 1072 3584 1716 3584 
Q 2034 3584 2315 3537 
Q 2597 3491 2834 3397 
z
" id="DejaVuSans-73" transform="scale(0.015625)"/>
      <path d="M 1947 4863 
L 1947 -844 
L 622 -844 
L 622 -397 
L 1369 -397 
L 1369 4416 
L 622 4416 
L 622 4863 
L 1947 4863 
z
" id="DejaVuSans-5d" transform="scale(0.015625)"/>
     </defs>
     <use xlink:href="#DejaVuSans-52"/>
     <use x="67.232422" xlink:href="#DejaVuSans-61"/>
     <use x="128.511719" xlink:href="#DejaVuSans-74"/>
     <use x="167.720703" xlink:href="#DejaVuSans-20"/>
     <use x="199.507812" xlink:href="#DejaVuSans-61"/>
     <use x="260.787109" xlink:href="#DejaVuSans-67"/>
     <use x="324.263672" xlink:href="#DejaVuSans-65"/>
     <use x="385.787109" xlink:href="#DejaVuSans-20"/>
     <use x="417.574219" xlink:href="#DejaVuSans-5b"/>
     <use x="456.587891" xlink:href="#DejaVuSans-6d"/>
     <use x="554" xlink:href="#DejaVuSans-6f"/>
     <use x="615.181641" xlink:href="#DejaVuSans-6e"/>
     <use x="678.560547" xlink:href="#DejaVuSans-74"/>
     <use x="717.769531" xlink:href="#DejaVuSans-68"/>
     <use x="781.148438" xlink:href="#DejaVuSans-73"/>
     <use x="833.248047" xlink:href="#DejaVuSans-5d"/>
    </g>
   </g>
  </g>
  <g id="axes_2">
   <g id="patch_17">
    <path d="M 315.490909 252 
L 518.4 252 
L 518.4 34.56 
L 315.490909 34.56 
z
" style="fill:#ffffff;"/>
   </g>
   <g id="patch_18">
    <path clip-path="url(#pdf4777390f)" d="M 319.393007 252 
L 327.197203 252 
L 327.197203 168.590476 
L 319.393007 168.590476 
z
" style="fill:#0173b2;"/>
   </g>
   <g id="patch_19">
    <path clip-path="url(#pdf4777390f)" d="M 335.001399 252 
L 342.805594 252 
L 342.805594 128.32381 
L 335.001399 128.32381 
z
" style="fill:#0173b2;"/>
   </g>
   <g id="patch_20">
    <path clip-path="url(#pdf4777390f)" d="M 350.60979 252 
L 358.413986 252 
L 358.413986 121.133333 
L 350.60979 121.133333 
z
" style="fill:#0173b2;"/>
   </g>
   <g id="patch_21">
    <path clip-path="url(#pdf4777390f)" d="M 366.218182 252 
L 374.022378 252 
L 374.022378 44.914286 
L 366.218182 44.914286 
z
" style="fill:#0173b2;"/>
   </g>
   <g id="patch_22">
    <path clip-path="url(#pdf4777390f)" d="M 381.826573 252 
L 389.630769 252 
L 389.630769 131.2 
L 381.826573 131.2 
z
" style="fill:#0173b2;"/>
   </g>
   <g id="patch_23">
    <path clip-path="url(#pdf4777390f)" d="M 397.434965 252 
L 405.239161 252 
L 405.239161 205.980952 
L 397.434965 205.980952 
z
" style="fill:#0173b2;"/>
   </g>
   <g id="patch_24">
    <path clip-path="url(#pdf4777390f)" d="M 413.043357 252 
L 420.847552 252 
L 420.847552 208.857143 
L 413.043357 208.857143 
z
" style="fill:#0173b2;"/>
   </g>
   <g id="patch_25">
    <path clip-path="url(#pdf4777390f)" d="M 428.651748 252 
L 436.455944 252 
L 436.455944 226.114286 
L 428.651748 226.114286 
z
" style="fill:#0173b2;"/>
   </g>
   <g id="patch_26">
    <path clip-path="url(#pdf4777390f)" d="M 444.26014 252 
L 452.064336 252 
L 452.064336 233.304762 
L 444.26014 233.304762 
z
" style="fill:#0173b2;"/>
   </g>
   <g id="patch_27">
    <path clip-path="url(#pdf4777390f)" d="M 459.868531 252 
L 467.672727 252 
L 467.672727 247.685714 
L 459.868531 247.685714 
z
" style="fill:#0173b2;"/>
   </g>
   <g id="patch_28">
    <path clip-path="url(#pdf4777390f)" d="M 475.476923 252 
L 483.281119 252 
L 483.281119 250.561905 
L 475.476923 250.561905 
z
" style="fill:#0173b2;"/>
   </g>
   <g id="patch_29">
    <path clip-path="url(#pdf4777390f)" d="M 491.085315 252 
L 498.88951 252 
L 498.88951 246.247619 
L 491.085315 246.247619 
z
" style="fill:#0173b2;"/>
   </g>
   <g id="patch_30">
    <path clip-path="url(#pdf4777390f)" d="M 506.693706 252 
L 514.497902 252 
L 514.497902 250.561905 
L 506.693706 250.561905 
z
" style="fill:#0173b2;"/>
   </g>
   <g id="matplotlib.axis_3">
    <g id="xtick_11">
     <g id="line2d_18">
      <g>
       <use style="stroke:#000000;stroke-width:0.8;" x="323.295105" xlink:href="#m0360cf0764" y="252"/>
      </g>
     </g>
     <g id="text_20">
      <!-- 150-200 -->
      <g transform="translate(324.95073 284.069687)rotate(-90)scale(0.06 -0.06)">
       <use xlink:href="#DejaVuSans-31"/>
       <use x="63.623047" xlink:href="#DejaVuSans-35"/>
       <use x="127.246094" xlink:href="#DejaVuSans-30"/>
       <use x="190.869141" xlink:href="#DejaVuSans-2d"/>
       <use x="226.953125" xlink:href="#DejaVuSans-32"/>
       <use x="290.576172" xlink:href="#DejaVuSans-30"/>
       <use x="354.199219" xlink:href="#DejaVuSans-30"/>
      </g>
     </g>
    </g>
    <g id="xtick_12">
     <g id="line2d_19">
      <g>
       <use style="stroke:#000000;stroke-width:0.8;" x="338.903497" xlink:href="#m0360cf0764" y="252"/>
      </g>
     </g>
     <g id="text_21">
      <!-- 200-250 -->
      <g transform="translate(340.559122 284.069687)rotate(-90)scale(0.06 -0.06)">
       <use xlink:href="#DejaVuSans-32"/>
       <use x="63.623047" xlink:href="#DejaVuSans-30"/>
       <use x="127.246094" xlink:href="#DejaVuSans-30"/>
       <use x="190.869141" xlink:href="#DejaVuSans-2d"/>
       <use x="226.953125" xlink:href="#DejaVuSans-32"/>
       <use x="290.576172" xlink:href="#DejaVuSans-35"/>
       <use x="354.199219" xlink:href="#DejaVuSans-30"/>
      </g>
     </g>
    </g>
    <g id="xtick_13">
     <g id="line2d_20">
      <g>
       <use style="stroke:#000000;stroke-width:0.8;" x="354.511888" xlink:href="#m0360cf0764" y="252"/>
      </g>
     </g>
     <g id="text_22">
      <!-- 250-300 -->
      <g transform="translate(356.167513 284.069687)rotate(-90)scale(0.06 -0.06)">
       <use xlink:href="#DejaVuSans-32"/>
       <use x="63.623047" xlink:href="#DejaVuSans-35"/>
       <use x="127.246094" xlink:href="#DejaVuSans-30"/>
       <use x="190.869141" xlink:href="#DejaVuSans-2d"/>
       <use x="226.953125" xlink:href="#DejaVuSans-33"/>
       <use x="290.576172" xlink:href="#DejaVuSans-30"/>
       <use x="354.199219" xlink:href="#DejaVuSans-30"/>
      </g>
     </g>
    </g>
    <g id="xtick_14">
     <g id="line2d_21">
      <g>
       <use style="stroke:#000000;stroke-width:0.8;" x="370.12028" xlink:href="#m0360cf0764" y="252"/>
      </g>
     </g>
     <g id="text_23">
      <!-- 300-350 -->
      <g transform="translate(371.775905 284.069687)rotate(-90)scale(0.06 -0.06)">
       <use xlink:href="#DejaVuSans-33"/>
       <use x="63.623047" xlink:href="#DejaVuSans-30"/>
       <use x="127.246094" xlink:href="#DejaVuSans-30"/>
       <use x="190.869141" xlink:href="#DejaVuSans-2d"/>
       <use x="226.953125" xlink:href="#DejaVuSans-33"/>
       <use x="290.576172" xlink:href="#DejaVuSans-35"/>
       <use x="354.199219" xlink:href="#DejaVuSans-30"/>
      </g>
     </g>
    </g>
    <g id="xtick_15">
     <g id="line2d_22">
      <g>
       <use style="stroke:#000000;stroke-width:0.8;" x="385.728671" xlink:href="#m0360cf0764" y="252"/>
      </g>
     </g>
     <g id="text_24">
      <!-- 350-400 -->
      <g transform="translate(387.384296 284.069687)rotate(-90)scale(0.06 -0.06)">
       <use xlink:href="#DejaVuSans-33"/>
       <use x="63.623047" xlink:href="#DejaVuSans-35"/>
       <use x="127.246094" xlink:href="#DejaVuSans-30"/>
       <use x="190.869141" xlink:href="#DejaVuSans-2d"/>
       <use x="226.953125" xlink:href="#DejaVuSans-34"/>
       <use x="290.576172" xlink:href="#DejaVuSans-30"/>
       <use x="354.199219" xlink:href="#DejaVuSans-30"/>
      </g>
     </g>
    </g>
    <g id="xtick_16">
     <g id="line2d_23">
      <g>
       <use style="stroke:#000000;stroke-width:0.8;" x="401.337063" xlink:href="#m0360cf0764" y="252"/>
      </g>
     </g>
     <g id="text_25">
      <!-- 400-450 -->
      <g transform="translate(402.992688 284.069687)rotate(-90)scale(0.06 -0.06)">
       <use xlink:href="#DejaVuSans-34"/>
       <use x="63.623047" xlink:href="#DejaVuSans-30"/>
       <use x="127.246094" xlink:href="#DejaVuSans-30"/>
       <use x="190.869141" xlink:href="#DejaVuSans-2d"/>
       <use x="226.953125" xlink:href="#DejaVuSans-34"/>
       <use x="290.576172" xlink:href="#DejaVuSans-35"/>
       <use x="354.199219" xlink:href="#DejaVuSans-30"/>
      </g>
     </g>
    </g>
    <g id="xtick_17">
     <g id="line2d_24">
      <g>
       <use style="stroke:#000000;stroke-width:0.8;" x="416.945455" xlink:href="#m0360cf0764" y="252"/>
      </g>
     </g>
     <g id="text_26">
      <!-- 450-500 -->
      <g transform="translate(418.60108 284.069687)rotate(-90)scale(0.06 -0.06)">
       <use xlink:href="#DejaVuSans-34"/>
       <use x="63.623047" xlink:href="#DejaVuSans-35"/>
       <use x="127.246094" xlink:href="#DejaVuSans-30"/>
       <use x="190.869141" xlink:href="#DejaVuSans-2d"/>
       <use x="226.953125" xlink:href="#DejaVuSans-35"/>
       <use x="290.576172" xlink:href="#DejaVuSans-30"/>
       <use x="354.199219" xlink:href="#DejaVuSans-30"/>
      </g>
     </g>
    </g>
    <g id="xtick_18">
     <g id="line2d_25">
      <g>
       <use style="stroke:#000000;stroke-width:0.8;" x="432.553846" xlink:href="#m0360cf0764" y="252"/>
      </g>
     </g>
     <g id="text_27">
      <!-- 500-550 -->
      <g transform="translate(434.209471 284.069687)rotate(-90)scale(0.06 -0.06)">
       <use xlink:href="#DejaVuSans-35"/>
       <use x="63.623047" xlink:href="#DejaVuSans-30"/>
       <use x="127.246094" xlink:href="#DejaVuSans-30"/>
       <use x="190.869141" xlink:href="#DejaVuSans-2d"/>
       <use x="226.953125" xlink:href="#DejaVuSans-35"/>
       <use x="290.576172" xlink:href="#DejaVuSans-35"/>
       <use x="354.199219" xlink:href="#DejaVuSans-30"/>
      </g>
     </g>
    </g>
    <g id="xtick_19">
     <g id="line2d_26">
      <g>
       <use style="stroke:#000000;stroke-width:0.8;" x="448.162238" xlink:href="#m0360cf0764" y="252"/>
      </g>
     </g>
     <g id="text_28">
      <!-- 550-600 -->
      <g transform="translate(449.817863 284.069687)rotate(-90)scale(0.06 -0.06)">
       <use xlink:href="#DejaVuSans-35"/>
       <use x="63.623047" xlink:href="#DejaVuSans-35"/>
       <use x="127.246094" xlink:href="#DejaVuSans-30"/>
       <use x="190.869141" xlink:href="#DejaVuSans-2d"/>
       <use x="226.953125" xlink:href="#DejaVuSans-36"/>
       <use x="290.576172" xlink:href="#DejaVuSans-30"/>
       <use x="354.199219" xlink:href="#DejaVuSans-30"/>
      </g>
     </g>
    </g>
    <g id="xtick_20">
     <g id="line2d_27">
      <g>
       <use style="stroke:#000000;stroke-width:0.8;" x="463.770629" xlink:href="#m0360cf0764" y="252"/>
      </g>
     </g>
     <g id="text_29">
      <!-- 600-650 -->
      <g transform="translate(465.426254 284.069687)rotate(-90)scale(0.06 -0.06)">
       <use xlink:href="#DejaVuSans-36"/>
       <use x="63.623047" xlink:href="#DejaVuSans-30"/>
       <use x="127.246094" xlink:href="#DejaVuSans-30"/>
       <use x="190.869141" xlink:href="#DejaVuSans-2d"/>
       <use x="226.953125" xlink:href="#DejaVuSans-36"/>
       <use x="290.576172" xlink:href="#DejaVuSans-35"/>
       <use x="354.199219" xlink:href="#DejaVuSans-30"/>
      </g>
     </g>
    </g>
    <g id="xtick_21">
     <g id="line2d_28">
      <g>
       <use style="stroke:#000000;stroke-width:0.8;" x="479.379021" xlink:href="#m0360cf0764" y="252"/>
      </g>
     </g>
     <g id="text_30">
      <!-- 650-700 -->
      <g transform="translate(481.034646 284.069687)rotate(-90)scale(0.06 -0.06)">
       <defs>
        <path d="M 525 4666 
L 3525 4666 
L 3525 4397 
L 1831 0 
L 1172 0 
L 2766 4134 
L 525 4134 
L 525 4666 
z
" id="DejaVuSans-37" transform="scale(0.015625)"/>
       </defs>
       <use xlink:href="#DejaVuSans-36"/>
       <use x="63.623047" xlink:href="#DejaVuSans-35"/>
       <use x="127.246094" xlink:href="#DejaVuSans-30"/>
       <use x="190.869141" xlink:href="#DejaVuSans-2d"/>
       <use x="226.953125" xlink:href="#DejaVuSans-37"/>
       <use x="290.576172" xlink:href="#DejaVuSans-30"/>
       <use x="354.199219" xlink:href="#DejaVuSans-30"/>
      </g>
     </g>
    </g>
    <g id="xtick_22">
     <g id="line2d_29">
      <g>
       <use style="stroke:#000000;stroke-width:0.8;" x="494.987413" xlink:href="#m0360cf0764" y="252"/>
      </g>
     </g>
     <g id="text_31">
      <!-- nan -->
      <g transform="translate(496.643038 270.281875)rotate(-90)scale(0.06 -0.06)">
       <use xlink:href="#DejaVuSans-6e"/>
       <use x="63.378906" xlink:href="#DejaVuSans-61"/>
       <use x="124.658203" xlink:href="#DejaVuSans-6e"/>
      </g>
     </g>
    </g>
    <g id="xtick_23">
     <g id="line2d_30">
      <g>
       <use style="stroke:#000000;stroke-width:0.8;" x="510.595804" xlink:href="#m0360cf0764" y="252"/>
      </g>
     </g>
     <g id="text_32">
      <!-- nan -->
      <g transform="translate(512.251429 270.281875)rotate(-90)scale(0.06 -0.06)">
       <use xlink:href="#DejaVuSans-6e"/>
       <use x="63.378906" xlink:href="#DejaVuSans-61"/>
       <use x="124.658203" xlink:href="#DejaVuSans-6e"/>
      </g>
     </g>
    </g>
   </g>
   <g id="matplotlib.axis_4">
    <g id="ytick_8">
     <g id="line2d_31">
      <g>
       <use style="stroke:#000000;stroke-width:0.8;" x="315.490909" xlink:href="#m0cf86b9b07" y="252"/>
      </g>
     </g>
     <g id="text_33">
      <!-- 0 -->
      <g transform="translate(304.673409 254.279531)scale(0.06 -0.06)">
       <use xlink:href="#DejaVuSans-30"/>
      </g>
     </g>
    </g>
    <g id="ytick_9">
     <g id="line2d_32">
      <g>
       <use style="stroke:#000000;stroke-width:0.8;" x="315.490909" xlink:href="#m0cf86b9b07" y="223.238095"/>
      </g>
     </g>
     <g id="text_34">
      <!-- 20 -->
      <g transform="translate(300.855909 225.517626)scale(0.06 -0.06)">
       <use xlink:href="#DejaVuSans-32"/>
       <use x="63.623047" xlink:href="#DejaVuSans-30"/>
      </g>
     </g>
    </g>
    <g id="ytick_10">
     <g id="line2d_33">
      <g>
       <use style="stroke:#000000;stroke-width:0.8;" x="315.490909" xlink:href="#m0cf86b9b07" y="194.47619"/>
      </g>
     </g>
     <g id="text_35">
      <!-- 40 -->
      <g transform="translate(300.855909 196.755722)scale(0.06 -0.06)">
       <use xlink:href="#DejaVuSans-34"/>
       <use x="63.623047" xlink:href="#DejaVuSans-30"/>
      </g>
     </g>
    </g>
    <g id="ytick_11">
     <g id="line2d_34">
      <g>
       <use style="stroke:#000000;stroke-width:0.8;" x="315.490909" xlink:href="#m0cf86b9b07" y="165.714286"/>
      </g>
     </g>
     <g id="text_36">
      <!-- 60 -->
      <g transform="translate(300.855909 167.993817)scale(0.06 -0.06)">
       <use xlink:href="#DejaVuSans-36"/>
       <use x="63.623047" xlink:href="#DejaVuSans-30"/>
      </g>
     </g>
    </g>
    <g id="ytick_12">
     <g id="line2d_35">
      <g>
       <use style="stroke:#000000;stroke-width:0.8;" x="315.490909" xlink:href="#m0cf86b9b07" y="136.952381"/>
      </g>
     </g>
     <g id="text_37">
      <!-- 80 -->
      <g transform="translate(300.855909 139.231912)scale(0.06 -0.06)">
       <use xlink:href="#DejaVuSans-38"/>
       <use x="63.623047" xlink:href="#DejaVuSans-30"/>
      </g>
     </g>
    </g>
    <g id="ytick_13">
     <g id="line2d_36">
      <g>
       <use style="stroke:#000000;stroke-width:0.8;" x="315.490909" xlink:href="#m0cf86b9b07" y="108.190476"/>
      </g>
     </g>
     <g id="text_38">
      <!-- 100 -->
      <g transform="translate(297.038409 110.470007)scale(0.06 -0.06)">
       <use xlink:href="#DejaVuSans-31"/>
       <use x="63.623047" xlink:href="#DejaVuSans-30"/>
       <use x="127.246094" xlink:href="#DejaVuSans-30"/>
      </g>
     </g>
    </g>
    <g id="ytick_14">
     <g id="line2d_37">
      <g>
       <use style="stroke:#000000;stroke-width:0.8;" x="315.490909" xlink:href="#m0cf86b9b07" y="79.428571"/>
      </g>
     </g>
     <g id="text_39">
      <!-- 120 -->
      <g transform="translate(297.038409 81.708103)scale(0.06 -0.06)">
       <use xlink:href="#DejaVuSans-31"/>
       <use x="63.623047" xlink:href="#DejaVuSans-32"/>
       <use x="127.246094" xlink:href="#DejaVuSans-30"/>
      </g>
     </g>
    </g>
    <g id="ytick_15">
     <g id="line2d_38">
      <g>
       <use style="stroke:#000000;stroke-width:0.8;" x="315.490909" xlink:href="#m0cf86b9b07" y="50.666667"/>
      </g>
     </g>
     <g id="text_40">
      <!-- 140 -->
      <g transform="translate(297.038409 52.946198)scale(0.06 -0.06)">
       <use xlink:href="#DejaVuSans-31"/>
       <use x="63.623047" xlink:href="#DejaVuSans-34"/>
       <use x="127.246094" xlink:href="#DejaVuSans-30"/>
      </g>
     </g>
    </g>
    <g id="text_41">
     <!-- Frequency -->
     <g transform="translate(291.790597 158.777813)rotate(-90)scale(0.06 -0.06)">
      <use xlink:href="#DejaVuSans-46"/>
      <use x="50.269531" xlink:href="#DejaVuSans-72"/>
      <use x="89.132812" xlink:href="#DejaVuSans-65"/>
      <use x="150.65625" xlink:href="#DejaVuSans-71"/>
      <use x="214.132812" xlink:href="#DejaVuSans-75"/>
      <use x="277.511719" xlink:href="#DejaVuSans-65"/>
      <use x="339.035156" xlink:href="#DejaVuSans-6e"/>
      <use x="402.414062" xlink:href="#DejaVuSans-63"/>
      <use x="457.394531" xlink:href="#DejaVuSans-79"/>
     </g>
    </g>
   </g>
   <g id="patch_31">
    <path d="M 315.490909 252 
L 315.490909 34.56 
" style="fill:none;stroke:#000000;stroke-linecap:square;stroke-linejoin:miter;stroke-width:0.8;"/>
   </g>
   <g id="patch_32">
    <path d="M 518.4 252 
L 518.4 34.56 
" style="fill:none;stroke:#000000;stroke-linecap:square;stroke-linejoin:miter;stroke-width:0.8;"/>
   </g>
   <g id="patch_33">
    <path d="M 315.490909 252 
L 518.4 252 
" style="fill:none;stroke:#000000;stroke-linecap:square;stroke-linejoin:miter;stroke-width:0.8;"/>
   </g>
   <g id="patch_34">
    <path d="M 315.490909 34.56 
L 518.4 34.56 
" style="fill:none;stroke:#000000;stroke-linecap:square;stroke-linejoin:miter;stroke-width:0.8;"/>
   </g>
   <g id="text_42">
    <!-- Rat weight [grams] -->
    <g transform="translate(382.31908 28.56)scale(0.072 -0.072)">
     <defs>
      <path d="M 269 3500 
L 844 3500 
L 1563 769 
L 2278 3500 
L 2956 3500 
L 3675 769 
L 4391 3500 
L 4966 3500 
L 4050 0 
L 3372 0 
L 2619 2869 
L 1863 0 
L 1184 0 
L 269 3500 
z
" id="DejaVuSans-77" transform="scale(0.015625)"/>
      <path d="M 603 3500 
L 1178 3500 
L 1178 0 
L 603 0 
L 603 3500 
z
M 603 4863 
L 1178 4863 
L 1178 4134 
L 603 4134 
L 603 4863 
z
" id="DejaVuSans-69" transform="scale(0.015625)"/>
     </defs>
     <use xlink:href="#DejaVuSans-52"/>
     <use x="67.232422" xlink:href="#DejaVuSans-61"/>
     <use x="128.511719" xlink:href="#DejaVuSans-74"/>
     <use x="167.720703" xlink:href="#DejaVuSans-20"/>
     <use x="199.507812" xlink:href="#DejaVuSans-77"/>
     <use x="281.294922" xlink:href="#DejaVuSans-65"/>
     <use x="342.818359" xlink:href="#DejaVuSans-69"/>
     <use x="370.601562" xlink:href="#DejaVuSans-67"/>
     <use x="434.078125" xlink:href="#DejaVuSans-68"/>
     <use x="497.457031" xlink:href="#DejaVuSans-74"/>
     <use x="536.666016" xlink:href="#DejaVuSans-20"/>
     <use x="568.453125" xlink:href="#DejaVuSans-5b"/>
     <use x="607.466797" xlink:href="#DejaVuSans-67"/>
     <use x="670.943359" xlink:href="#DejaVuSans-72"/>
     <use x="712.056641" xlink:href="#DejaVuSans-61"/>
     <use x="773.335938" xlink:href="#DejaVuSans-6d"/>
     <use x="870.748047" xlink:href="#DejaVuSans-73"/>
     <use x="922.847656" xlink:href="#DejaVuSans-5d"/>
    </g>
   </g>
  </g>
 </g>
 <defs>
  <clipPath id="p42a9eeb31e">
   <rect height="217.44" width="202.909091" x="72" y="34.56"/>
  </clipPath>
  <clipPath id="pdf4777390f">
   <rect height="217.44" width="202.909091" x="315.490909" y="34.56"/>
  </clipPath>
 </defs>
</svg>
