<?xml version="1.0" encoding="utf-8" standalone="no"?>
<!DOCTYPE svg PUBLIC "-//W3C//DTD SVG 1.1//EN"
  "http://www.w3.org/Graphics/SVG/1.1/DTD/svg11.dtd">
<svg height="288pt" version="1.1" viewBox="0 0 432 288" width="432pt" xmlns="http://www.w3.org/2000/svg" xmlns:xlink="http://www.w3.org/1999/xlink">
 <metadata>
  <rdf:RDF xmlns:cc="http://creativecommons.org/ns#" xmlns:dc="http://purl.org/dc/elements/1.1/" xmlns:rdf="http://www.w3.org/1999/02/22-rdf-syntax-ns#">
   <cc:Work>
    <dc:type rdf:resource="http://purl.org/dc/dcmitype/StillImage"/>
    <dc:date>2022-02-09T17:18:26.549106</dc:date>
    <dc:format>image/svg+xml</dc:format>
    <dc:creator>
     <cc:Agent>
      <dc:title>Matplotlib v3.4.1, https://matplotlib.org/</dc:title>
     </cc:Agent>
    </dc:creator>
   </cc:Work>
  </rdf:RDF>
 </metadata>
 <defs>
  <style type="text/css">*{stroke-linecap:butt;stroke-linejoin:round;}</style>
 </defs>
 <g id="figure_1">
  <g id="patch_1">
   <path d="M 0 288 
L 432 288 
L 432 0 
L 0 0 
z
" style="fill:none;"/>
  </g>
  <g id="axes_1">
   <g id="patch_2">
    <path d="M 54 252 
L 388.8 252 
L 388.8 34.56 
L 54 34.56 
z
" style="fill:#ffffff;"/>
   </g>
   <g id="PathCollection_1">
    <path clip-path="url(#p0ea1ce22b6)" d="M 128.4 209.27017 
C 129.88253 209.27017 131.30454 208.681154 132.352847 207.632847 
C 133.401154 206.58454 133.99017 205.16253 133.99017 203.68 
C 133.99017 202.19747 133.401154 200.77546 132.352847 199.727153 
C 131.30454 198.678846 129.88253 198.08983 128.4 198.08983 
C 126.91747 198.08983 125.49546 198.678846 124.447153 199.727153 
C 123.398846 200.77546 122.80983 202.19747 122.80983 203.68 
C 122.80983 205.16253 123.398846 206.58454 124.447153 207.632847 
C 125.49546 208.681154 126.91747 209.27017 128.4 209.27017 
z
" style="fill:#440154;stroke:#440154;"/>
    <path clip-path="url(#p0ea1ce22b6)" d="M 128.4 187.057784 
C 130.399044 187.057784 132.316481 186.263555 133.730018 184.850018 
C 135.143555 183.436481 135.937784 181.519044 135.937784 179.52 
C 135.937784 177.520956 135.143555 175.603519 133.730018 174.189982 
C 132.316481 172.776445 130.399044 171.982216 128.4 171.982216 
C 126.400956 171.982216 124.483519 172.776445 123.069982 174.189982 
C 121.656445 175.603519 120.862216 177.520956 120.862216 179.52 
C 120.862216 181.519044 121.656445 183.436481 123.069982 184.850018 
C 124.483519 186.263555 126.400956 187.057784 128.4 187.057784 
z
" style="fill:#297a8e;stroke:#297a8e;"/>
    <path clip-path="url(#p0ea1ce22b6)" d="M 128.4 164.388939 
C 130.794503 164.388939 133.091255 163.437593 134.784424 161.744424 
C 136.477593 160.051255 137.428939 157.754503 137.428939 155.36 
C 137.428939 152.965497 136.477593 150.668745 134.784424 148.975576 
C 133.091255 147.282407 130.794503 146.331061 128.4 146.331061 
C 126.005497 146.331061 123.708745 147.282407 122.015576 148.975576 
C 120.322407 150.668745 119.371061 152.965497 119.371061 155.36 
C 119.371061 157.754503 120.322407 160.051255 122.015576 161.744424 
C 123.708745 163.437593 126.005497 164.388939 128.4 164.388939 
z
" style="fill:#7cd250;stroke:#7cd250;"/>
    <path clip-path="url(#p0ea1ce22b6)" d="M 128.4 140.448044 
C 130.85261 140.448044 133.205097 139.473612 134.939355 137.739355 
C 136.673612 136.005097 137.648044 133.65261 137.648044 131.2 
C 137.648044 128.74739 136.673612 126.394903 134.939355 124.660645 
C 133.205097 122.926388 130.85261 121.951956 128.4 121.951956 
C 125.94739 121.951956 123.594903 122.926388 121.860645 124.660645 
C 120.126388 126.394903 119.151956 128.74739 119.151956 131.2 
C 119.151956 133.65261 120.126388 136.005097 121.860645 137.739355 
C 123.594903 139.473612 125.94739 140.448044 128.4 140.448044 
z
" style="fill:#a8db34;stroke:#a8db34;"/>
    <path clip-path="url(#p0ea1ce22b6)" d="M 128.4 116.98778 
C 131.038182 116.98778 133.568666 115.939619 135.434143 114.074143 
C 137.299619 112.208666 138.34778 109.678182 138.34778 107.04 
C 138.34778 104.401818 137.299619 101.871334 135.434143 100.005857 
C 133.568666 98.140381 131.038182 97.09222 128.4 97.09222 
C 125.761818 97.09222 123.231334 98.140381 121.365857 100.005857 
C 119.500381 101.871334 118.45222 104.401818 118.45222 107.04 
C 118.45222 109.678182 119.500381 112.208666 121.365857 114.074143 
C 123.231334 115.939619 125.761818 116.98778 128.4 116.98778 
z
" style="fill:#fde725;stroke:#fde725;"/>
    <path clip-path="url(#p0ea1ce22b6)" d="M 128.4 93.33825 
C 131.17356 93.33825 133.833896 92.236303 135.7951 90.2751 
C 137.756303 88.313896 138.85825 85.65356 138.85825 82.88 
C 138.85825 80.10644 137.756303 77.446104 135.7951 75.4849 
C 133.833896 73.523697 131.17356 72.42175 128.4 72.42175 
C 125.62644 72.42175 122.966104 73.523697 121.0049 75.4849 
C 119.043697 77.446104 117.94175 80.10644 117.94175 82.88 
C 117.94175 85.65356 119.043697 88.313896 121.0049 90.2751 
C 122.966104 92.236303 125.62644 93.33825 128.4 93.33825 
z
" style="fill:#fde725;stroke:#fde725;"/>
    <path clip-path="url(#p0ea1ce22b6)" d="M 190.4 110.267486 
C 191.255939 110.267486 192.076937 109.927418 192.682177 109.322177 
C 193.287418 108.716937 193.627486 107.895939 193.627486 107.04 
C 193.627486 106.184061 193.287418 105.363063 192.682177 104.757823 
C 192.076937 104.152582 191.255939 103.812514 190.4 103.812514 
C 189.544061 103.812514 188.723063 104.152582 188.117823 104.757823 
C 187.512582 105.363063 187.172514 106.184061 187.172514 107.04 
C 187.172514 107.895939 187.512582 108.716937 188.117823 109.322177 
C 188.723063 109.927418 189.544061 110.267486 190.4 110.267486 
z
" style="fill:#440154;stroke:#440154;"/>
    <path clip-path="url(#p0ea1ce22b6)" d="M 190.4 86.832847 
C 191.448307 86.832847 192.45382 86.41635 193.195085 85.675085 
C 193.93635 84.93382 194.352847 83.928307 194.352847 82.88 
C 194.352847 81.831693 193.93635 80.82618 193.195085 80.084915 
C 192.45382 79.34365 191.448307 78.927153 190.4 78.927153 
C 189.351693 78.927153 188.34618 79.34365 187.604915 80.084915 
C 186.86365 80.82618 186.447153 81.831693 186.447153 82.88 
C 186.447153 83.928307 186.86365 84.93382 187.604915 85.675085 
C 188.34618 86.41635 189.351693 86.832847 190.4 86.832847 
z
" style="fill:#440154;stroke:#440154;"/>
    <path clip-path="url(#p0ea1ce22b6)" d="M 190.4 160.57286 
C 191.782467 160.57286 193.108497 160.0236 194.086049 159.046049 
C 195.0636 158.068497 195.61286 156.742467 195.61286 155.36 
C 195.61286 153.977533 195.0636 152.651503 194.086049 151.673951 
C 193.108497 150.6964 191.782467 150.14714 190.4 150.14714 
C 189.017533 150.14714 187.691503 150.6964 186.713951 151.673951 
C 185.7364 152.651503 185.18714 153.977533 185.18714 155.36 
C 185.18714 156.742467 185.7364 158.068497 186.713951 159.046049 
C 187.691503 160.0236 189.017533 160.57286 190.4 160.57286 
z
" style="fill:#440154;stroke:#440154;"/>
    <path clip-path="url(#p0ea1ce22b6)" d="M 190.4 136.641072 
C 191.842989 136.641072 193.227071 136.067766 194.247419 135.047419 
C 195.267766 134.027071 195.841072 132.642989 195.841072 131.2 
C 195.841072 129.757011 195.267766 128.372929 194.247419 127.352581 
C 193.227071 126.332234 191.842989 125.758928 190.4 125.758928 
C 188.957011 125.758928 187.572929 126.332234 186.552581 127.352581 
C 185.532234 128.372929 184.958928 129.757011 184.958928 131.2 
C 184.958928 132.642989 185.532234 134.027071 186.552581 135.047419 
C 187.572929 136.067766 188.957011 136.641072 190.4 136.641072 
z
" style="fill:#440154;stroke:#440154;"/>
    <path clip-path="url(#p0ea1ce22b6)" d="M 190.4 187.057784 
C 192.399044 187.057784 194.316481 186.263555 195.730018 184.850018 
C 197.143555 183.436481 197.937784 181.519044 197.937784 179.52 
C 197.937784 177.520956 197.143555 175.603519 195.730018 174.189982 
C 194.316481 172.776445 192.399044 171.982216 190.4 171.982216 
C 188.400956 171.982216 186.483519 172.776445 185.069982 174.189982 
C 183.656445 175.603519 182.862216 177.520956 182.862216 179.52 
C 182.862216 181.519044 183.656445 183.436481 185.069982 184.850018 
C 186.483519 186.263555 188.400956 187.057784 190.4 187.057784 
z
" style="fill:#297a8e;stroke:#297a8e;"/>
    <path clip-path="url(#p0ea1ce22b6)" d="M 190.4 211.585694 
C 192.496615 211.585694 194.50764 210.7527 195.99017 209.27017 
C 197.4727 207.78764 198.305694 205.776615 198.305694 203.68 
C 198.305694 201.583385 197.4727 199.57236 195.99017 198.08983 
C 194.50764 196.6073 192.496615 195.774306 190.4 195.774306 
C 188.303385 195.774306 186.29236 196.6073 184.80983 198.08983 
C 183.3273 199.57236 182.494306 201.583385 182.494306 203.68 
C 182.494306 205.776615 183.3273 207.78764 184.80983 209.27017 
C 186.29236 210.7527 188.303385 211.585694 190.4 211.585694 
z
" style="fill:#21918c;stroke:#21918c;"/>
    <path clip-path="url(#p0ea1ce22b6)" d="M 252.4 203.68 
C 252.4 203.68 252.4 203.68 252.4 203.68 
C 252.4 203.68 252.4 203.68 252.4 203.68 
C 252.4 203.68 252.4 203.68 252.4 203.68 
C 252.4 203.68 252.4 203.68 252.4 203.68 
C 252.4 203.68 252.4 203.68 252.4 203.68 
C 252.4 203.68 252.4 203.68 252.4 203.68 
C 252.4 203.68 252.4 203.68 252.4 203.68 
C 252.4 203.68 252.4 203.68 252.4 203.68 
z
" style="fill:#440154;stroke:#440154;"/>
    <path clip-path="url(#p0ea1ce22b6)" d="M 252.4 131.2 
C 252.4 131.2 252.4 131.2 252.4 131.2 
C 252.4 131.2 252.4 131.2 252.4 131.2 
C 252.4 131.2 252.4 131.2 252.4 131.2 
C 252.4 131.2 252.4 131.2 252.4 131.2 
C 252.4 131.2 252.4 131.2 252.4 131.2 
C 252.4 131.2 252.4 131.2 252.4 131.2 
C 252.4 131.2 252.4 131.2 252.4 131.2 
C 252.4 131.2 252.4 131.2 252.4 131.2 
z
" style="fill:#440154;stroke:#440154;"/>
    <path clip-path="url(#p0ea1ce22b6)" d="M 252.4 82.88 
C 252.4 82.88 252.4 82.88 252.4 82.88 
C 252.4 82.88 252.4 82.88 252.4 82.88 
C 252.4 82.88 252.4 82.88 252.4 82.88 
C 252.4 82.88 252.4 82.88 252.4 82.88 
C 252.4 82.88 252.4 82.88 252.4 82.88 
C 252.4 82.88 252.4 82.88 252.4 82.88 
C 252.4 82.88 252.4 82.88 252.4 82.88 
C 252.4 82.88 252.4 82.88 252.4 82.88 
z
" style="fill:#440154;stroke:#440154;"/>
    <path clip-path="url(#p0ea1ce22b6)" d="M 252.4 109.322177 
C 253.005241 109.322177 253.585773 109.081713 254.013743 108.653743 
C 254.441713 108.225773 254.682177 107.645241 254.682177 107.04 
C 254.682177 106.434759 254.441713 105.854227 254.013743 105.426257 
C 253.585773 104.998287 253.005241 104.757823 252.4 104.757823 
C 251.794759 104.757823 251.214227 104.998287 250.786257 105.426257 
C 250.358287 105.854227 250.117823 106.434759 250.117823 107.04 
C 250.117823 107.645241 250.358287 108.225773 250.786257 108.653743 
C 251.214227 109.081713 251.794759 109.322177 252.4 109.322177 
z
" style="fill:#440154;stroke:#440154;"/>
    <path clip-path="url(#p0ea1ce22b6)" d="M 252.4 157.691262 
C 253.018258 157.691262 253.611277 157.445626 254.048451 157.008451 
C 254.485626 156.571277 254.731262 155.978258 254.731262 155.36 
C 254.731262 154.741742 254.485626 154.148723 254.048451 153.711549 
C 253.611277 153.274374 253.018258 153.028738 252.4 153.028738 
C 251.781742 153.028738 251.188723 153.274374 250.751549 153.711549 
C 250.314374 154.148723 250.068738 154.741742 250.068738 155.36 
C 250.068738 155.978258 250.314374 156.571277 250.751549 157.008451 
C 251.188723 157.445626 251.781742 157.691262 252.4 157.691262 
z
" style="fill:#440154;stroke:#440154;"/>
    <path clip-path="url(#p0ea1ce22b6)" d="M 252.4 182.890999 
C 253.293999 182.890999 254.151503 182.53581 254.783656 181.903656 
C 255.41581 181.271503 255.770999 180.413999 255.770999 179.52 
C 255.770999 178.626001 255.41581 177.768497 254.783656 177.136344 
C 254.151503 176.50419 253.293999 176.149001 252.4 176.149001 
C 251.506001 176.149001 250.648497 176.50419 250.016344 177.136344 
C 249.38419 177.768497 249.029001 178.626001 249.029001 179.52 
C 249.029001 180.413999 249.38419 181.271503 250.016344 181.903656 
C 250.648497 182.53581 251.506001 182.890999 252.4 182.890999 
z
" style="fill:#440154;stroke:#440154;"/>
    <path clip-path="url(#p0ea1ce22b6)" d="M 314.4 179.52 
C 314.4 179.52 314.4 179.52 314.4 179.52 
C 314.4 179.52 314.4 179.52 314.4 179.52 
C 314.4 179.52 314.4 179.52 314.4 179.52 
C 314.4 179.52 314.4 179.52 314.4 179.52 
C 314.4 179.52 314.4 179.52 314.4 179.52 
C 314.4 179.52 314.4 179.52 314.4 179.52 
C 314.4 179.52 314.4 179.52 314.4 179.52 
C 314.4 179.52 314.4 179.52 314.4 179.52 
z
" style="fill:#440154;stroke:#440154;"/>
    <path clip-path="url(#p0ea1ce22b6)" d="M 314.4 82.88 
C 314.4 82.88 314.4 82.88 314.4 82.88 
C 314.4 82.88 314.4 82.88 314.4 82.88 
C 314.4 82.88 314.4 82.88 314.4 82.88 
C 314.4 82.88 314.4 82.88 314.4 82.88 
C 314.4 82.88 314.4 82.88 314.4 82.88 
C 314.4 82.88 314.4 82.88 314.4 82.88 
C 314.4 82.88 314.4 82.88 314.4 82.88 
C 314.4 82.88 314.4 82.88 314.4 82.88 
z
" style="fill:#440154;stroke:#440154;"/>
    <path clip-path="url(#p0ea1ce22b6)" d="M 314.4 134.341404 
C 315.23311 134.341404 316.03221 134.010406 316.621308 133.421308 
C 317.210406 132.83221 317.541404 132.03311 317.541404 131.2 
C 317.541404 130.36689 317.210406 129.56779 316.621308 128.978692 
C 316.03221 128.389594 315.23311 128.058596 314.4 128.058596 
C 313.56689 128.058596 312.76779 128.389594 312.178692 128.978692 
C 311.589594 129.56779 311.258596 130.36689 311.258596 131.2 
C 311.258596 132.03311 311.589594 132.83221 312.178692 133.421308 
C 312.76779 134.010406 313.56689 134.341404 314.4 134.341404 
z
" style="fill:#440154;stroke:#440154;"/>
    <path clip-path="url(#p0ea1ce22b6)" d="M 314.4 110.267486 
C 315.255939 110.267486 316.076937 109.927418 316.682177 109.322177 
C 317.287418 108.716937 317.627486 107.895939 317.627486 107.04 
C 317.627486 106.184061 317.287418 105.363063 316.682177 104.757823 
C 316.076937 104.152582 315.255939 103.812514 314.4 103.812514 
C 313.544061 103.812514 312.723063 104.152582 312.117823 104.757823 
C 311.512582 105.363063 311.172514 106.184061 311.172514 107.04 
C 311.172514 107.895939 311.512582 108.716937 312.117823 109.322177 
C 312.723063 109.927418 313.544061 110.267486 314.4 110.267486 
z
" style="fill:#440154;stroke:#440154;"/>
    <path clip-path="url(#p0ea1ce22b6)" d="M 314.4 158.656902 
C 315.274349 158.656902 316.113004 158.30952 316.731262 157.691262 
C 317.34952 157.073004 317.696902 156.234349 317.696902 155.36 
C 317.696902 154.485651 317.34952 153.646996 316.731262 153.028738 
C 316.113004 152.41048 315.274349 152.063098 314.4 152.063098 
C 313.525651 152.063098 312.686996 152.41048 312.068738 153.028738 
C 311.45048 153.646996 311.103098 154.485651 311.103098 155.36 
C 311.103098 156.234349 311.45048 157.073004 312.068738 157.691262 
C 312.686996 158.30952 313.525651 158.656902 314.4 158.656902 
z
" style="fill:#440154;stroke:#440154;"/>
    <path clip-path="url(#p0ea1ce22b6)" d="M 314.4 209.27017 
C 315.88253 209.27017 317.30454 208.681154 318.352847 207.632847 
C 319.401154 206.58454 319.99017 205.16253 319.99017 203.68 
C 319.99017 202.19747 319.401154 200.77546 318.352847 199.727153 
C 317.30454 198.678846 315.88253 198.08983 314.4 198.08983 
C 312.91747 198.08983 311.49546 198.678846 310.447153 199.727153 
C 309.398846 200.77546 308.80983 202.19747 308.80983 203.68 
C 308.80983 205.16253 309.398846 206.58454 310.447153 207.632847 
C 311.49546 208.681154 312.91747 209.27017 314.4 209.27017 
z
" style="fill:#440154;stroke:#440154;"/>
   </g>
   <g id="matplotlib.axis_1">
    <g id="xtick_1">
     <g id="line2d_1">
      <defs>
       <path d="M 0 0 
L 0 3.5 
" id="m954bb96866" style="stroke:#000000;stroke-width:0.8;"/>
      </defs>
      <g>
       <use style="stroke:#000000;stroke-width:0.8;" x="128.4" xlink:href="#m954bb96866" y="252"/>
      </g>
     </g>
     <g id="text_1">
      <text style="font-family:DejaVu Sans;font-size:6px;font-stretch:normal;font-style:normal;font-weight:normal;text-anchor:middle;" transform="rotate(-0, 128.4, 263.559062)" x="128.4" y="263.559062">Specific</text>
     </g>
    </g>
    <g id="xtick_2">
     <g id="line2d_2">
      <g>
       <use style="stroke:#000000;stroke-width:0.8;" x="190.4" xlink:href="#m954bb96866" y="252"/>
      </g>
     </g>
     <g id="text_2">
      <text style="font-family:DejaVu Sans;font-size:6px;font-stretch:normal;font-style:normal;font-weight:normal;text-anchor:middle;" transform="rotate(-0, 190.4, 263.559062)" x="190.4" y="263.559062">No</text>
     </g>
    </g>
    <g id="xtick_3">
     <g id="line2d_3">
      <g>
       <use style="stroke:#000000;stroke-width:0.8;" x="252.4" xlink:href="#m954bb96866" y="252"/>
      </g>
     </g>
     <g id="text_3">
      <text style="font-family:DejaVu Sans;font-size:6px;font-stretch:normal;font-style:normal;font-weight:normal;text-anchor:middle;" transform="rotate(-0, 252.4, 263.559062)" x="252.4" y="263.559062">Spurious</text>
     </g>
    </g>
    <g id="xtick_4">
     <g id="line2d_4">
      <g>
       <use style="stroke:#000000;stroke-width:0.8;" x="314.4" xlink:href="#m954bb96866" y="252"/>
      </g>
     </g>
     <g id="text_4">
      <text style="font-family:DejaVu Sans;font-size:6px;font-stretch:normal;font-style:normal;font-weight:normal;text-anchor:middle;" transform="rotate(-0, 314.4, 263.559062)" x="314.4" y="263.559062">Unspecific</text>
     </g>
    </g>
   </g>
   <g id="matplotlib.axis_2">
    <g id="ytick_1">
     <g id="line2d_5">
      <defs>
       <path d="M 0 0 
L -3.5 0 
" id="m3df1fc15cc" style="stroke:#000000;stroke-width:0.8;"/>
      </defs>
      <g>
       <use style="stroke:#000000;stroke-width:0.8;" x="54" xlink:href="#m3df1fc15cc" y="203.68"/>
      </g>
     </g>
     <g id="text_5">
      <text style="font-family:DejaVu Sans;font-size:6px;font-stretch:normal;font-style:normal;font-weight:normal;text-anchor:end;" transform="rotate(-0, 47, 205.959531)" x="47" y="205.959531">(-0.0743, 12.381]</text>
     </g>
    </g>
    <g id="ytick_2">
     <g id="line2d_6">
      <g>
       <use style="stroke:#000000;stroke-width:0.8;" x="54" xlink:href="#m3df1fc15cc" y="179.52"/>
      </g>
     </g>
     <g id="text_6">
      <text style="font-family:DejaVu Sans;font-size:6px;font-stretch:normal;font-style:normal;font-weight:normal;text-anchor:end;" transform="rotate(-0, 47, 181.799531)" x="47" y="181.799531">(12.381, 24.763]</text>
     </g>
    </g>
    <g id="ytick_3">
     <g id="line2d_7">
      <g>
       <use style="stroke:#000000;stroke-width:0.8;" x="54" xlink:href="#m3df1fc15cc" y="155.36"/>
      </g>
     </g>
     <g id="text_7">
      <text style="font-family:DejaVu Sans;font-size:6px;font-stretch:normal;font-style:normal;font-weight:normal;text-anchor:end;" transform="rotate(-0, 47, 157.639531)" x="47" y="157.639531">(49.526, 61.907]</text>
     </g>
    </g>
    <g id="ytick_4">
     <g id="line2d_8">
      <g>
       <use style="stroke:#000000;stroke-width:0.8;" x="54" xlink:href="#m3df1fc15cc" y="131.2"/>
      </g>
     </g>
     <g id="text_8">
      <text style="font-family:DejaVu Sans;font-size:6px;font-stretch:normal;font-style:normal;font-weight:normal;text-anchor:end;" transform="rotate(-0, 47, 133.479531)" x="47" y="133.479531">(24.763, 37.144]</text>
     </g>
    </g>
    <g id="ytick_5">
     <g id="line2d_9">
      <g>
       <use style="stroke:#000000;stroke-width:0.8;" x="54" xlink:href="#m3df1fc15cc" y="107.04"/>
      </g>
     </g>
     <g id="text_9">
      <text style="font-family:DejaVu Sans;font-size:6px;font-stretch:normal;font-style:normal;font-weight:normal;text-anchor:end;" transform="rotate(-0, 47, 109.319531)" x="47" y="109.319531">(37.144, 49.526]</text>
     </g>
    </g>
    <g id="ytick_6">
     <g id="line2d_10">
      <g>
       <use style="stroke:#000000;stroke-width:0.8;" x="54" xlink:href="#m3df1fc15cc" y="82.88"/>
      </g>
     </g>
     <g id="text_10">
      <text style="font-family:DejaVu Sans;font-size:6px;font-stretch:normal;font-style:normal;font-weight:normal;text-anchor:end;" transform="rotate(-0, 47, 85.159531)" x="47" y="85.159531">(61.907, 74.289]</text>
     </g>
    </g>
   </g>
   <g id="patch_3">
    <path d="M 54 252 
L 54 34.56 
" style="fill:none;stroke:#000000;stroke-linecap:square;stroke-linejoin:miter;stroke-width:0.8;"/>
   </g>
   <g id="patch_4">
    <path d="M 388.8 252 
L 388.8 34.56 
" style="fill:none;stroke:#000000;stroke-linecap:square;stroke-linejoin:miter;stroke-width:0.8;"/>
   </g>
   <g id="patch_5">
    <path d="M 54 252 
L 388.8 252 
" style="fill:none;stroke:#000000;stroke-linecap:square;stroke-linejoin:miter;stroke-width:0.8;"/>
   </g>
   <g id="patch_6">
    <path d="M 54 34.56 
L 388.8 34.56 
" style="fill:none;stroke:#000000;stroke-linecap:square;stroke-linejoin:miter;stroke-width:0.8;"/>
   </g>
  </g>
 </g>
 <defs>
  <clipPath id="p0ea1ce22b6">
   <rect height="217.44" width="334.8" x="54" y="34.56"/>
  </clipPath>
 </defs>
</svg>
