<?xml version="1.0" encoding="utf-8" standalone="no"?>
<!DOCTYPE svg PUBLIC "-//W3C//DTD SVG 1.1//EN"
  "http://www.w3.org/Graphics/SVG/1.1/DTD/svg11.dtd">
<svg height="288pt" version="1.1" viewBox="0 0 432 288" width="432pt" xmlns="http://www.w3.org/2000/svg" xmlns:xlink="http://www.w3.org/1999/xlink">
 <metadata>
  <rdf:RDF xmlns:cc="http://creativecommons.org/ns#" xmlns:dc="http://purl.org/dc/elements/1.1/" xmlns:rdf="http://www.w3.org/1999/02/22-rdf-syntax-ns#">
   <cc:Work>
    <dc:type rdf:resource="http://purl.org/dc/dcmitype/StillImage"/>
    <dc:date>2022-02-09T17:17:42.443308</dc:date>
    <dc:format>image/svg+xml</dc:format>
    <dc:creator>
     <cc:Agent>
      <dc:title>Matplotlib v3.4.1, https://matplotlib.org/</dc:title>
     </cc:Agent>
    </dc:creator>
   </cc:Work>
  </rdf:RDF>
 </metadata>
 <defs>
  <style type="text/css">*{stroke-linecap:butt;stroke-linejoin:round;}</style>
 </defs>
 <g id="figure_1">
  <g id="patch_1">
   <path d="M 0 288 
L 432 288 
L 432 0 
L 0 0 
z
" style="fill:none;"/>
  </g>
  <g id="axes_1">
   <g id="patch_2">
    <path d="M 54 252 
L 388.8 252 
L 388.8 34.56 
L 54 34.56 
z
" style="fill:#ffffff;"/>
   </g>
   <g id="PathCollection_1">
    <path clip-path="url(#pf5cdd31352)" d="M 128.4 211.844966 
C 130.565374 211.844966 132.642352 210.984654 134.173503 209.453503 
C 135.704654 207.922352 136.564966 205.845374 136.564966 203.68 
C 136.564966 201.514626 135.704654 199.437648 134.173503 197.906497 
C 132.642352 196.375346 130.565374 195.515034 128.4 195.515034 
C 126.234626 195.515034 124.157648 196.375346 122.626497 197.906497 
C 121.095346 199.437648 120.235034 201.514626 120.235034 203.68 
C 120.235034 205.845374 121.095346 207.922352 122.626497 209.453503 
C 124.157648 210.984654 126.234626 211.844966 128.4 211.844966 
z
" style="fill:#440154;stroke:#440154;"/>
    <path clip-path="url(#pf5cdd31352)" d="M 128.4 189.317959 
C 130.998449 189.317959 133.490822 188.285584 135.328203 186.448203 
C 137.165584 184.610822 138.197959 182.118449 138.197959 179.52 
C 138.197959 176.921551 137.165584 174.429178 135.328203 172.591797 
C 133.490822 170.754416 130.998449 169.722041 128.4 169.722041 
C 125.801551 169.722041 123.309178 170.754416 121.471797 172.591797 
C 119.634416 174.429178 118.602041 176.921551 118.602041 179.52 
C 118.602041 182.118449 119.634416 184.610822 121.471797 186.448203 
C 123.309178 188.285584 125.801551 189.317959 128.4 189.317959 
z
" style="fill:#375a8c;stroke:#375a8c;"/>
    <path clip-path="url(#pf5cdd31352)" d="M 128.4 165.36 
C 131.052031 165.36 133.595799 164.306337 135.471068 162.431068 
C 137.346337 160.555799 138.4 158.012031 138.4 155.36 
C 138.4 152.707969 137.346337 150.164201 135.471068 148.288932 
C 133.595799 146.413663 131.052031 145.36 128.4 145.36 
C 125.747969 145.36 123.204201 146.413663 121.328932 148.288932 
C 119.453663 150.164201 118.4 152.707969 118.4 155.36 
C 118.4 158.012031 119.453663 160.555799 121.328932 162.431068 
C 123.204201 164.306337 125.747969 165.36 128.4 165.36 
z
" style="fill:#31688e;stroke:#31688e;"/>
    <path clip-path="url(#pf5cdd31352)" d="M 128.4 141.985478 
C 131.260342 141.985478 134.003917 140.849052 136.026484 138.826484 
C 138.049052 136.803917 139.185478 134.060342 139.185478 131.2 
C 139.185478 128.339658 138.049052 125.596083 136.026484 123.573516 
C 134.003917 121.550948 131.260342 120.414522 128.4 120.414522 
C 125.539658 120.414522 122.796083 121.550948 120.773516 123.573516 
C 118.750948 125.596083 117.614522 128.339658 117.614522 131.2 
C 117.614522 134.060342 118.750948 136.803917 120.773516 138.826484 
C 122.796083 140.849052 125.539658 141.985478 128.4 141.985478 
z
" style="fill:#1e9d89;stroke:#1e9d89;"/>
    <path clip-path="url(#pf5cdd31352)" d="M 128.4 117.927993 
C 131.287529 117.927993 134.057182 116.780765 136.098974 114.738974 
C 138.140765 112.697182 139.287993 109.927529 139.287993 107.04 
C 139.287993 104.152471 138.140765 101.382818 136.098974 99.341026 
C 134.057182 97.299235 131.287529 96.152007 128.4 96.152007 
C 125.512471 96.152007 122.742818 97.299235 120.701026 99.341026 
C 118.659235 101.382818 117.512007 104.152471 117.512007 107.04 
C 117.512007 109.927529 118.659235 112.697182 120.701026 114.738974 
C 122.742818 116.780765 125.512471 117.927993 128.4 117.927993 
z
" style="fill:#20a386;stroke:#20a386;"/>
    <path clip-path="url(#pf5cdd31352)" d="M 128.4 95.375613 
C 131.713875 95.375613 134.892469 94.058997 137.235733 91.715733 
C 139.578997 89.372469 140.895613 86.193875 140.895613 82.88 
C 140.895613 79.566125 139.578997 76.387531 137.235733 74.044267 
C 134.892469 71.701003 131.713875 70.384387 128.4 70.384387 
C 125.086125 70.384387 121.907531 71.701003 119.564267 74.044267 
C 117.221003 76.387531 115.904387 79.566125 115.904387 82.88 
C 115.904387 86.193875 117.221003 89.372469 119.564267 91.715733 
C 121.907531 94.058997 125.086125 95.375613 128.4 95.375613 
z
" style="fill:#fde725;stroke:#fde725;"/>
    <path clip-path="url(#pf5cdd31352)" d="M 190.4 161.133503 
C 191.931151 161.133503 193.399796 160.52517 194.482483 159.442483 
C 195.56517 158.359796 196.173503 156.891151 196.173503 155.36 
C 196.173503 153.828849 195.56517 152.360204 194.482483 151.277517 
C 193.399796 150.19483 191.931151 149.586497 190.4 149.586497 
C 188.868849 149.586497 187.400204 150.19483 186.317517 151.277517 
C 185.23483 152.360204 184.626497 153.828849 184.626497 155.36 
C 184.626497 156.891151 185.23483 158.359796 186.317517 159.442483 
C 187.400204 160.52517 188.868849 161.133503 190.4 161.133503 
z
" style="fill:#440154;stroke:#440154;"/>
    <path clip-path="url(#pf5cdd31352)" d="M 190.4 140.58953 
C 192.890132 140.58953 195.278611 139.600189 197.0394 137.8394 
C 198.800189 136.078611 199.78953 133.690132 199.78953 131.2 
C 199.78953 128.709868 198.800189 126.321389 197.0394 124.5606 
C 195.278611 122.799811 192.890132 121.81047 190.4 121.81047 
C 187.909868 121.81047 185.521389 122.799811 183.7606 124.5606 
C 181.999811 126.321389 181.01047 128.709868 181.01047 131.2 
C 181.01047 133.690132 181.999811 136.078611 183.7606 137.8394 
C 185.521389 139.600189 187.909868 140.58953 190.4 140.58953 
z
" style="fill:#443b84;stroke:#443b84;"/>
    <path clip-path="url(#pf5cdd31352)" d="M 190.4 92.702995 
C 193.005089 92.702995 195.50383 91.667982 197.345906 89.825906 
C 199.187982 87.98383 200.222995 85.485089 200.222995 82.88 
C 200.222995 80.274911 199.187982 77.77617 197.345906 75.934094 
C 195.50383 74.092018 193.005089 73.057005 190.4 73.057005 
C 187.794911 73.057005 185.29617 74.092018 183.454094 75.934094 
C 181.612018 77.77617 180.577005 80.274911 180.577005 82.88 
C 180.577005 85.485089 181.612018 87.98383 183.454094 89.825906 
C 185.29617 91.667982 187.794911 92.702995 190.4 92.702995 
z
" style="fill:#365c8d;stroke:#365c8d;"/>
    <path clip-path="url(#pf5cdd31352)" d="M 190.4 213.68 
C 193.052031 213.68 195.595799 212.626337 197.471068 210.751068 
C 199.346337 208.875799 200.4 206.332031 200.4 203.68 
C 200.4 201.027969 199.346337 198.484201 197.471068 196.608932 
C 195.595799 194.733663 193.052031 193.68 190.4 193.68 
C 187.747969 193.68 185.204201 194.733663 183.328932 196.608932 
C 181.453663 198.484201 180.4 201.027969 180.4 203.68 
C 180.4 206.332031 181.453663 208.875799 183.328932 210.751068 
C 185.204201 212.626337 187.747969 213.68 190.4 213.68 
z
" style="fill:#31688e;stroke:#31688e;"/>
    <path clip-path="url(#pf5cdd31352)" d="M 190.4 118.256348 
C 193.37461 118.256348 196.227788 117.074522 198.331155 114.971155 
C 200.434522 112.867788 201.616348 110.01461 201.616348 107.04 
C 201.616348 104.06539 200.434522 101.212212 198.331155 99.108845 
C 196.227788 97.005478 193.37461 95.823652 190.4 95.823652 
C 187.42539 95.823652 184.572212 97.005478 182.468845 99.108845 
C 180.365478 101.212212 179.183652 104.06539 179.183652 107.04 
C 179.183652 110.01461 180.365478 112.867788 182.468845 114.971155 
C 184.572212 117.074522 187.42539 118.256348 190.4 118.256348 
z
" style="fill:#3aba76;stroke:#3aba76;"/>
    <path clip-path="url(#pf5cdd31352)" d="M 190.4 191.767449 
C 193.648061 191.767449 196.763528 190.47698 199.060254 188.180254 
C 201.35698 185.883528 202.647449 182.768061 202.647449 179.52 
C 202.647449 176.271939 201.35698 173.156472 199.060254 170.859746 
C 196.763528 168.56302 193.648061 167.272551 190.4 167.272551 
C 187.151939 167.272551 184.036472 168.56302 181.739746 170.859746 
C 179.44302 173.156472 178.152551 176.271939 178.152551 179.52 
C 178.152551 182.768061 179.44302 185.883528 181.739746 188.180254 
C 184.036472 190.47698 187.151939 191.767449 190.4 191.767449 
z
" style="fill:#fde725;stroke:#fde725;"/>
    <path clip-path="url(#pf5cdd31352)" d="M 252.4 88.178129 
C 253.80508 88.178129 255.152801 87.619885 256.146343 86.626343 
C 257.139885 85.632801 257.698129 84.28508 257.698129 82.88 
C 257.698129 81.47492 257.139885 80.127199 256.146343 79.133657 
C 255.152801 78.140115 253.80508 77.581871 252.4 77.581871 
C 250.99492 77.581871 249.647199 78.140115 248.653657 79.133657 
C 247.660115 80.127199 247.101871 81.47492 247.101871 82.88 
C 247.101871 84.28508 247.660115 85.632801 248.653657 86.626343 
C 249.647199 87.619885 250.99492 88.178129 252.4 88.178129 
z
" style="fill:#440154;stroke:#440154;"/>
    <path clip-path="url(#pf5cdd31352)" d="M 252.4 136.621047 
C 253.837679 136.621047 255.216667 136.049852 256.233259 135.033259 
C 257.249852 134.016667 257.821047 132.637679 257.821047 131.2 
C 257.821047 129.762321 257.249852 128.383333 256.233259 127.366741 
C 255.216667 126.350148 253.837679 125.778953 252.4 125.778953 
C 250.962321 125.778953 249.583333 126.350148 248.566741 127.366741 
C 247.550148 128.383333 246.978953 129.762321 246.978953 131.2 
C 246.978953 132.637679 247.550148 134.016667 248.566741 135.033259 
C 249.583333 136.049852 250.962321 136.621047 252.4 136.621047 
z
" style="fill:#440154;stroke:#440154;"/>
    <path clip-path="url(#pf5cdd31352)" d="M 252.4 185.52 
C 253.991219 185.52 255.517479 184.887802 256.642641 183.762641 
C 257.767802 182.637479 258.4 181.111219 258.4 179.52 
C 258.4 177.928781 257.767802 176.402521 256.642641 175.277359 
C 255.517479 174.152198 253.991219 173.52 252.4 173.52 
C 250.808781 173.52 249.282521 174.152198 248.157359 175.277359 
C 247.032198 176.402521 246.4 177.928781 246.4 179.52 
C 246.4 181.111219 247.032198 182.637479 248.157359 183.762641 
C 249.282521 184.887802 250.808781 185.52 252.4 185.52 
z
" style="fill:#440154;stroke:#440154;"/>
    <path clip-path="url(#pf5cdd31352)" d="M 252.4 113.453192 
C 254.100798 113.453192 255.732165 112.777458 256.934812 111.574812 
C 258.137458 110.372165 258.813192 108.740798 258.813192 107.04 
C 258.813192 105.339202 258.137458 103.707835 256.934812 102.505188 
C 255.732165 101.302542 254.100798 100.626808 252.4 100.626808 
C 250.699202 100.626808 249.067835 101.302542 247.865188 102.505188 
C 246.662542 103.707835 245.986808 105.339202 245.986808 107.04 
C 245.986808 108.740798 246.662542 110.372165 247.865188 111.574812 
C 249.067835 112.777458 250.699202 113.453192 252.4 113.453192 
z
" style="fill:#440154;stroke:#440154;"/>
    <path clip-path="url(#pf5cdd31352)" d="M 252.4 162.026667 
C 254.168021 162.026667 255.863866 161.324225 257.114045 160.074045 
C 258.364225 158.823866 259.066667 157.128021 259.066667 155.36 
C 259.066667 153.591979 258.364225 151.896134 257.114045 150.645955 
C 255.863866 149.395775 254.168021 148.693333 252.4 148.693333 
C 250.631979 148.693333 248.936134 149.395775 247.685955 150.645955 
C 246.435775 151.896134 245.733333 153.591979 245.733333 155.36 
C 245.733333 157.128021 246.435775 158.823866 247.685955 160.074045 
C 248.936134 161.324225 250.631979 162.026667 252.4 162.026667 
z
" style="fill:#440154;stroke:#440154;"/>
    <path clip-path="url(#pf5cdd31352)" d="M 252.4 213.68 
C 255.052031 213.68 257.595799 212.626337 259.471068 210.751068 
C 261.346337 208.875799 262.4 206.332031 262.4 203.68 
C 262.4 201.027969 261.346337 198.484201 259.471068 196.608932 
C 257.595799 194.733663 255.052031 193.68 252.4 193.68 
C 249.747969 193.68 247.204201 194.733663 245.328932 196.608932 
C 243.453663 198.484201 242.4 201.027969 242.4 203.68 
C 242.4 206.332031 243.453663 208.875799 245.328932 210.751068 
C 247.204201 212.626337 249.747969 213.68 252.4 213.68 
z
" style="fill:#31688e;stroke:#31688e;"/>
    <path clip-path="url(#pf5cdd31352)" d="M 314.4 110.850004 
C 315.410425 110.850004 316.379601 110.448558 317.09408 109.73408 
C 317.808558 109.019601 318.210004 108.050425 318.210004 107.04 
C 318.210004 106.029575 317.808558 105.060399 317.09408 104.34592 
C 316.379601 103.631442 315.410425 103.229996 314.4 103.229996 
C 313.389575 103.229996 312.420399 103.631442 311.70592 104.34592 
C 310.991442 105.060399 310.589996 106.029575 310.589996 107.04 
C 310.589996 108.050425 310.991442 109.019601 311.70592 109.73408 
C 312.420399 110.448558 313.389575 110.850004 314.4 110.850004 
z
" style="fill:#440154;stroke:#440154;"/>
    <path clip-path="url(#pf5cdd31352)" d="M 314.4 183.762641 
C 315.525161 183.762641 316.604391 183.315609 317.4 182.52 
C 318.195609 181.724391 318.642641 180.645161 318.642641 179.52 
C 318.642641 178.394839 318.195609 177.315609 317.4 176.52 
C 316.604391 175.724391 315.525161 175.277359 314.4 175.277359 
C 313.274839 175.277359 312.195609 175.724391 311.4 176.52 
C 310.604391 177.315609 310.157359 178.394839 310.157359 179.52 
C 310.157359 180.645161 310.604391 181.724391 311.4 182.52 
C 312.195609 183.315609 313.274839 183.762641 314.4 183.762641 
z
" style="fill:#440154;stroke:#440154;"/>
    <path clip-path="url(#pf5cdd31352)" d="M 314.4 87.272977 
C 315.565031 87.272977 316.682502 86.810105 317.506304 85.986304 
C 318.330105 85.162502 318.792977 84.045031 318.792977 82.88 
C 318.792977 81.714969 318.330105 80.597498 317.506304 79.773696 
C 316.682502 78.949895 315.565031 78.487023 314.4 78.487023 
C 313.234969 78.487023 312.117498 78.949895 311.293696 79.773696 
C 310.469895 80.597498 310.007023 81.714969 310.007023 82.88 
C 310.007023 84.045031 310.469895 85.162502 311.293696 85.986304 
C 312.117498 86.810105 313.234969 87.272977 314.4 87.272977 
z
" style="fill:#440154;stroke:#440154;"/>
    <path clip-path="url(#pf5cdd31352)" d="M 314.4 209.453503 
C 315.931151 209.453503 317.399796 208.84517 318.482483 207.762483 
C 319.56517 206.679796 320.173503 205.211151 320.173503 203.68 
C 320.173503 202.148849 319.56517 200.680204 318.482483 199.597517 
C 317.399796 198.51483 315.931151 197.906497 314.4 197.906497 
C 312.868849 197.906497 311.400204 198.51483 310.317517 199.597517 
C 309.23483 200.680204 308.626497 202.148849 308.626497 203.68 
C 308.626497 205.211151 309.23483 206.679796 310.317517 207.762483 
C 311.400204 208.84517 312.868849 209.453503 314.4 209.453503 
z
" style="fill:#440154;stroke:#440154;"/>
    <path clip-path="url(#pf5cdd31352)" d="M 314.4 139.331571 
C 316.556518 139.331571 318.625001 138.474777 320.149889 136.949889 
C 321.674777 135.425001 322.531571 133.356518 322.531571 131.2 
C 322.531571 129.043482 321.674777 126.974999 320.149889 125.450111 
C 318.625001 123.925223 316.556518 123.068429 314.4 123.068429 
C 312.243482 123.068429 310.174999 123.925223 308.650111 125.450111 
C 307.125223 126.974999 306.268429 129.043482 306.268429 131.2 
C 306.268429 133.356518 307.125223 135.425001 308.650111 136.949889 
C 310.174999 138.474777 312.243482 139.331571 314.4 139.331571 
z
" style="fill:#440154;stroke:#440154;"/>
    <path clip-path="url(#pf5cdd31352)" d="M 314.4 166.415416 
C 317.331931 166.415416 320.144172 165.250548 322.21736 163.17736 
C 324.290548 161.104172 325.455416 158.291931 325.455416 155.36 
C 325.455416 152.428069 324.290548 149.615828 322.21736 147.54264 
C 320.144172 145.469452 317.331931 144.304584 314.4 144.304584 
C 311.468069 144.304584 308.655828 145.469452 306.58264 147.54264 
C 304.509452 149.615828 303.344584 152.428069 303.344584 155.36 
C 303.344584 158.291931 304.509452 161.104172 306.58264 163.17736 
C 308.655828 165.250548 311.468069 166.415416 314.4 166.415416 
z
" style="fill:#29af7f;stroke:#29af7f;"/>
   </g>
   <g id="matplotlib.axis_1">
    <g id="xtick_1">
     <g id="line2d_1">
      <defs>
       <path d="M 0 0 
L 0 3.5 
" id="mfd8c682f5e" style="stroke:#000000;stroke-width:0.8;"/>
      </defs>
      <g>
       <use style="stroke:#000000;stroke-width:0.8;" x="128.4" xlink:href="#mfd8c682f5e" y="252"/>
      </g>
     </g>
     <g id="text_1">
      <text style="font-family:DejaVu Sans;font-size:6px;font-stretch:normal;font-style:normal;font-weight:normal;text-anchor:middle;" transform="rotate(-0, 128.4, 263.559062)" x="128.4" y="263.559062">Specific</text>
     </g>
    </g>
    <g id="xtick_2">
     <g id="line2d_2">
      <g>
       <use style="stroke:#000000;stroke-width:0.8;" x="190.4" xlink:href="#mfd8c682f5e" y="252"/>
      </g>
     </g>
     <g id="text_2">
      <text style="font-family:DejaVu Sans;font-size:6px;font-stretch:normal;font-style:normal;font-weight:normal;text-anchor:middle;" transform="rotate(-0, 190.4, 263.559062)" x="190.4" y="263.559062">No</text>
     </g>
    </g>
    <g id="xtick_3">
     <g id="line2d_3">
      <g>
       <use style="stroke:#000000;stroke-width:0.8;" x="252.4" xlink:href="#mfd8c682f5e" y="252"/>
      </g>
     </g>
     <g id="text_3">
      <text style="font-family:DejaVu Sans;font-size:6px;font-stretch:normal;font-style:normal;font-weight:normal;text-anchor:middle;" transform="rotate(-0, 252.4, 263.559062)" x="252.4" y="263.559062">Spurious</text>
     </g>
    </g>
    <g id="xtick_4">
     <g id="line2d_4">
      <g>
       <use style="stroke:#000000;stroke-width:0.8;" x="314.4" xlink:href="#mfd8c682f5e" y="252"/>
      </g>
     </g>
     <g id="text_4">
      <text style="font-family:DejaVu Sans;font-size:6px;font-stretch:normal;font-style:normal;font-weight:normal;text-anchor:middle;" transform="rotate(-0, 314.4, 263.559062)" x="314.4" y="263.559062">Unspecific</text>
     </g>
    </g>
   </g>
   <g id="matplotlib.axis_2">
    <g id="ytick_1">
     <g id="line2d_5">
      <defs>
       <path d="M 0 0 
L -3.5 0 
" id="m209908cec9" style="stroke:#000000;stroke-width:0.8;"/>
      </defs>
      <g>
       <use style="stroke:#000000;stroke-width:0.8;" x="54" xlink:href="#m209908cec9" y="203.68"/>
      </g>
     </g>
     <g id="text_5">
      <text style="font-family:DejaVu Sans;font-size:6px;font-stretch:normal;font-style:normal;font-weight:normal;text-anchor:end;" transform="rotate(-0, 47, 205.959531)" x="47" y="205.959531">alpha-chloralose</text>
     </g>
    </g>
    <g id="ytick_2">
     <g id="line2d_6">
      <g>
       <use style="stroke:#000000;stroke-width:0.8;" x="54" xlink:href="#m209908cec9" y="179.52"/>
      </g>
     </g>
     <g id="text_6">
      <text style="font-family:DejaVu Sans;font-size:6px;font-stretch:normal;font-style:normal;font-weight:normal;text-anchor:end;" transform="rotate(-0, 47, 181.799531)" x="47" y="181.799531">urethane</text>
     </g>
    </g>
    <g id="ytick_3">
     <g id="line2d_7">
      <g>
       <use style="stroke:#000000;stroke-width:0.8;" x="54" xlink:href="#m209908cec9" y="155.36"/>
      </g>
     </g>
     <g id="text_7">
      <text style="font-family:DejaVu Sans;font-size:6px;font-stretch:normal;font-style:normal;font-weight:normal;text-anchor:end;" transform="rotate(-0, 47, 157.639531)" x="47" y="157.639531">awake</text>
     </g>
    </g>
    <g id="ytick_4">
     <g id="line2d_8">
      <g>
       <use style="stroke:#000000;stroke-width:0.8;" x="54" xlink:href="#m209908cec9" y="131.2"/>
      </g>
     </g>
     <g id="text_8">
      <text style="font-family:DejaVu Sans;font-size:6px;font-stretch:normal;font-style:normal;font-weight:normal;text-anchor:end;" transform="rotate(-0, 47, 133.479531)" x="47" y="133.479531">isoflurane</text>
     </g>
    </g>
    <g id="ytick_5">
     <g id="line2d_9">
      <g>
       <use style="stroke:#000000;stroke-width:0.8;" x="54" xlink:href="#m209908cec9" y="107.04"/>
      </g>
     </g>
     <g id="text_9">
      <text style="font-family:DejaVu Sans;font-size:6px;font-stretch:normal;font-style:normal;font-weight:normal;text-anchor:end;" transform="rotate(-0, 47, 109.319531)" x="47" y="109.319531">medetomidine</text>
     </g>
    </g>
    <g id="ytick_6">
     <g id="line2d_10">
      <g>
       <use style="stroke:#000000;stroke-width:0.8;" x="54" xlink:href="#m209908cec9" y="82.88"/>
      </g>
     </g>
     <g id="text_10">
      <text style="font-family:DejaVu Sans;font-size:6px;font-stretch:normal;font-style:normal;font-weight:normal;text-anchor:end;" transform="rotate(-0, 47, 85.159531)" x="47" y="85.159531">isoflurane / medetomidine</text>
     </g>
    </g>
   </g>
   <g id="patch_3">
    <path d="M 54 252 
L 54 34.56 
" style="fill:none;stroke:#000000;stroke-linecap:square;stroke-linejoin:miter;stroke-width:0.8;"/>
   </g>
   <g id="patch_4">
    <path d="M 388.8 252 
L 388.8 34.56 
" style="fill:none;stroke:#000000;stroke-linecap:square;stroke-linejoin:miter;stroke-width:0.8;"/>
   </g>
   <g id="patch_5">
    <path d="M 54 252 
L 388.8 252 
" style="fill:none;stroke:#000000;stroke-linecap:square;stroke-linejoin:miter;stroke-width:0.8;"/>
   </g>
   <g id="patch_6">
    <path d="M 54 34.56 
L 388.8 34.56 
" style="fill:none;stroke:#000000;stroke-linecap:square;stroke-linejoin:miter;stroke-width:0.8;"/>
   </g>
  </g>
 </g>
 <defs>
  <clipPath id="pf5cdd31352">
   <rect height="217.44" width="334.8" x="54" y="34.56"/>
  </clipPath>
 </defs>
</svg>
